<?xml version="1.0" standalone="no"?>
<!DOCTYPE svg PUBLIC "-//W3C//DTD SVG 20010904//EN"
 "http://www.w3.org/TR/2001/REC-SVG-20010904/DTD/svg10.dtd">
<svg version="1.0" xmlns="http://www.w3.org/2000/svg"
 width="600.000000pt" height="600.000000pt" viewBox="0 0 600.000000 600.000000"
 preserveAspectRatio="xMidYMid meet">

<g transform="translate(0.000000,600.000000) scale(0.100000,-0.100000)"
fill="#000000" stroke="none">
<path d="M5025 5029 c-281 -49 -489 -129 -915 -350 -418 -217 -852 -488 -1400
-872 -857 -602 -1626 -1265 -1999 -1726 -220 -272 -333 -509 -335 -701 -1
-164 86 -290 243 -352 48 -19 75 -22 191 -22 200 -1 388 46 675 169 577 247
1976 1107 2718 1671 565 430 1128 971 1343 1291 176 262 227 491 145 657 -93
189 -371 287 -666 235z m346 -168 c141 -53 203 -127 203 -240 0 -119 -72 -289
-188 -446 -213 -289 -736 -791 -1211 -1161 -307 -240 -1187 -822 -1730 -1146
-460 -274 -786 -447 -1075 -571 -258 -111 -366 -138 -550 -140 -186 -2 -290
81 -290 230 0 64 36 188 80 271 71 137 372 509 448 555 44 26 53 28 127 23 44
-2 231 -32 415 -65 361 -65 476 -81 585 -81 168 0 299 66 320 161 10 45 -27
112 -94 166 -94 78 -286 157 -481 199 -65 14 -129 19 -267 19 -101 0 -183 3
-183 6 0 4 9 13 19 20 11 8 146 118 300 244 290 237 350 278 427 289 90 12
344 -34 749 -136 226 -57 247 -61 365 -62 98 -1 136 3 178 17 83 29 142 90
142 147 0 86 -159 225 -374 325 -157 74 -302 110 -488 123 l-93 7 177 120 c97
66 238 163 315 214 149 103 210 130 288 131 29 0 171 -29 335 -70 493 -120
669 -144 770 -106 71 27 117 63 135 109 15 38 15 44 0 83 -20 53 -109 138
-203 193 -129 77 -294 131 -447 149 l-70 7 90 50 c111 61 491 237 646 298 180
73 311 98 474 92 71 -2 116 -9 156 -24z m-1258 -586 c176 -26 342 -94 425
-172 l37 -35 -25 -14 c-40 -22 -180 -17 -295 10 -240 56 -595 149 -595 156 0
13 95 49 152 59 83 14 194 12 301 -4z m-1207 -836 c168 -23 370 -101 499 -194
92 -65 95 -72 49 -91 -36 -15 -48 -15 -181 5 -79 12 -249 48 -378 81 -129 32
-292 68 -362 80 -70 12 -132 22 -138 24 -17 5 42 37 115 62 120 42 253 53 396
33z m-1116 -959 c185 -20 352 -73 483 -153 37 -23 67 -44 67 -48 0 -18 -104
-34 -210 -33 -100 1 -161 10 -475 73 -198 39 -371 74 -385 77 -22 5 -21 7 19
25 129 57 310 79 501 59z"/>
</g>
</svg>
