<?xml version="1.0" standalone="no"?>
<!DOCTYPE svg PUBLIC "-//W3C//DTD SVG 20010904//EN"
 "http://www.w3.org/TR/2001/REC-SVG-20010904/DTD/svg10.dtd">
<svg version="1.0" xmlns="http://www.w3.org/2000/svg"
 width="530.000000pt" height="350.000000pt" viewBox="0 0 530.000000 350.000000"
 preserveAspectRatio="xMidYMid meet">
<metadata>
Created by potrace 1.16, written by Peter Selinger 2001-2019
</metadata>
<g transform="translate(0.000000,350.000000) scale(0.100000,-0.100000)"
fill="#000000" stroke="none">
<path d="M2145 3489 c-123 -18 -555 -154 -664 -209 -33 -16 -99 -55 -148 -87
-48 -31 -96 -56 -105 -55 -16 1 -88 -72 -88 -88 0 -4 -25 -23 -54 -43 -30 -20
-97 -85 -148 -144 -128 -146 -124 -143 -297 -299 -183 -166 -218 -194 -244
-194 -26 0 -118 -95 -171 -177 -102 -159 -196 -389 -215 -527 -16 -110 -13
-454 3 -546 27 -145 100 -310 227 -505 196 -304 513 -457 1169 -564 277 -46
346 -50 700 -46 357 5 373 6 910 66 52 6 181 26 285 44 105 19 274 47 376 64
172 28 348 73 465 120 109 42 385 184 470 240 103 68 358 308 455 428 67 84
99 143 153 283 54 142 66 213 73 421 8 267 -14 375 -128 618 -27 57 -66 131
-87 165 -22 33 -63 108 -93 166 -71 139 -176 249 -290 304 -42 20 -93 50 -114
66 -21 17 -41 30 -45 30 -4 0 -38 25 -75 55 -37 31 -96 72 -130 93 -40 23 -70
49 -81 71 -23 42 -96 106 -154 136 -149 76 -539 129 -690 94 -44 -10 -509 -13
-801 -5 -108 3 -155 9 -177 20 -35 18 -181 20 -287 5z m215 -54 c0 -2 -70 -59
-156 -126 -169 -133 -319 -284 -494 -499 -162 -197 -203 -264 -258 -421 -34
-96 -87 -323 -97 -414 -9 -80 10 -311 33 -421 11 -49 25 -129 32 -179 18 -135
18 -135 43 -135 27 0 48 21 149 146 40 50 100 122 133 160 33 38 97 121 142
184 45 63 124 165 174 225 50 61 127 162 169 225 110 164 330 437 476 590 114
121 241 266 349 400 51 63 101 122 111 131 30 26 184 97 234 108 93 21 244 13
423 -23 187 -38 272 -72 330 -130 45 -45 46 -56 6 -56 -41 0 -192 -51 -277
-94 -38 -19 -101 -59 -140 -89 -87 -65 -291 -263 -342 -332 -21 -27 -66 -81
-100 -120 -94 -105 -170 -234 -225 -380 -20 -53 -47 -235 -70 -475 -3 -30 -20
-101 -37 -157 -17 -56 -28 -108 -25 -117 16 -41 144 1 401 131 194 99 415 242
559 363 198 166 511 541 597 715 35 70 55 135 76 239 4 22 8 26 17 17 6 -6 21
-11 32 -11 33 0 133 -70 197 -137 36 -38 73 -93 103 -153 26 -51 70 -129 98
-174 92 -147 172 -348 202 -506 18 -98 13 -315 -11 -462 -13 -83 -67 -235
-118 -337 -47 -92 -176 -236 -361 -404 -118 -106 -201 -160 -409 -264 -232
-116 -406 -172 -666 -213 -74 -11 -223 -36 -330 -55 -228 -40 -318 -53 -455
-65 -55 -5 -161 -16 -235 -24 -205 -24 -638 -37 -834 -26 -252 15 -712 95
-895 156 -273 91 -473 220 -584 377 -84 118 -175 290 -212 399 -48 144 -59
259 -47 504 10 187 11 194 52 314 46 137 145 328 202 393 l38 42 -6 -60 c-8
-79 10 -192 53 -340 41 -142 71 -202 134 -268 35 -36 53 -48 70 -45 27 3 20
-16 99 278 51 194 119 376 319 858 80 194 91 216 160 325 33 52 49 65 169 138
73 44 168 93 210 110 118 47 488 156 572 168 41 6 86 13 100 15 39 5 120 7
120 1z m345 -35 c28 -4 151 -6 275 -4 186 4 221 2 205 -8 -38 -25 -131 -124
-245 -263 -63 -77 -158 -185 -211 -240 -93 -97 -357 -408 -450 -530 -25 -33
-77 -107 -116 -165 -39 -58 -103 -143 -143 -190 -39 -47 -123 -155 -186 -240
-63 -85 -149 -196 -192 -246 -42 -50 -95 -113 -117 -139 l-39 -49 -19 104
c-20 112 -22 149 -12 220 3 25 10 88 16 140 6 52 30 172 54 265 84 323 176
503 380 742 128 149 296 333 411 449 45 45 91 101 102 125 l21 44 108 -3 c59
-2 131 -7 158 -12z m-446 -158 c-68 -70 -178 -188 -244 -262 -66 -74 -149
-167 -186 -207 -87 -94 -200 -276 -256 -411 -46 -110 -127 -377 -139 -459 -5
-37 -9 -42 -17 -28 -13 24 -3 114 32 276 59 272 118 400 285 608 184 230 330
379 495 502 79 60 146 109 149 109 3 0 -51 -57 -119 -128z m1916 -131 c-44
-21 -115 -63 -157 -92 -114 -80 -322 -252 -414 -344 -112 -111 -254 -306 -321
-439 -30 -61 -72 -140 -93 -176 -21 -36 -52 -100 -70 -143 -18 -42 -34 -76
-35 -75 -4 5 33 282 40 303 31 85 143 289 190 345 31 36 86 106 124 155 87
114 277 300 367 358 134 87 253 126 439 145 6 1 -26 -16 -70 -37z m251 -83
l94 -73 -5 -61 c-6 -66 -34 -164 -67 -229 -11 -22 -52 -85 -91 -140 -235 -333
-541 -624 -842 -800 -128 -75 -358 -190 -439 -220 -61 -23 -68 -24 -61 -8 3
10 17 56 29 103 39 145 320 681 440 839 138 181 222 262 504 478 127 99 274
179 330 182 8 1 56 -32 108 -71z m-3387 -175 c-119 -273 -298 -721 -337 -843
-16 -52 -47 -164 -68 -248 -22 -83 -43 -151 -49 -149 -17 6 -73 95 -96 155
-21 54 -22 70 -19 282 1 124 3 239 4 256 1 24 12 40 53 75 161 136 339 306
427 406 55 62 101 113 102 113 2 0 -6 -21 -17 -47z"/>
<path d="M3386 3357 c-63 -46 83 -136 150 -92 53 35 12 89 -76 99 -40 5 -60 3
-74 -7z"/>
<path d="M3713 3315 c-40 -17 -53 -57 -28 -85 9 -10 39 -23 66 -29 51 -11 86
-4 107 21 12 15 11 76 -2 97 -10 15 -104 13 -143 -4z"/>
<path d="M3240 3178 c-46 -12 -64 -31 -56 -56 14 -43 129 -69 170 -39 24 18
17 56 -14 78 -35 24 -59 29 -100 17z"/>
<path d="M1653 3123 c-88 -48 -84 -90 10 -100 89 -10 167 67 118 116 -28 28
-55 25 -128 -16z"/>
<path d="M3083 3005 c-47 -29 -61 -57 -43 -91 19 -35 63 -49 110 -35 43 13
100 61 100 84 0 20 -38 47 -67 47 -12 0 -25 5 -28 10 -10 16 -26 12 -72 -15z"/>
<path d="M1294 2852 c-5 -4 -20 -24 -33 -44 -17 -29 -20 -42 -12 -56 24 -45
122 -31 151 21 15 27 14 29 -18 58 -31 28 -66 37 -88 21z"/>
<path d="M2749 2492 c-90 -58 -114 -123 -55 -150 62 -30 200 14 220 70 12 35
-7 73 -43 87 -59 23 -75 22 -122 -7z"/>
<path d="M4660 2373 c-33 -12 -48 -35 -48 -74 -1 -53 28 -66 105 -49 102 22
122 74 40 104 -59 21 -80 25 -97 19z"/>
<path d="M4435 2250 c-51 -11 -90 -34 -93 -56 -8 -59 124 -89 173 -39 21 20
23 28 14 47 -15 33 -58 55 -94 48z"/>
<path d="M2742 2061 c-34 -9 -102 -72 -102 -93 0 -57 167 -45 189 14 11 30 -4
63 -36 77 -13 6 -25 11 -26 10 -1 -1 -12 -4 -25 -8z"/>
<path d="M4320 1965 c-8 -9 -26 -24 -40 -34 -21 -16 -22 -21 -11 -35 17 -21
86 -39 114 -30 29 9 57 34 57 51 0 8 -11 25 -25 38 -28 28 -73 33 -95 10z"/>
<path d="M2146 1741 c-9 -10 -37 -24 -61 -31 -52 -15 -69 -31 -60 -59 7 -24
54 -41 109 -41 46 0 55 5 79 40 45 66 -15 148 -67 91z"/>
<path d="M5017 1298 c-18 -29 -50 -79 -71 -111 -54 -85 -166 -198 -235 -237
-33 -19 -63 -42 -66 -51 -7 -20 -59 -56 -146 -99 -35 -18 -102 -63 -149 -100
-47 -37 -98 -74 -114 -82 -18 -9 -25 -18 -18 -22 15 -9 62 16 142 74 36 26
111 71 167 99 56 28 117 64 135 79 18 16 53 42 78 57 110 69 214 181 305 329
36 59 46 83 38 94 -18 30 -32 23 -66 -30z"/>
<path d="M4240 790 c-41 -16 -90 -29 -108 -29 -62 -2 -146 -49 -135 -77 7 -19
27 -18 74 6 22 12 48 18 58 15 24 -7 205 50 221 70 10 12 10 18 0 30 -16 20
-22 19 -110 -15z"/>
<path d="M442 663 c2 -21 15 -34 58 -58 110 -62 436 -154 546 -155 42 0 61 -7
100 -33 27 -18 62 -38 77 -45 39 -17 96 -15 103 3 9 21 -14 45 -43 45 -27 0
-73 22 -120 57 -25 19 -51 26 -115 33 -46 4 -119 16 -163 25 -145 30 -403 119
-412 142 -10 26 -34 14 -31 -14z"/>
<path d="M3700 514 c-41 -8 -84 -18 -95 -24 -11 -5 -49 -16 -85 -24 -93 -21
-203 -59 -294 -100 -80 -37 -123 -46 -326 -72 -165 -20 -253 -38 -258 -52 -5
-15 9 -15 157 -2 338 30 340 30 456 77 116 48 144 57 295 98 133 36 235 55
301 55 64 0 91 18 69 45 -16 19 -112 18 -220 -1z"/>
<path d="M1383 507 c-2 -4 1 -14 7 -22 9 -11 34 -15 84 -15 54 0 78 -5 101
-20 29 -19 96 -27 129 -14 9 3 16 17 16 31 0 24 -3 25 -37 20 -27 -4 -51 0
-82 14 -35 15 -62 19 -128 17 -47 -1 -87 -6 -90 -11z"/>
<path d="M1981 321 c-21 -14 -5 -41 25 -41 14 0 38 -10 53 -23 26 -21 36 -22
172 -22 140 0 144 1 147 22 4 30 -21 36 -163 37 -97 1 -125 4 -145 19 -26 18
-66 22 -89 8z"/>
</g>
</svg>
