<?xml version="1.0" standalone="no"?>
<!DOCTYPE svg PUBLIC "-//W3C//DTD SVG 20010904//EN"
 "http://www.w3.org/TR/2001/REC-SVG-20010904/DTD/svg10.dtd">
<svg version="1.0" xmlns="http://www.w3.org/2000/svg"
 width="350.000000pt" height="350.000000pt" viewBox="0 0 350.000000 350.000000"
 preserveAspectRatio="xMidYMid meet">
<metadata>
Created by potrace 1.16, written by Peter Selinger 2001-2019
</metadata>
<g transform="translate(0.000000,350.000000) scale(0.100000,-0.100000)"
fill="#000000" stroke="none">
<path d="M2138 2790 c-73 -12 -146 -39 -218 -77 -81 -44 -127 -79 -211 -161
l-67 -64 -73 50 c-177 119 -263 147 -449 145 -264 -2 -402 -59 -564 -234 -122
-132 -176 -291 -176 -521 0 -211 68 -497 157 -658 99 -178 260 -326 450 -411
97 -43 361 -123 477 -144 251 -45 688 31 971 170 267 130 441 294 552 520 43
86 100 265 118 369 28 167 16 412 -30 572 -20 68 -100 190 -160 241 -91 77
-288 169 -427 198 -74 16 -269 18 -350 5z m358 -60 c44 -11 139 -49 214 -87
222 -110 291 -196 330 -412 40 -229 22 -435 -60 -669 -77 -220 -149 -335 -285
-455 -193 -172 -417 -271 -740 -328 -224 -39 -394 -31 -622 31 l-78 21 2 47
c2 35 1 42 -6 27 -5 -11 -10 -31 -10 -44 -1 -20 -5 -22 -26 -17 -71 18 -77 24
-73 68 2 27 -1 43 -9 45 -9 3 -13 -8 -13 -36 0 -46 -3 -48 -61 -24 l-41 16 6
59 c4 34 3 58 -2 58 -14 0 -22 -26 -22 -66 0 -41 -8 -42 -60 -9 l-40 25 6 63
c6 68 -10 64 -21 -5 -8 -43 -11 -45 -45 -19 -23 18 -24 22 -14 81 13 77 -1 89
-16 14 l-12 -56 -30 28 c-30 30 -31 39 -11 122 7 29 -13 29 -21 -1 l-6 -22
-18 23 c-15 19 -17 36 -14 79 5 61 -10 68 -22 11 l-7 -33 -25 30 c-18 22 -23
38 -20 60 14 84 18 155 8 155 -11 0 -22 -33 -22 -67 0 -33 -15 -28 -39 13
l-22 36 20 92 c12 52 16 95 11 100 -5 5 -11 -7 -15 -28 -9 -44 -15 -45 -38 -6
-16 27 -17 34 -3 85 16 63 3 86 -15 25 -13 -43 -20 -48 -38 -26 -9 11 -5 35
19 108 16 52 30 103 30 112 0 34 -20 4 -42 -65 -16 -51 -24 -65 -29 -52 -16
39 -8 88 25 158 50 103 54 146 6 50 l-41 -80 6 57 c4 35 18 78 35 110 17 29
30 60 29 68 0 8 -11 -5 -25 -30 l-25 -45 6 40 c3 22 22 73 41 114 58 124 224
274 349 314 137 45 333 50 443 13 93 -32 196 -87 250 -135 l44 -38 -31 -48
c-34 -54 -66 -146 -76 -217 -3 -27 -8 -48 -10 -48 -2 0 -26 12 -54 27 -99 51
-280 30 -378 -44 -50 -37 -91 -84 -112 -128 -40 -82 -36 -225 8 -316 l21 -43
-30 -24 c-16 -13 -42 -44 -56 -68 -22 -37 -26 -53 -22 -97 8 -77 44 -163 92
-212 68 -71 177 -81 286 -25 50 25 55 25 94 -5 107 -81 404 -133 581 -101 155
29 226 58 355 148 52 36 57 38 95 27 62 -17 212 -7 260 18 124 64 184 218 122
312 -14 21 -48 53 -77 71 -41 27 -51 37 -46 54 3 12 10 42 17 68 7 27 17 44
23 42 13 -5 100 175 90 185 -9 9 -42 -40 -68 -104 l-25 -60 -1 43 c0 30 11 67
36 119 19 41 33 82 31 91 -4 15 -40 -52 -62 -113 -6 -18 -8 -16 -21 14 -19 46
-18 53 16 121 17 33 30 66 30 75 0 32 -20 13 -47 -45 -15 -33 -30 -60 -33 -60
-3 0 -13 13 -23 29 -15 25 -15 33 -3 62 23 57 28 79 18 79 -6 0 -18 -21 -28
-46 l-17 -45 -21 20 -20 21 22 61 c12 34 20 64 18 67 -10 9 -23 -9 -36 -50
-18 -58 -23 -62 -49 -41 -21 17 -21 20 -7 55 9 21 16 43 16 50 0 21 -17 -5
-30 -45 -9 -30 -16 -37 -29 -31 -9 4 -47 16 -86 26 -91 25 -234 20 -315 -11
-69 -26 -247 -141 -317 -205 -51 -46 -65 -47 -43 -5 7 11 7 19 1 19 -5 0 -26
-29 -46 -65 -20 -36 -40 -65 -45 -65 -15 0 -13 7 30 91 22 43 40 82 40 85 0
18 -29 -22 -55 -76 -28 -58 -45 -76 -45 -46 0 8 20 58 45 112 25 53 43 99 40
102 -8 8 -12 2 -49 -79 -32 -66 -35 -71 -36 -41 0 19 17 66 41 113 22 45 35
78 29 74 -5 -3 -19 -24 -30 -46 -26 -50 -33 -50 -16 -1 32 90 84 162 186 261
120 115 293 207 425 224 93 12 256 6 331 -13z m-117 -505 c76 -34 128 -90 178
-192 34 -69 36 -77 30 -145 -4 -63 -31 -158 -43 -158 -3 0 -28 12 -56 26 -29
15 -80 37 -114 50 -70 26 -205 105 -279 162 -42 32 -49 43 -47 66 3 27 -13
152 -24 188 -8 25 62 38 187 34 90 -3 115 -8 168 -31z m-397 -33 c3 -10 -10
-53 -29 -96 -19 -43 -32 -80 -29 -83 3 -3 20 25 37 63 l32 69 9 -34 c15 -53
-7 -154 -53 -247 -72 -147 -215 -289 -471 -471 -190 -134 -346 -205 -416 -186
-25 6 -26 9 -11 51 6 17 9 39 7 49 -4 17 -7 9 -34 -75 -6 -19 -44 4 -44 27 0
10 9 43 19 74 26 74 11 73 -22 0 -20 -46 -26 -54 -32 -40 -5 11 2 44 19 85 29
75 30 82 17 82 -6 0 -20 -27 -32 -61 -15 -41 -25 -56 -30 -47 -15 23 -10 55
21 123 16 37 30 74 30 84 0 24 104 89 288 180 158 78 287 156 366 223 22 18
37 26 34 18 -27 -73 -18 -81 13 -11 17 41 82 111 103 111 3 0 -9 -29 -25 -65
-17 -36 -29 -70 -27 -76 2 -6 20 25 41 68 21 43 43 85 50 94 12 16 147 108
158 109 4 0 9 -8 11 -18z m-562 -118 c29 -16 57 -36 61 -44 4 -8 15 -32 25
-52 10 -21 16 -39 14 -41 -41 -35 -211 -132 -310 -177 -70 -31 -145 -69 -165
-83 -21 -15 -41 -24 -45 -22 -20 13 -42 120 -39 193 4 70 7 82 40 127 39 55
118 109 183 124 76 18 176 8 236 -25z m677 -158 c89 -63 185 -117 261 -147 43
-17 123 -53 178 -80 176 -86 217 -155 159 -268 -45 -89 -115 -124 -240 -119
l-80 3 2 53 c3 61 -14 62 -23 1 -7 -43 -11 -45 -49 -27 -28 13 -29 18 -15 68
6 21 6 38 0 44 -5 5 -13 -9 -21 -38 -13 -51 -15 -53 -46 -31 -18 13 -20 20
-12 52 19 83 0 99 -20 18 -10 -41 -14 -44 -31 -35 -30 16 -33 27 -20 80 17 72
6 85 -15 18 -10 -32 -21 -58 -24 -58 -3 1 -17 9 -30 20 -22 19 -22 22 -11 70
7 28 10 54 6 57 -6 6 -7 3 -28 -59 -12 -32 -15 -35 -30 -24 -17 12 -17 16 2
71 11 31 17 62 14 67 -9 14 -22 -8 -35 -59 -7 -27 -17 -43 -27 -43 -15 0 -14
25 4 104 11 49 -15 20 -27 -30 -8 -32 -15 -42 -22 -35 -10 10 -8 23 20 99 3 6
1 12 -5 12 -5 0 -17 -19 -26 -42 -16 -38 -18 -40 -33 -25 -15 14 -12 21 31 79
26 35 66 102 89 150 23 48 45 87 49 88 5 0 29 -15 55 -34z m-197 -372 c62 -62
275 -215 329 -236 l26 -9 -25 -19 c-62 -48 -207 -111 -285 -125 -106 -19 -259
-19 -370 1 -87 15 -194 54 -214 78 -7 9 26 37 117 102 126 88 279 211 316 252
11 12 24 22 30 22 6 0 40 -30 76 -66z"/>
</g>
</svg>
