<?xml version="1.0" standalone="no"?>
<!DOCTYPE svg PUBLIC "-//W3C//DTD SVG 20010904//EN"
 "http://www.w3.org/TR/2001/REC-SVG-20010904/DTD/svg10.dtd">
<svg version="1.0" xmlns="http://www.w3.org/2000/svg"
 width="512.000000pt" height="512.000000pt" viewBox="0 0 512.000000 512.000000"
 preserveAspectRatio="xMidYMid meet">
<metadata>
Created by potrace 1.16, written by Peter Selinger 2001-2019
</metadata>
<g transform="translate(0.000000,512.000000) scale(0.100000,-0.100000)"
fill="#000000" stroke="none">
<path d="M3213 4615 c-98 -17 -213 -60 -303 -112 -97 -57 -226 -191 -274 -284
l-38 -76 -122 -6 c-178 -8 -321 -52 -456 -142 -94 -63 -199 -178 -241 -263
l-33 -69 -110 -6 c-238 -14 -422 -88 -575 -232 -59 -55 -122 -143 -152 -209
l-19 -43 -122 -6 c-129 -5 -241 -30 -322 -69 -48 -23 -68 -53 -59 -89 15 -62
60 -73 152 -38 197 74 437 60 624 -38 140 -74 310 -273 232 -273 -34 0 -202
-96 -253 -146 -48 -46 -54 -56 -47 -81 9 -36 30 -60 61 -67 29 -8 56 5 108 52
22 19 72 50 112 68 226 105 513 104 714 -2 78 -41 181 -123 209 -167 11 -18
28 -42 36 -54 56 -75 80 -241 51 -349 -36 -137 -152 -270 -296 -341 -131 -65
-191 -78 -355 -77 -129 1 -147 3 -227 31 -118 41 -190 85 -271 166 -65 65 -86
100 -135 219 -6 15 -23 35 -37 44 -22 14 -33 15 -82 5 -299 -60 -678 99 -793
332 -61 125 -58 252 9 385 45 89 39 130 -19 151 -47 16 -77 -3 -112 -72 -87
-174 -88 -370 -2 -546 l37 -74 3 -261 c5 -382 29 -604 78 -712 30 -65 83 -108
216 -174 383 -192 1388 -519 1525 -497 45 7 2129 1182 2223 1253 23 18 32 33
32 53 0 41 -35 81 -70 81 -20 0 -135 -61 -347 -183 -374 -216 -771 -442 -1302
-741 l-384 -216 7 58 c13 105 25 426 19 514 l-6 86 44 23 c163 82 299 216 360
353 l19 43 112 6 c196 11 362 66 496 167 113 85 186 172 228 273 l18 44 126 6
c142 6 253 33 368 91 144 73 270 194 333 322 l30 61 117 6 c177 9 331 58 461
146 43 29 61 37 61 27 0 -18 -89 -447 -121 -585 -15 -66 -28 -101 -44 -115
-13 -12 -87 -61 -165 -110 -77 -49 -143 -93 -146 -98 -3 -5 -6 -22 -6 -40 -1
-36 39 -78 74 -78 21 0 241 132 330 199 26 19 54 49 62 65 24 51 71 252 135
576 67 338 108 544 121 605 12 54 12 141 0 206 -50 269 -296 499 -605 564 -83
18 -263 24 -327 12 -36 -7 -38 -6 -52 27 -43 102 -173 244 -284 309 -73 43
-171 82 -253 102 -94 23 -277 27 -376 10z m148 -157 c4 -7 26 -12 48 -12 35
-1 39 -3 24 -13 -13 -10 -14 -13 -2 -13 11 0 60 -36 102 -77 22 -21 67 -79 67
-86 0 -4 9 -18 20 -29 19 -20 49 -79 64 -121 7 -22 30 -31 54 -22 9 4 41 9 69
10 29 2 61 9 72 15 11 5 28 10 38 9 10 0 2 -6 -17 -13 -19 -7 -63 -27 -97 -45
-34 -17 -68 -28 -76 -25 -8 3 -18 1 -22 -5 -4 -7 1 -9 12 -5 16 4 15 3 -1 -8
-11 -7 -30 -23 -42 -34 -13 -12 -26 -19 -29 -16 -3 4 -4 0 -1 -8 2 -8 7 -27
10 -42 7 -33 43 -68 68 -68 10 0 70 25 133 56 63 31 119 53 125 49 5 -3 10 -1
10 4 0 6 3 10 8 9 4 -1 20 4 36 11 16 6 35 10 42 7 6 -2 15 -1 20 4 21 20 198
39 206 22 2 -4 23 -19 48 -34 42 -24 58 -37 136 -108 41 -38 109 -152 135
-226 18 -51 21 -76 17 -179 -4 -115 -6 -123 -43 -200 -21 -44 -48 -93 -59
-110 -28 -40 -102 -115 -113 -115 -5 0 -18 -8 -29 -17 -37 -33 -85 -64 -105
-68 -17 -3 -19 3 -21 58 -3 87 -5 110 -11 127 -3 8 -15 42 -27 75 -23 65 -51
116 -84 154 -12 13 -16 21 -9 17 6 -3 15 -1 19 5 5 8 3 9 -6 4 -9 -5 -10 -2
-6 13 4 11 3 23 -2 26 -6 3 -9 -2 -8 -11 0 -9 -6 -18 -14 -21 -8 -3 -12 -2 -9
2 6 6 -69 90 -81 91 -3 0 -19 10 -35 23 -17 13 -23 20 -15 16 8 -4 12 -4 8 1
-4 4 -2 15 5 24 10 12 7 12 -12 -2 -15 -10 -29 -13 -35 -8 -44 35 -205 104
-276 117 -14 3 -52 10 -85 17 -37 7 -103 10 -170 7 -60 -3 -115 -4 -121 -2 -6
2 -20 23 -30 48 -10 24 -21 44 -25 44 -9 0 -24 41 -21 53 1 5 -2 6 -7 3 -5 -3
-24 14 -42 38 -19 24 -49 53 -67 65 -19 13 -30 26 -26 33 4 7 3 8 -4 4 -7 -4
-12 -2 -12 3 0 6 -4 11 -10 11 -12 0 -113 61 -121 73 -3 5 -10 8 -15 8 -19 -2
-74 21 -69 29 3 4 -3 6 -14 3 -10 -3 -22 0 -25 5 -3 6 -15 8 -26 5 -21 -5 -28
11 -10 22 6 4 8 10 6 14 -3 4 8 23 25 42 17 19 28 26 25 16 -4 -11 -2 -16 5
-12 5 4 7 15 4 24 -8 27 20 47 43 30 16 -13 16 -13 2 5 -13 17 -11 22 35 61
27 24 53 41 57 39 5 -3 8 0 8 6 0 7 7 9 16 6 8 -3 12 -2 9 4 -5 8 63 45 100
54 6 2 17 6 25 9 72 31 218 46 231 25z m-626 -498 c107 -33 203 -88 277 -158
55 -52 118 -135 118 -155 0 -2 -28 -14 -62 -27 -104 -37 -221 -99 -251 -131
-31 -33 -31 -67 0 -101 30 -33 60 -31 136 11 129 71 250 111 397 131 327 45
658 -133 740 -398 71 -230 -52 -472 -306 -597 -82 -40 -226 -75 -316 -75 l-58
0 0 68 c0 253 -185 497 -460 609 -116 48 -219 67 -350 67 -63 0 -127 -3 -141
-7 -23 -6 -28 -3 -39 24 -65 156 -242 312 -430 380 l-90 32 26 48 c75 137 242
250 434 294 93 21 283 14 375 -15z m-1070 -470 c-19 -8 -19 -9 3 -9 13 -1 29
-7 37 -13 7 -7 26 -22 40 -33 85 -62 187 -184 201 -239 3 -14 10 -29 15 -32 5
-3 9 -13 9 -22 0 -18 48 -72 64 -72 6 0 0 7 -12 16 -12 8 -22 20 -22 27 0 8 3
8 12 -1 14 -14 32 -16 24 -3 -5 7 37 16 131 26 18 2 38 7 45 11 9 5 10 4 3 -4
-14 -15 -105 -53 -105 -44 0 4 -4 2 -8 -4 -4 -6 -21 -18 -37 -27 -23 -12 -35
-13 -50 -4 -18 9 -18 9 -7 -6 12 -14 10 -18 -15 -30 -15 -8 -34 -12 -41 -10
-8 3 -10 -1 -5 -14 6 -15 4 -16 -8 -6 -12 10 -15 8 -15 -6 0 -11 6 -17 13 -14
9 4 11 0 7 -11 -3 -9 -10 -13 -15 -10 -15 9 -10 -1 11 -26 11 -12 17 -28 13
-34 -3 -6 -3 -8 1 -4 4 4 22 -2 39 -12 22 -14 35 -16 49 -9 10 5 24 7 30 3 7
-4 8 -3 4 4 -8 14 50 45 67 36 7 -4 9 -3 4 1 -11 13 82 57 107 50 15 -5 17 -4
8 3 -11 7 -7 11 15 17 15 5 31 8 36 7 4 -1 7 2 7 7 0 14 62 22 77 10 7 -7 16
-9 20 -5 3 3 1 6 -5 6 -7 0 -12 4 -12 9 0 9 57 20 146 27 40 3 53 1 58 -11 3
-8 12 -15 21 -15 8 0 15 -4 15 -10 0 -5 7 -10 15 -10 20 0 151 -131 191 -190
17 -25 43 -77 58 -116 27 -67 28 -78 24 -195 -4 -107 -9 -133 -32 -189 -16
-36 -31 -67 -35 -70 -3 -3 -18 -24 -33 -47 -15 -23 -48 -61 -73 -85 -26 -23
-53 -49 -62 -57 -8 -8 -40 -26 -71 -42 l-57 -28 -7 89 c-4 48 -16 115 -28 149
-11 33 -20 67 -20 76 0 8 -4 15 -10 15 -13 0 -41 56 -32 65 4 5 1 4 -7 0 -11
-6 -13 -4 -8 8 4 10 2 16 -6 14 -7 -1 -11 8 -10 23 1 14 -1 19 -4 12 -4 -10
-9 -9 -24 4 -10 9 -16 21 -13 26 3 4 1 7 -4 6 -13 -4 -93 68 -84 77 4 5 2 5
-4 2 -11 -7 -56 22 -82 53 -8 8 -11 9 -7 3 11 -22 -5 -14 -32 15 -15 15 -23
21 -19 15 4 -7 6 -13 4 -13 -15 0 -137 58 -132 63 3 3 -2 3 -13 1 -10 -3 -38
3 -63 12 -34 13 -85 18 -215 20 l-170 3 -20 43 c-40 88 -120 178 -231 263 -21
16 -41 30 -44 31 -18 2 -78 39 -75 45 3 4 -4 5 -15 2 -11 -3 -20 -1 -20 4 0 5
-8 9 -17 10 -10 1 -31 7 -48 14 -16 7 -34 13 -40 14 -29 3 28 90 108 168 68
65 160 122 179 111 7 -4 10 -4 6 1 -4 4 4 14 18 22 33 16 68 17 58 1 -4 -7 -3
-8 5 -4 6 4 9 11 6 16 -7 11 31 23 45 15 5 -3 10 -1 10 5 0 7 6 10 13 7 8 -3
20 -1 28 4 8 5 43 8 79 8 45 0 59 -3 45 -9z m-1235 -1622 c132 -60 199 -73
381 -73 l166 0 32 -60 c143 -276 503 -437 875 -392 l69 9 -7 -224 c-6 -223
-16 -326 -38 -425 -14 -64 -17 -65 -163 -27 -183 46 -278 75 -516 154 -459
154 -828 310 -897 381 -59 60 -81 186 -82 460 0 97 3 203 6 236 l7 60 51 -35
c28 -19 80 -48 116 -64z"/>
</g>
</svg>
