<?xml version="1.0" standalone="no"?>
<!DOCTYPE svg PUBLIC "-//W3C//DTD SVG 20010904//EN"
 "http://www.w3.org/TR/2001/REC-SVG-20010904/DTD/svg10.dtd">
<svg version="1.0" xmlns="http://www.w3.org/2000/svg"
 width="600.000000pt" height="600.000000pt" viewBox="0 0 600.000000 600.000000"
 preserveAspectRatio="xMidYMid meet">
<g transform="translate(0.000000,600.000000) scale(0.050000,-0.050000)"
fill="#000000" stroke="none">
<path d="M5150 9108 c-1278 -62 -2089 -409 -2940 -1258 -490 -490 -601 -984
-532 -2370 29 -574 49 -721 112 -850 135 -277 1048 -1174 1245 -1223 184 -46
632 173 842 411 62 71 132 149 156 174 26 28 111 65 220 97 298 87 399 148
622 380 302 312 508 394 815 322 304 -71 282 -57 307 -186 13 -63 50 -172 83
-242 76 -160 75 -180 -12 -439 -64 -191 -73 -243 -83 -489 -13 -331 -14 -329
221 -402 589 -181 851 -188 1297 -32 275 95 259 95 506 10 275 -95 401 -104
832 -60 303 30 389 32 537 12 352 -46 528 -24 672 86 135 102 139 123 141 691
2 281 10 578 18 660 13 130 8 176 -38 345 -62 227 -59 262 50 524 42 100 81
217 89 261 7 44 16 99 21 122 20 101 -333 294 -781 428 -381 114 -379 113
-373 233 7 154 -33 472 -78 621 -128 420 -166 519 -247 660 -593 1026 -1989
1596 -3702 1514z m840 -289 c1177 -100 2103 -546 2547 -1227 123 -188 124
-192 28 -172 -41 9 -151 22 -245 30 -166 13 -171 15 -200 77 -19 40 -62 78
-119 106 -68 33 -95 59 -114 116 -85 245 -434 471 -728 471 -167 0 -287 40
-496 167 l-167 102 -333 14 c-187 8 -386 28 -453 45 -173 45 -281 39 -471 -25
-142 -48 -215 -59 -459 -70 -586 -26 -911 -119 -1025 -293 -72 -109 -150 -157
-428 -261 -270 -100 -304 -135 -581 -595 -67 -110 -77 -225 -37 -412 55 -259
117 -322 412 -418 82 -27 163 -55 181 -63 34 -14 138 216 110 243 -7 8 -96 42
-197 76 -213 71 -234 97 -249 298 -16 209 4 217 261 95 343 -161 1013 -560
1013 -602 0 -8 -34 -25 -77 -38 -117 -35 -256 -114 -443 -253 -168 -124 -354
-230 -404 -230 -14 0 -86 -30 -159 -67 l-133 -67 -137 100 c-191 139 -422 381
-554 579 -385 578 -317 819 397 1412 861 716 1862 981 3260 862z m-319 -594
c31 -41 159 -199 283 -350 214 -259 406 -516 406 -543 0 -7 -88 -12 -195 -11
l-195 1 -80 104 c-284 370 -382 450 -624 516 -185 51 -210 62 -321 152 -111
90 -109 95 50 100 84 2 188 23 275 53 219 78 331 72 401 -22z m886 -90 c122
-74 143 -95 161 -165 28 -108 109 -229 281 -420 207 -230 210 -238 78 -218
-59 9 -171 14 -250 12 l-143 -5 -129 196 c-70 107 -215 300 -321 428 -224 270
-216 252 -119 264 181 21 297 -3 442 -92z m-2065 -27 c37 -18 137 -94 221
-170 169 -150 256 -198 448 -248 185 -48 220 -72 367 -247 160 -193 164 -169
-32 -214 -115 -26 -198 -60 -279 -114 -132 -88 -164 -84 -237 35 -49 80 -166
179 -306 260 -53 30 -157 111 -232 179 -189 174 -303 248 -405 262 -142 20
-141 19 -82 118 57 95 94 114 285 150 137 26 178 24 252 -11z m2928 -241 c135
-95 196 -168 228 -275 31 -103 82 -172 125 -172 65 0 15 -34 -122 -83 l-148
-52 -60 122 c-34 69 -135 206 -231 313 -94 105 -171 199 -172 210 -1 50 287 2
380 -63z m-3520 -268 c139 -26 197 -61 381 -230 61 -56 173 -142 250 -192 76
-49 166 -124 199 -165 33 -41 85 -101 115 -132 l55 -56 -75 -60 c-41 -32 -113
-78 -159 -101 l-84 -43 -196 138 c-277 196 -584 378 -931 554 l-300 152 59 59
c33 33 135 90 226 127 l167 67 82 -47 c44 -26 140 -58 211 -71z m4666 -460
c164 -46 271 -205 313 -460 20 -124 29 -339 14 -339 -4 0 -74 27 -155 61 -275
113 -665 187 -806 151 -28 -7 -117 -77 -197 -155 -182 -178 -323 -270 -725
-474 -489 -247 -715 -412 -825 -600 -30 -51 -83 -132 -119 -180 -36 -47 -66
-100 -66 -117 0 -18 -12 -26 -28 -20 -15 6 -101 27 -190 46 l-162 35 0 945 0
945 105 21 c346 68 1170 92 1395 41 251 -56 356 -51 590 33 304 108 624 133
856 67z m-3218 -344 c-2 -36 -5 -435 -6 -887 l-2 -823 -118 -43 c-210 -76
-308 -145 -533 -374 l-221 -224 -179 -54 c-365 -110 -399 -130 -559 -331 -105
-130 -440 -359 -527 -359 -107 0 -147 488 -105 1251 37 666 46 688 333 799
130 50 254 120 413 232 283 202 309 215 625 317 339 109 418 154 655 376 221
207 231 212 224 120z m-3242 -397 c178 -271 525 -614 761 -752 23 -13 24 -39
2 -166 -38 -217 -75 -1069 -58 -1348 l14 -239 -121 107 c-202 177 -651 684
-685 773 -75 195 -124 1965 -51 1838 12 -21 74 -117 138 -213z m6335 -187 c93
-26 281 -99 417 -161 236 -108 450 -185 717 -260 153 -43 153 -46 3 -118 -66
-32 -203 -113 -304 -180 l-183 -122 -210 -1 c-185 -2 -223 -8 -311 -53 -193
-98 -228 -103 -413 -55 -142 37 -193 41 -337 27 -352 -33 -516 -24 -674 40
-175 70 -261 65 -493 -28 -172 -69 -214 -65 -122 11 136 115 260 189 635 383
441 227 412 222 596 105 105 -68 280 -132 438 -162 61 -11 130 -39 156 -63
l45 -42 94 93 93 94 -59 62 c-77 82 -151 119 -235 119 -85 0 -273 64 -391 133
l-90 53 109 104 110 105 119 -18 c65 -10 196 -39 290 -66z m1514 -866 c-104
-248 -121 -430 -60 -638 65 -220 67 -238 34 -377 -25 -111 -28 -213 -17 -590
l14 -455 -48 -26 c-95 -51 -187 -57 -437 -28 -225 27 -283 26 -561 -3 -401
-42 -608 -31 -780 42 -199 84 -405 91 -600 19 -367 -134 -528 -153 -819 -98
-182 35 -415 102 -427 125 -24 43 30 414 75 521 105 251 103 429 -10 669 -53
113 -65 163 -67 286 -2 174 13 192 144 174 70 -10 134 4 315 65 l228 77 173
-58 c191 -64 340 -73 688 -42 152 13 215 10 313 -16 198 -52 308 -43 493 41
149 67 170 71 294 60 184 -17 292 19 540 181 192 125 488 265 564 266 28 0 20
-32 -49 -195z"/>
<path d="M6204 6565 l6 -135 135 -6 135 -6 0 141 0 141 -141 0 -142 0 7 -135z"/>
<path d="M6884 6565 l6 -135 135 -6 135 -6 0 141 0 141 -141 0 -141 0 6 -135z"/>
<path d="M5940 6000 l0 -140 140 0 140 0 0 140 0 140 -140 0 -140 0 0 -140z"/>
<path d="M4860 6000 l0 -140 140 0 140 0 0 140 0 140 -140 0 -140 0 0 -140z"/>
<path d="M3491 5574 c-102 -156 -115 -223 -108 -561 4 -178 -1 -428 -10 -555
l-17 -233 127 -10 c70 -5 129 -8 132 -6 25 19 50 379 49 701 -1 383 1 404 45
484 l47 84 -118 70 -118 70 -29 -44z"/>
<path d="M4193 5427 c-7 -8 -13 -71 -13 -140 l0 -127 140 0 140 0 0 140 0 140
-127 0 c-69 0 -132 -6 -140 -13z"/>
<path d="M9445 4918 c-58 -23 -105 -53 -105 -67 0 -38 60 -176 92 -213 25 -27
19 -43 -44 -123 -104 -135 -108 -213 -20 -379 85 -159 88 -205 22 -336 -76
-149 -70 -271 13 -288 164 -32 217 -18 217 59 0 39 24 117 52 174 70 138 61
300 -27 463 l-61 111 71 91 c102 131 112 252 28 356 -33 42 -66 103 -73 135
-15 69 -26 70 -165 17z"/>
<path d="M7160 4580 l0 -142 135 6 135 6 0 130 0 130 -135 6 -135 6 0 -142z"/>
<path d="M8780 4579 l0 -141 135 6 135 6 6 135 6 135 -141 0 -141 0 0 -141z"/>
<path d="M8100 4300 l0 -140 140 0 140 0 0 140 0 140 -140 0 -140 0 0 -140z"/>
<path d="M6753 3725 c-5 -8 -7 -69 -6 -135 l3 -120 133 -6 c152 -7 151 -8 140
169 l-7 107 -127 0 c-70 0 -131 -7 -136 -15z"/>
<path d="M8513 3727 c-7 -8 -13 -71 -13 -140 l0 -127 140 0 140 0 0 140 0 140
-127 0 c-69 0 -132 -6 -140 -13z"/>
</g>
</svg>
