<?xml version="1.0" standalone="no"?>
<!DOCTYPE svg PUBLIC "-//W3C//DTD SVG 20010904//EN"
 "http://www.w3.org/TR/2001/REC-SVG-20010904/DTD/svg10.dtd">
<svg version="1.0" xmlns="http://www.w3.org/2000/svg"
 width="640.000000pt" height="640.000000pt" viewBox="0 0 640.000000 640.000000"
 preserveAspectRatio="xMidYMid meet">

<g transform="translate(0.000000,640.000000) scale(0.100000,-0.100000)"
fill="#000000" stroke="none">
<path d="M3595 5179 c-89 -13 -228 -55 -331 -100 l-91 -40 -79 23 c-109 31
-289 30 -424 -1 -111 -26 -296 -92 -360 -129 -120 -70 -250 -181 -302 -259
-24 -36 -25 -36 -98 -6 -70 28 -276 25 -395 -6 -162 -42 -338 -137 -446 -242
-155 -151 -280 -424 -266 -583 3 -34 8 -68 11 -76 5 -12 -6 -22 -40 -38 -57
-28 -138 -103 -171 -160 -84 -143 -119 -309 -88 -421 l18 -62 -23 -16 c-66
-46 -66 -222 0 -353 35 -70 135 -165 215 -205 54 -26 70 -29 150 -29 63 0 102
6 128 18 54 24 124 92 159 152 l29 52 67 4 c75 4 124 25 171 70 40 39 89 111
97 143 l6 25 102 -7 c81 -4 114 -2 161 12 70 20 166 76 200 117 28 33 36 34
61 7 28 -31 132 -77 191 -85 38 -5 63 -2 99 12 l47 18 31 -35 c48 -55 110 -99
185 -130 104 -44 169 -47 279 -14 16 6 22 3 22 -8 0 -36 85 -180 132 -222 57
-52 158 -94 242 -102 l62 -5 -4 -69 c-6 -98 28 -279 72 -389 4 -11 -12 -35
-48 -72 -59 -60 -107 -138 -127 -205 -9 -34 -18 -43 -40 -48 -44 -10 -105 -60
-154 -126 -79 -107 -110 -202 -103 -309 12 -161 140 -260 338 -260 70 0 146
17 198 44 33 17 34 17 52 -7 50 -63 272 -78 380 -25 31 15 65 36 77 48 18 16
36 20 91 20 37 0 94 5 124 10 70 13 224 75 332 134 l83 45 84 -5 c75 -6 92 -3
154 20 168 64 354 184 470 303 118 122 223 318 256 481 12 58 19 69 89 141
109 112 217 291 268 446 29 85 54 313 56 495 1 133 -3 174 -26 285 -27 129
-76 292 -106 350 -36 71 -116 195 -165 255 -128 157 -384 336 -565 395 l-52
17 0 73 c0 102 -37 175 -131 255 -225 194 -468 298 -868 370 -114 21 -370 26
-486 9z m376 -30 c394 -50 686 -159 908 -341 92 -75 132 -124 149 -178 16 -55
24 -128 14 -134 -5 -3 -34 1 -64 9 -302 78 -782 14 -1137 -151 -52 -24 -96
-42 -98 -40 -5 5 104 96 116 96 6 0 11 4 11 8 0 5 19 17 43 28 23 10 44 22 47
26 12 15 208 101 284 124 143 43 241 56 421 58 94 0 187 -3 208 -7 30 -6 37
-5 37 7 0 35 -39 41 -240 40 -283 -2 -428 -31 -620 -127 -25 -12 -47 -24 -50
-27 -3 -3 -21 -12 -40 -21 -80 -37 -253 -188 -248 -217 2 -7 -17 -25 -42 -39
-172 -97 -444 -353 -556 -523 -99 -149 -194 -374 -224 -530 -6 -30 -10 -117
-8 -193 l3 -137 -29 -15 c-88 -46 -290 17 -391 123 -44 46 -101 158 -120 237
-23 95 -29 222 -16 331 42 348 114 576 257 819 13 22 31 53 40 70 40 71 201
269 282 347 86 83 207 178 226 178 5 0 24 11 42 25 18 14 37 25 41 25 5 0 32
11 60 25 102 49 254 87 438 108 66 8 176 6 256 -4z m-966 -109 c108 -16 113
-18 79 -41 -112 -72 -152 -108 -274 -242 -67 -72 -147 -170 -179 -217 -53 -77
-151 -236 -151 -245 0 -2 -14 -33 -30 -69 -63 -136 -116 -320 -150 -523 -19
-109 -21 -153 -17 -298 4 -153 8 -177 31 -240 48 -126 48 -122 15 -135 -71
-30 -190 10 -267 89 -97 100 -159 230 -204 431 -20 94 -23 129 -22 330 0 238
14 338 66 500 24 76 96 221 115 233 7 4 13 14 13 22 0 7 36 50 81 94 79 80
186 159 264 195 99 46 284 100 405 119 50 8 156 6 225 -3z m-1112 -410 c26 -7
47 -19 47 -26 0 -7 -11 -33 -24 -56 -52 -94 -107 -308 -126 -493 -20 -189 -2
-437 43 -610 23 -86 90 -236 108 -243 5 -2 9 -8 9 -14 0 -5 9 -21 20 -35 19
-24 19 -27 3 -53 -28 -49 -129 -106 -218 -125 -76 -15 -160 -14 -193 4 -8 5
-14 40 -16 106 -8 193 -59 301 -215 455 -140 139 -268 207 -406 217 -71 6 -73
6 -79 36 -19 94 15 242 86 379 36 69 35 68 78 119 16 20 30 40 30 43 0 9 48
56 117 113 80 66 247 148 363 178 79 20 114 23 210 21 63 -2 136 -9 163 -16z
m3042 -164 c171 -33 304 -85 445 -174 30 -19 57 -38 60 -41 3 -4 28 -23 55
-43 46 -33 140 -127 190 -188 179 -222 286 -589 270 -925 -10 -209 -31 -354
-65 -446 -27 -74 -106 -223 -134 -252 -6 -7 -20 -25 -30 -42 -24 -36 -108
-135 -115 -135 -3 0 -7 43 -8 95 -4 193 -67 403 -163 544 -55 79 -177 193
-262 242 -85 50 -250 110 -376 136 -68 14 -130 18 -287 17 -193 0 -204 -1
-319 -32 -178 -48 -335 -115 -520 -221 -49 -28 -163 -120 -197 -158 -42 -48
-98 -157 -117 -230 -16 -62 -20 -68 -45 -71 -40 -5 -148 24 -200 54 -110 61
-182 205 -193 389 -8 119 7 220 56 365 48 147 102 255 191 385 64 95 226 272
297 325 18 14 43 33 55 44 220 186 611 340 954 375 126 13 353 7 458 -13z
m-3951 -757 c129 -35 278 -138 376 -261 30 -37 60 -73 65 -80 32 -39 67 -145
76 -229 19 -168 -14 -271 -111 -348 -55 -43 -104 -56 -173 -46 l-44 7 -32 -64
c-58 -118 -131 -169 -251 -176 -68 -4 -82 -1 -143 26 -80 36 -163 112 -201
182 -36 67 -58 189 -45 250 13 56 24 70 60 70 16 0 29 3 29 7 0 3 -12 36 -26
72 -24 59 -26 75 -21 146 13 172 117 358 236 420 64 33 140 42 205 24z m3741
-509 c157 -23 319 -78 442 -152 66 -39 214 -183 243 -236 83 -149 106 -210
136 -362 25 -128 16 -328 -20 -433 -50 -147 -132 -285 -231 -388 -86 -90 -246
-200 -365 -252 -36 -15 -72 -32 -81 -36 -36 -20 -130 -33 -161 -22 -50 18 -71
13 -149 -30 -100 -55 -240 -113 -320 -133 -69 -17 -169 -22 -169 -8 0 5 13 21
28 38 50 52 111 163 147 269 70 202 20 450 -117 588 -122 123 -300 156 -494
91 -40 -13 -89 -35 -110 -49 -38 -26 -55 -28 -62 -7 -2 7 2 10 11 6 10 -3 22
5 33 23 54 86 212 178 379 220 l30 7 -38 4 c-49 4 -171 -30 -257 -72 -73 -36
-118 -78 -147 -136 l-17 -35 -18 60 c-35 110 -42 193 -30 311 23 220 100 349
279 471 171 117 453 228 673 266 50 9 317 6 385 -3z m-753 -1120 c73 -36 93
-51 131 -103 91 -122 123 -268 92 -428 -20 -102 -60 -192 -141 -318 -100 -155
-162 -191 -323 -191 -94 0 -171 25 -171 55 0 9 18 38 40 64 42 50 50 78 25 88
-14 5 -75 -49 -75 -67 0 -3 -15 -21 -32 -40 -69 -70 -182 -98 -309 -75 -95 16
-155 49 -194 104 -50 73 -51 171 -3 291 46 117 157 226 217 214 27 -6 29 -4
45 63 10 37 28 87 42 110 37 64 135 154 216 199 64 36 94 47 183 68 11 3 59 3
107 1 74 -3 98 -9 150 -35z"/>
<path d="M3460 5041 c-247 -81 -538 -306 -704 -545 -55 -78 -134 -233 -164
-321 -28 -81 -88 -311 -106 -410 -21 -119 -31 -259 -17 -251 6 4 11 27 11 50
0 144 117 546 215 742 135 269 335 472 610 621 88 47 202 95 258 107 15 4 25
11 22 16 -9 15 -64 11 -125 -9z"/>
<path d="M3960 4981 c-32 -4 6 -8 125 -13 132 -4 196 -12 287 -32 117 -27 295
-83 349 -111 32 -17 49 -4 28 22 -63 75 -592 165 -789 134z"/>
<path d="M3124 3922 c-48 -59 -104 -139 -104 -150 0 -6 -4 -12 -8 -14 -10 -4
-94 -174 -123 -248 -70 -181 -91 -280 -93 -441 -1 -129 10 -179 41 -179 11 0
13 7 6 33 -14 57 -6 236 16 329 51 218 212 574 303 672 10 11 18 23 18 28 0
19 -27 4 -56 -30z"/>
<path d="M2751 3632 c-19 -35 -60 -174 -82 -278 -14 -65 -22 -138 -23 -214 -1
-101 2 -121 22 -167 13 -28 32 -59 42 -68 31 -28 33 1 5 61 -45 95 -44 184 5
474 6 36 20 96 31 133 20 69 20 97 0 59z"/>
<path d="M2475 3317 c-18 -111 31 -343 77 -368 11 -6 22 -9 24 -6 2 2 -7 34
-21 72 -14 37 -36 131 -49 209 -22 135 -23 139 -31 93z"/>
<path d="M2373 4891 c-161 -90 -363 -354 -413 -540 -13 -50 -6 -67 11 -25 33
82 85 177 134 242 30 40 55 75 55 78 0 7 49 63 110 125 30 31 84 75 120 98 52
32 60 41 40 40 -14 0 -39 -8 -57 -18z"/>
<path d="M1895 4115 c-11 -53 1 -345 20 -480 30 -209 85 -371 124 -362 19 4
19 4 -18 95 -48 115 -82 333 -110 697 -6 82 -8 86 -16 50z"/>
<path d="M2193 3713 c-4 -27 -8 -138 -8 -248 1 -161 4 -214 19 -272 10 -40 22
-73 26 -73 4 0 10 -9 13 -20 3 -12 14 -20 27 -20 25 0 25 -4 -10 92 -32 90
-44 197 -44 400 -1 104 -4 188 -8 188 -4 0 -10 -21 -15 -47z"/>
<path d="M1771 4581 c-23 -32 -58 -127 -92 -246 -25 -92 -34 -305 -12 -312 8
-3 11 14 12 54 0 66 8 106 51 261 29 102 36 122 81 218 24 50 24 54 0 54 -11
0 -29 -13 -40 -29z"/>
<path d="M920 3959 c-35 -10 -63 -36 -55 -49 3 -4 24 -1 47 7 29 10 59 13 93
8 93 -12 242 -102 358 -216 59 -59 61 -47 2 25 -65 80 -204 182 -284 210 -55
20 -122 26 -161 15z"/>
<path d="M1728 3744 c-13 -12 -9 -152 7 -249 35 -224 118 -429 157 -389 3 3
-9 38 -28 78 -51 112 -107 350 -127 544 -1 13 -5 20 -9 16z"/>
<path d="M1586 3732 c-9 -15 58 -307 84 -367 5 -11 11 -32 14 -47 4 -16 11
-28 17 -28 11 0 8 22 -11 105 -20 86 -39 173 -51 230 -11 56 -34 115 -44 115
-2 0 -6 -3 -9 -8z"/>
<path d="M1500 3574 c0 -3 13 -49 30 -102 30 -99 63 -252 75 -352 10 -86 16
-110 27 -110 23 0 -17 318 -53 430 -24 71 -58 140 -71 140 -4 0 -8 -3 -8 -6z"/>
<path d="M5030 4128 c0 -4 17 -8 38 -8 80 0 258 -58 397 -128 83 -41 176 -112
253 -191 75 -79 99 -78 39 1 -115 151 -425 309 -639 327 -49 3 -88 3 -88 -1z"/>
<path d="M4944 3871 c3 -4 40 -11 83 -14 101 -8 372 -77 472 -120 43 -19 105
-52 138 -75 69 -47 186 -169 214 -224 22 -43 39 -49 39 -14 0 81 -210 271
-390 353 -72 33 -243 77 -363 93 -95 12 -200 13 -193 1z"/>
<path d="M4632 3790 c-34 -4 -65 -9 -68 -12 -2 -3 60 -8 138 -10 161 -6 260
-25 451 -89 246 -81 402 -185 532 -354 64 -84 155 -242 182 -317 20 -55 50
-68 39 -17 -21 106 -166 338 -285 457 -43 43 -109 100 -147 127 -63 45 -205
114 -279 137 -127 38 -264 68 -340 73 -49 3 -106 7 -125 9 -19 2 -63 0 -98 -4z"/>
<path d="M4710 3528 c127 -21 203 -42 334 -95 146 -58 316 -142 352 -174 11
-11 24 -19 28 -19 4 0 13 -6 20 -12 7 -7 41 -37 75 -66 108 -95 222 -281 271
-447 32 -106 57 -128 47 -42 -7 52 -52 196 -66 207 -3 3 -21 34 -40 70 -19 36
-37 67 -41 70 -3 3 -13 15 -21 27 -34 50 -118 139 -170 182 -102 84 -115 92
-256 160 -195 96 -388 152 -513 150 l-75 -2 55 -9z"/>
<path d="M4079 3486 c-189 -66 -501 -262 -617 -386 -41 -44 -115 -154 -134
-200 -44 -105 -69 -253 -50 -294 22 -49 42 -21 42 59 0 94 64 258 140 359 110
148 368 335 604 439 126 55 132 65 15 23z"/>
<path d="M3223 3408 c-39 -48 -97 -192 -123 -305 -22 -91 -27 -272 -10 -317
20 -55 29 -24 28 102 0 106 4 144 26 232 33 128 53 192 78 248 19 44 20 64 1
40z"/>
<path d="M3439 3383 c-77 -85 -173 -254 -219 -385 -37 -108 -39 -338 -2 -338
5 0 7 21 4 48 -6 67 13 207 39 283 30 89 140 306 183 362 20 26 36 49 36 52 0
13 -19 3 -41 -22z"/>
<path d="M4880 3317 c0 -7 44 -34 98 -60 117 -58 119 -59 207 -122 175 -124
267 -214 349 -340 86 -132 113 -212 125 -360 4 -58 10 -107 12 -110 3 -2 11 0
19 5 22 14 20 177 -3 255 -33 110 -116 266 -172 321 -8 9 -27 31 -42 50 -33
44 -156 145 -253 210 -126 84 -340 179 -340 151z"/>
<path d="M3039 3218 c-48 -96 -74 -288 -39 -288 4 0 11 30 14 68 11 103 27
196 38 209 5 7 8 19 6 28 -2 11 -8 6 -19 -17z"/>
<path d="M796 3644 c-45 -16 -76 -41 -76 -61 0 -17 -1 -17 62 12 135 63 260
12 454 -187 50 -51 101 -106 114 -123 21 -28 22 -29 15 -5 -24 87 -218 285
-336 344 -60 30 -82 36 -133 35 -33 0 -79 -7 -100 -15z"/>
<path d="M713 3140 c-14 -6 -23 -18 -23 -31 0 -19 3 -20 28 -13 61 19 144 8
226 -30 88 -40 142 -80 229 -168 33 -33 61 -57 64 -55 10 10 -9 47 -47 96 -92
116 -270 212 -392 210 -35 0 -73 -4 -85 -9z"/>
<path d="M1062 2750 c-29 -52 -89 -91 -184 -120 -85 -26 -99 -40 -40 -40 119
0 280 104 270 174 -5 33 -22 28 -46 -14z"/>
<path d="M4960 3051 c0 -6 4 -11 10 -11 17 0 244 -177 288 -224 94 -102 188
-287 218 -428 12 -52 15 -104 11 -178 -6 -119 -24 -200 -69 -307 -31 -73 -32
-97 -4 -74 22 18 73 156 91 246 9 44 17 130 17 190 1 124 -17 210 -63 305 -16
33 -29 63 -29 65 0 14 -85 143 -126 191 -88 103 -344 270 -344 225z"/>
<path d="M4100 3000 c-47 -12 -185 -71 -273 -118 -212 -114 -299 -199 -377
-365 -38 -80 -52 -147 -31 -147 5 0 19 26 31 58 29 79 95 188 148 244 88 95
423 294 525 313 20 4 37 11 37 16 0 10 -12 10 -60 -1z"/>
<path d="M4955 2790 c5 -8 16 -20 25 -27 31 -22 186 -207 218 -260 81 -135
126 -297 126 -463 1 -96 -3 -126 -23 -183 -24 -71 -23 -100 2 -50 62 122 69
286 20 483 -35 142 -130 298 -255 416 -54 52 -125 104 -113 84z"/>
<path d="M3990 2630 c-104 -18 -315 -108 -401 -171 -78 -57 -169 -179 -169
-226 0 -37 18 -27 45 27 14 28 56 81 93 119 53 53 90 79 177 123 117 60 275
118 319 118 14 0 26 5 26 10 0 11 -24 11 -90 0z"/>
<path d="M4759 2377 c53 -70 115 -197 137 -282 21 -78 23 -222 5 -318 -15 -85
-65 -195 -137 -303 -35 -54 -64 -102 -64 -106 0 -52 140 150 193 277 23 56 31
86 56 205 9 43 1 182 -15 260 -7 35 -73 188 -92 212 -82 103 -157 154 -83 55z"/>
<path d="M5030 2324 c65 -99 97 -169 121 -261 26 -103 24 -190 -6 -309 -26
-103 -60 -170 -126 -244 -21 -24 -39 -48 -39 -52 0 -36 107 67 142 137 65 126
96 338 68 464 -15 69 -87 210 -146 285 -64 81 -72 69 -14 -20z"/>
<path d="M4376 2382 c5 -4 47 -37 94 -71 96 -72 146 -131 200 -237 52 -102 64
-170 57 -312 -7 -133 -27 -208 -81 -306 -21 -38 -35 -71 -31 -74 23 -24 93 93
124 208 11 41 23 127 27 190 6 101 4 125 -15 195 -31 112 -76 190 -152 265
-61 60 -193 150 -221 150 -7 0 -8 -3 -2 -8z"/>
<path d="M4334 1823 c10 -35 26 -176 26 -231 0 -82 -27 -178 -73 -257 -23 -38
-44 -72 -47 -75 -20 -18 -49 -64 -44 -71 10 -17 26 -9 69 34 50 51 110 170
123 246 18 99 -18 371 -49 371 -6 0 -8 -8 -5 -17z"/>
<path d="M4077 1605 c-11 -202 -74 -373 -173 -469 -30 -30 -54 -56 -54 -60 0
-3 8 -6 19 -6 34 0 107 76 149 158 61 116 82 205 81 337 -1 153 -14 177 -22
40z"/>
<path d="M3315 1690 c-3 -6 2 -13 12 -16 66 -21 119 -53 154 -95 37 -45 79
-126 79 -154 0 -8 5 -37 11 -65 17 -80 31 -61 27 38 -4 101 -28 159 -94 227
-54 56 -170 96 -189 65z"/>
<path d="M3922 1394 c-30 -119 -65 -187 -129 -253 -29 -30 -53 -59 -53 -63 0
-39 114 61 149 130 37 74 62 169 59 222 l-3 52 -23 -88z"/>
<path d="M3766 1329 c-11 -55 -65 -157 -106 -198 -22 -22 -40 -45 -40 -50 0
-23 20 -18 63 14 50 38 91 123 103 214 7 56 -9 73 -20 20z"/>
<path d="M3037 1309 c-3 -13 -1 -34 6 -48 17 -35 90 -88 140 -102 90 -24 249
11 305 68 26 25 7 23 -64 -7 -76 -33 -173 -40 -245 -19 -48 15 -108 64 -124
102 -12 29 -12 29 -18 6z"/>
</g>
</svg>
