<?xml version="1.0" standalone="no"?>
<!DOCTYPE svg PUBLIC "-//W3C//DTD SVG 20010904//EN"
 "http://www.w3.org/TR/2001/REC-SVG-20010904/DTD/svg10.dtd">
<svg version="1.0" xmlns="http://www.w3.org/2000/svg"
 width="260.000000pt" height="280.000000pt" viewBox="0 0 260.000000 280.000000"
 preserveAspectRatio="xMidYMid meet">
<metadata>
Created by potrace 1.16, written by Peter Selinger 2001-2019
</metadata>
<g transform="translate(0.000000,280.000000) scale(0.100000,-0.100000)"
fill="#000000" stroke="none">
<path d="M1870 2170 c-132 -13 -319 -91 -585 -242 -208 -118 -276 -148 -431
-187 -148 -37 -365 -136 -437 -201 -90 -80 -167 -209 -167 -280 0 -15 11 -47
23 -71 13 -24 31 -66 40 -94 23 -66 109 -181 156 -204 20 -11 90 -31 156 -46
l120 -27 113 27 c74 18 145 42 200 71 86 42 230 145 322 227 30 26 82 57 141
81 52 22 153 65 224 97 72 31 180 73 240 94 61 20 128 47 150 60 59 34 162
142 190 199 31 61 31 98 3 171 -19 50 -20 62 -9 104 6 26 9 55 5 64 -8 21
-160 132 -208 152 -38 16 -118 17 -246 5z m322 -96 c93 -67 105 -92 69 -151
-31 -49 -72 -65 -160 -63 -137 4 -147 1 -180 -54 -35 -55 -65 -70 -156 -71
-99 -2 -126 -15 -195 -95 -99 -115 -177 -152 -379 -181 -102 -15 -145 -26
-176 -44 -59 -36 -67 -44 -108 -105 -51 -77 -132 -138 -215 -160 -37 -10 -53
-8 -111 10 -65 20 -70 20 -110 4 -51 -20 -99 -13 -140 22 -100 84 3 259 232
392 114 67 181 94 337 137 109 30 302 120 441 205 159 99 388 193 513 210 34
5 104 7 158 6 l96 -3 84 -59z m34 -263 c-9 -14 -58 -29 -120 -36 -38 -5 -82
-19 -130 -44 -39 -21 -104 -50 -143 -66 -40 -15 -73 -31 -73 -35 0 -4 -18 -12
-39 -19 -22 -6 -80 -38 -130 -71 -112 -73 -137 -87 -223 -116 -37 -12 -82 -34
-100 -47 -18 -14 -51 -29 -73 -33 -64 -11 -118 -41 -167 -92 -38 -40 -61 -53
-137 -79 -50 -18 -91 -28 -91 -24 0 5 25 28 56 52 30 23 69 62 85 86 62 90
104 112 254 133 177 26 296 81 384 177 75 81 99 93 189 93 84 0 96 5 172 70
30 26 62 50 70 53 25 9 222 8 216 -2z m82 -29 c6 -42 -18 -92 -56 -116 -21
-13 -83 -37 -139 -55 -84 -26 -106 -37 -130 -65 -38 -46 -64 -54 -159 -48
-101 6 -138 -6 -206 -64 -37 -31 -84 -56 -167 -89 -86 -33 -134 -59 -186 -100
-38 -30 -91 -66 -117 -80 -28 -14 -58 -41 -72 -63 -32 -50 -49 -64 -131 -105
-81 -40 -93 -43 -155 -34 -25 4 -73 8 -107 11 -66 4 -103 21 -129 61 -26 40
-11 47 80 40 75 -6 87 -4 161 24 44 17 84 31 90 31 28 0 118 54 174 103 60 54
79 64 169 87 23 6 58 25 77 41 19 17 86 52 149 79 63 26 135 61 161 79 61 41
164 93 261 132 43 16 96 41 120 55 28 16 67 28 116 33 69 8 149 38 163 61 10
17 30 6 33 -18z m-114 -205 c-10 -28 -134 -102 -249 -149 -148 -61 -322 -128
-333 -128 -4 0 -35 -18 -68 -39 -33 -22 -83 -50 -110 -62 -27 -13 -105 -65
-173 -117 -237 -178 -419 -237 -620 -198 -97 19 -175 50 -169 68 7 21 33 15
30 -7 -3 -17 1 -15 20 8 23 28 23 28 61 12 38 -16 189 -37 261 -37 63 0 177
63 233 128 27 30 68 66 93 79 25 12 56 35 70 50 36 40 86 69 223 132 67 30
144 71 170 91 67 49 109 61 207 62 91 0 116 9 186 65 30 24 161 70 172 60 1
-1 0 -9 -4 -18z"/>
</g>
</svg>
