<?xml version="1.0" standalone="no"?>
<!DOCTYPE svg PUBLIC "-//W3C//DTD SVG 20010904//EN"
 "http://www.w3.org/TR/2001/REC-SVG-20010904/DTD/svg10.dtd">
<svg version="1.0" xmlns="http://www.w3.org/2000/svg"
 width="600.000000pt" height="600.000000pt" viewBox="0 0 600.000000 600.000000"
 preserveAspectRatio="xMidYMid meet">
<g transform="translate(0.000000,600.000000) scale(0.100000,-0.100000)"
fill="#000000" stroke="none">
<path d="M3018 4071 c-339 -74 -675 -289 -901 -576 -21 -27 -83 -99 -136 -159
-53 -59 -99 -119 -103 -132 -9 -34 9 -93 42 -135 l29 -36 -35 -16 c-19 -9 -42
-30 -52 -45 -9 -16 -32 -41 -50 -57 -18 -15 -44 -48 -59 -73 -40 -68 -37 -115
21 -250 102 -239 227 -374 438 -471 121 -57 203 -75 338 -75 225 -2 415 78
579 241 l64 64 66 -29 c95 -44 134 -52 242 -52 158 0 305 47 420 136 33 25 70
61 82 80 12 19 28 34 35 34 27 0 90 40 123 78 52 61 79 110 89 161 5 25 16 77
25 116 19 80 14 142 -16 193 -12 22 -19 52 -19 88 0 30 -11 89 -24 132 -14 42
-32 113 -40 157 -56 291 -312 527 -669 616 -123 30 -372 36 -489 10z m197 -76
c57 -34 137 -121 178 -196 17 -32 35 -59 39 -59 13 0 -41 113 -72 152 -17 21
-26 39 -20 43 6 3 10 12 10 18 0 7 -4 6 -10 -3 -8 -13 -14 -10 -37 14 -26 27
-26 28 -3 12 32 -21 44 -20 36 2 -4 11 0 9 10 -5 9 -13 25 -23 35 -23 11 0 19
-3 19 -8 0 -4 17 -8 38 -8 97 -2 113 -5 107 -14 -5 -9 41 -16 69 -11 5 1 6 -5
3 -13 -4 -9 -1 -15 5 -13 16 3 54 -118 67 -213 6 -46 13 -86 16 -88 3 -3 5 21
5 54 -1 118 -41 245 -107 333 l-26 33 24 -7 c65 -20 148 -67 154 -88 4 -12 17
-31 29 -42 12 -11 32 -43 44 -71 21 -50 21 -64 7 -171 -4 -26 -2 -43 4 -43 11
0 16 15 26 75 6 33 9 37 18 25 7 -9 20 -14 30 -12 11 2 17 -3 17 -15 0 -15 2
-16 11 -3 8 11 9 4 7 -28 -2 -25 0 -41 6 -39 17 6 27 68 21 127 l-6 55 26 -30
c61 -71 114 -178 138 -277 l7 -27 -50 34 c-28 19 -75 42 -105 51 -30 10 -52
20 -50 23 5 9 -151 -5 -208 -18 -27 -6 -66 -20 -88 -31 l-39 -20 0 62 c0 35
-5 70 -10 78 -7 10 -10 -11 -10 -68 l0 -84 -50 -45 c-58 -52 -130 -149 -159
-214 -12 -27 -22 -38 -25 -29 -2 8 -14 49 -26 90 -21 71 -69 177 -70 154 0 -6
11 -37 24 -70 33 -80 67 -219 60 -238 -4 -12 -17 1 -43 45 -40 66 -130 173
-139 165 -2 -3 11 -23 30 -44 70 -77 137 -193 138 -236 0 -14 -13 -6 -52 32
-81 78 -145 121 -233 157 -51 21 -41 12 71 -63 150 -102 264 -235 264 -309 0
-44 -70 -176 -85 -161 -8 8 -19 168 -12 168 4 0 11 -15 17 -32 10 -32 10 -32
6 9 -5 56 -53 121 -154 209 -224 196 -423 277 -682 278 -114 0 -150 -4 -231
-26 -101 -27 -189 -67 -226 -101 -25 -22 -29 -56 -13 -88 8 -14 7 -25 -3 -40
-14 -19 -16 -18 -46 29 -57 89 -36 130 94 186 131 56 222 77 370 83 146 6 270
-10 402 -52 94 -29 84 -16 -13 18 -125 45 -218 60 -364 60 -145 0 -252 -19
-372 -67 l-59 -24 48 51 c26 28 57 62 69 74 15 16 24 19 31 12 12 -12 53 5 66
27 4 8 13 14 19 14 6 0 19 7 28 15 33 30 156 48 280 41 63 -3 126 -8 140 -12
24 -5 24 -5 6 10 -37 30 -128 49 -242 51 -63 1 -119 7 -130 14 -16 10 -15 10
10 5 21 -5 27 -4 22 5 -4 6 -1 11 7 11 8 0 28 7 43 15 16 8 23 15 16 15 -7 0
-10 5 -6 11 5 8 -4 10 -30 7 -20 -2 -36 -1 -36 3 0 9 107 94 188 149 l63 43
82 -10 c45 -6 86 -7 91 -2 18 16 167 -58 254 -129 24 -19 45 -32 48 -30 6 6
-128 128 -149 136 -30 11 -97 47 -97 52 0 3 12 6 28 5 15 0 37 4 49 10 33 17
167 11 196 -8 33 -22 106 -96 125 -129 16 -27 32 -37 32 -20 0 16 -57 87 -107
133 -55 52 -86 70 -177 104 l-61 23 30 12 c17 7 59 17 95 24 73 14 105 7 185
-39z m-900 -414 c6 -11 -33 -26 -42 -17 -4 3 2 6 13 6 16 0 17 2 4 10 -13 8
-13 10 2 10 9 0 19 -4 23 -9z m1687 -111 c72 -26 141 -96 168 -167 17 -46 29
-105 13 -64 -4 9 -12 -2 -22 -30 -9 -24 -24 -45 -33 -47 -14 -3 -15 5 -11 56
4 39 2 62 -6 66 -7 5 -11 -3 -11 -22 0 -71 -10 -90 -54 -101 -49 -12 -133 -62
-161 -96 l-20 -25 -35 47 c-19 26 -42 49 -50 51 -8 3 0 -13 18 -35 52 -66 53
-77 16 -161 -36 -82 -42 -87 -123 -112 -29 -10 -50 -19 -45 -22 9 -5 81 11
117 27 15 6 17 1 17 -38 0 -25 9 -73 19 -107 l20 -63 -52 -51 c-62 -62 -140
-101 -250 -125 -74 -16 -80 -19 -59 -30 14 -7 22 -8 22 -1 0 5 17 9 38 9 23
-1 29 -3 14 -6 -12 -2 -20 -8 -17 -13 3 -4 -12 -7 -33 -6 -20 2 -41 -1 -47 -5
-14 -10 -95 -16 -95 -7 0 5 -7 8 -15 8 -9 0 -30 7 -46 16 -22 11 -29 20 -24
32 15 37 34 129 35 168 0 30 6 46 26 65 37 35 72 98 79 144 5 29 -1 61 -19
117 -22 68 -24 84 -16 130 15 75 26 83 120 83 43 0 77 2 75 4 -11 10 -90 17
-124 11 l-39 -7 10 28 c17 50 104 62 210 29 79 -25 94 -25 45 1 -53 28 -136
42 -186 30 l-42 -9 19 29 c39 63 135 150 197 179 100 48 162 36 249 -44 21
-20 41 -35 43 -32 10 10 -67 82 -112 103 l-50 25 87 -6 c49 -3 110 -14 140
-26z m-1337 -201 c155 -39 292 -109 417 -214 65 -55 73 -65 71 -95 -1 -18 5
-40 13 -47 12 -13 12 -18 -5 -42 -48 -68 -173 -161 -296 -224 -146 -73 -286
-106 -492 -114 -156 -6 -231 3 -264 33 -9 8 -46 23 -82 33 -89 24 -117 44
-117 80 0 17 -11 42 -25 59 -27 32 -33 79 -12 88 10 4 13 19 9 53 -6 62 7 83
72 125 30 19 62 49 72 66 11 18 40 42 66 56 29 15 59 41 78 69 40 58 70 73
183 89 111 15 205 11 312 -15z m1467 -148 c15 -3 39 -17 53 -29 25 -22 27 -27
20 -80 -9 -73 -18 -89 -50 -89 -17 0 -40 -14 -65 -38 -25 -24 -44 -35 -54 -32
-9 4 -16 2 -16 -3 0 -5 9 -11 19 -15 16 -5 19 -13 14 -43 -2 -20 -8 -49 -13
-64 -7 -21 -6 -26 6 -21 7 3 11 10 7 17 -3 6 3 3 15 -8 l21 -18 -24 -38 c-13
-21 -21 -41 -18 -44 4 -3 -1 -6 -10 -7 -10 -1 -34 -2 -54 -3 -21 -2 -53 -6
-70 -11 -22 -5 -33 -4 -33 3 0 6 -6 17 -13 24 -58 59 -64 247 -11 350 25 47
75 98 98 98 27 0 80 -33 111 -68 14 -16 24 -21 25 -13 0 21 -75 91 -99 91 -37
0 -22 19 27 34 51 16 72 17 114 7z m-947 -291 c-138 -169 -377 -307 -630 -366
-16 -3 -24 -9 -17 -11 22 -8 162 28 250 64 154 65 363 223 424 322 l23 36 12
-110 c16 -145 9 -210 -33 -295 -19 -37 -42 -74 -51 -81 -14 -12 -16 -12 -8 0
5 10 4 12 -4 7 -6 -4 -9 -12 -5 -17 8 -14 -35 -59 -58 -59 -10 0 -18 5 -18 11
0 5 6 7 13 3 6 -4 9 -4 5 1 -4 4 13 31 38 59 53 58 43 76 -11 19 -41 -43 -69
-98 -59 -116 4 -7 -2 -4 -14 7 -21 18 -22 18 -49 0 -16 -10 -31 -19 -34 -19
-4 0 -16 -11 -27 -25 -20 -24 -21 -24 -15 -3 3 12 26 36 52 52 74 49 178 165
220 249 31 61 12 52 -31 -16 -53 -82 -196 -220 -216 -208 -4 2 -14 0 -22 -6
-12 -8 -11 -8 5 -3 25 8 21 4 -44 -39 -33 -23 -58 -33 -63 -28 -11 11 -78 -7
-78 -21 0 -5 -8 -3 -17 4 -11 10 -14 10 -9 2 5 -9 0 -13 -14 -13 -12 0 -18 4
-15 10 7 12 -37 4 -67 -12 -11 -5 -43 -4 -80 2 -35 5 -92 10 -128 10 -93 0
-238 24 -292 48 -26 11 -50 17 -54 14 -4 -4 -4 -2 -1 4 9 16 -21 39 -47 36
-15 -2 -26 7 -38 28 -10 17 -13 28 -8 25 17 -11 11 7 -7 22 -10 7 7 4 37 -8
110 -44 135 -50 199 -54 46 -3 58 -2 41 4 l-25 9 25 1 c22 1 23 3 7 12 -9 6
-15 14 -13 18 6 9 -45 26 -109 37 -22 3 -47 11 -55 16 -11 7 -8 8 11 4 115
-24 259 -33 259 -16 0 6 -17 10 -37 10 -63 0 -204 27 -268 50 -118 44 -200
101 -245 168 -45 68 -37 140 23 204 22 24 25 25 30 9 3 -12 -6 -28 -24 -44
-51 -45 -36 -123 36 -186 120 -105 266 -151 478 -151 187 0 365 36 512 104
145 67 286 176 342 263 24 39 38 52 45 45 8 -8 -6 -32 -47 -82z m947 -5 c4
-19 2 -23 -7 -15 -8 7 -10 2 -7 -20 2 -16 8 -27 13 -24 5 3 9 -2 9 -10 0 -18
40 -47 53 -39 6 3 7 1 3 -5 -9 -14 -55 -15 -76 -2 -8 5 -10 10 -5 10 6 0 2 5
-7 11 -13 7 -18 23 -18 57 0 68 31 95 42 37z m-271 -251 c18 -19 30 -35 24
-34 -5 2 -19 2 -30 1 -16 -1 -17 -3 -5 -10 8 -6 18 -7 24 -4 5 3 6 1 2 -6 -4
-6 -16 -9 -26 -6 -10 3 -22 0 -26 -6 -4 -7 -3 -9 3 -6 6 4 17 -1 24 -11 12
-15 12 -16 -1 -5 -10 7 -21 8 -30 3 -8 -5 -18 -6 -22 -3 -5 2 -17 -1 -26 -7
-9 -7 -3 1 13 17 25 24 45 63 32 63 -2 0 -27 -23 -55 -50 -29 -28 -57 -48 -62
-45 -6 3 -10 3 -10 -2 0 -4 -12 -16 -25 -26 -19 -14 -29 -15 -45 -7 -14 7 -20
7 -20 0 0 -5 -4 -10 -10 -10 -26 0 8 29 70 58 56 26 120 77 166 131 0 1 16
-15 35 -35z m-588 -183 c25 -16 26 -19 11 -25 -10 -4 -21 -2 -24 5 -4 6 -10
10 -14 9 -16 -4 -29 7 -22 18 10 16 16 15 49 -7z"/>
<path d="M2440 3671 c-8 -6 -13 -11 -10 -11 3 0 50 -3 105 -5 57 -2 129 -13
168 -24 84 -25 88 -10 5 19 -72 24 -243 38 -268 21z"/>
<path d="M4017 3602 c-5 -46 -3 -61 9 -49 11 11 16 84 6 91 -5 3 -12 -14 -15
-42z"/>
<path d="M2955 3515 c16 -13 32 -22 35 -19 7 7 -39 44 -54 44 -6 -1 2 -12 19
-25z"/>
<path d="M2820 3481 c0 -4 12 -14 28 -22 46 -23 114 -70 169 -116 65 -54 79
-56 28 -2 -61 63 -225 166 -225 140z"/>
<path d="M4054 3404 c5 -14 4 -15 -9 -4 -25 20 -18 -7 8 -34 12 -12 28 -33 34
-47 11 -21 11 -19 6 21 -3 25 -10 53 -15 63 -11 22 -32 23 -24 1z"/>
<path d="M3650 3345 c41 -15 88 -36 105 -49 48 -36 62 -41 37 -14 -35 38 -114
77 -168 83 -48 5 -47 5 26 -20z"/>
<path d="M3962 3313 c2 -9 8 -18 15 -20 7 -3 9 3 6 16 -6 25 -26 28 -21 4z"/>
<path d="M3493 2933 c10 -16 90 -33 149 -31 38 1 43 2 18 5 -54 6 -133 21
-154 29 -12 5 -17 4 -13 -3z"/>
<path d="M3620 2734 c-48 -17 -88 -24 -155 -24 -72 -1 -85 -3 -65 -12 57 -23
263 12 305 53 14 14 -13 9 -85 -17z"/>
<path d="M3663 2670 c-13 -5 -23 -12 -23 -15 0 -9 16 -5 36 10 22 16 19 18
-13 5z"/>
<path d="M3720 2609 c-19 -16 -29 -29 -23 -29 15 0 70 47 63 53 -3 3 -21 -8
-40 -24z"/>
<path d="M3510 2518 c-25 -5 -71 -7 -102 -5 -58 3 -77 -6 -35 -17 52 -14 187
4 187 25 0 5 -1 9 -2 8 -2 -1 -23 -5 -48 -11z"/>
<path d="M2515 3241 c-27 -4 -41 -12 -43 -23 -2 -10 2 -18 8 -18 6 0 16 -13
21 -30 12 -34 36 -39 68 -12 17 14 20 24 15 55 -4 20 -12 36 -18 36 -6 -1 -29
-5 -51 -8z m33 -66 c-6 -7 -14 -3 -24 10 -13 17 -13 20 3 26 21 7 36 -20 21
-36z"/>
<path d="M2394 3215 c7 -18 -10 -20 -18 -2 -3 6 -5 3 -3 -8 3 -27 31 -25 35 3
2 12 -2 22 -8 22 -7 0 -10 -7 -6 -15z"/>
<path d="M2715 3220 c17 -5 42 -24 58 -42 18 -21 27 -27 27 -16 0 30 -34 58
-75 63 -37 5 -38 4 -10 -5z"/>
<path d="M2262 3203 c-7 -2 -17 -14 -24 -26 -10 -20 -10 -21 7 -7 10 8 34 20
54 26 36 12 36 12 6 12 -16 0 -36 -2 -43 -5z"/>
<path d="M2685 3140 c-10 -11 -21 -17 -26 -14 -4 2 -16 -7 -25 -21 -16 -24
-16 -27 1 -45 17 -19 74 -28 76 -12 0 4 3 16 6 27 9 37 8 78 -3 82 -6 2 -19
-6 -29 -17z m9 -47 c-9 -37 -11 -38 -30 -23 -14 12 -13 15 8 32 30 23 30 23
22 -9z"/>
<path d="M2252 3127 c-7 -8 -7 -18 -2 -27 5 -8 6 -27 3 -42 -6 -32 3 -35 54
-16 32 12 34 15 28 48 -4 19 -9 38 -11 42 -8 13 -61 9 -72 -5z m56 -34 c2 -12
-4 -23 -14 -27 -12 -4 -15 -2 -11 9 4 8 2 17 -4 20 -12 8 0 27 14 22 7 -2 13
-13 15 -24z"/>
<path d="M2865 3082 c0 -56 -3 -64 -35 -98 -41 -43 -85 -64 -134 -64 -19 0
-38 -4 -41 -10 -8 -13 35 -13 92 1 93 24 164 132 132 200 -15 31 -15 31 -14
-29z"/>
<path d="M2432 3097 c-43 -44 -42 -67 2 -67 46 0 69 30 54 71 -5 16 -13 29
-17 29 -4 0 -21 -15 -39 -33z m24 -35 c-8 -9 -19 -13 -22 -9 -4 4 1 15 12 26
23 22 33 6 10 -17z"/>
<path d="M2097 3059 c-26 -15 -50 -68 -43 -95 9 -33 19 -30 56 14 28 34 30 35
20 9 -32 -88 33 -179 127 -176 l28 0 -25 11 c-14 5 -39 16 -57 24 -44 18 -63
60 -61 134 2 68 -14 96 -45 79z m13 -38 c-11 -21 -30 -37 -30 -25 0 8 30 44
37 44 2 0 -1 -9 -7 -19z"/>
<path d="M2947 2997 c-8 -20 9 -41 27 -34 23 9 21 47 -3 47 -10 0 -21 -6 -24
-13z"/>
<path d="M3016 2982 c-17 -33 -75 -88 -128 -120 -41 -26 -48 -35 -20 -30 11 2
21 -6 29 -24 7 -16 18 -28 26 -28 16 0 97 56 97 67 0 4 -9 17 -21 29 l-21 23
25 33 c24 32 44 78 33 78 -3 0 -12 -13 -20 -28z m-29 -127 c3 -9 -46 -45 -61
-45 -3 0 -6 9 -6 20 0 31 57 53 67 25z"/>
<path d="M2374 2905 c-9 -51 0 -67 38 -63 30 3 33 7 36 38 3 24 -2 38 -14 47
-32 23 -53 16 -60 -22z m56 -16 c0 -10 -2 -19 -4 -19 -2 0 -11 -3 -20 -6 -12
-5 -16 0 -16 19 0 24 16 39 33 30 4 -2 7 -13 7 -24z"/>
<path d="M1977 2912 c-26 -15 -28 -21 -24 -60 6 -56 14 -63 61 -55 45 7 54 24
33 66 -9 18 -18 40 -21 50 -6 20 -12 20 -49 -1z m41 -80 c-5 -2 -15 -1 -23 2
-18 7 -20 43 -2 49 14 4 39 -46 25 -51z"/>
<path d="M2694 2839 c-55 -43 -59 -55 -28 -75 32 -22 50 -12 77 40 17 33 18
39 5 52 -13 13 -19 11 -54 -17z m32 -24 c-19 -28 -43 -42 -54 -30 -4 4 8 20
27 36 40 33 51 31 27 -6z"/>
<path d="M2480 2755 c-7 -8 -27 -15 -46 -15 -18 0 -36 -4 -39 -10 -8 -14 36
-71 49 -62 6 3 31 9 55 12 61 7 76 33 38 66 -33 28 -40 29 -57 9z m40 -30 c7
-8 8 -15 2 -15 -5 0 -15 7 -22 15 -7 8 -8 15 -2 15 5 0 15 -7 22 -15z m-56
-14 c10 -15 -22 -20 -34 -5 -10 11 -9 14 8 14 12 0 23 -4 26 -9z"/>
<path d="M2076 2731 l-28 -28 23 -17 c52 -36 97 -8 68 42 -19 35 -29 35 -63 3z
m52 -19 c2 -7 -7 -12 -23 -12 -24 0 -26 2 -15 15 14 17 31 16 38 -3z"/>
<path d="M2277 2724 c-14 -15 -6 -34 14 -34 14 0 19 5 17 17 -3 18 -20 27 -31
17z"/>
<path d="M2810 2715 c-23 -27 -66 -45 -112 -45 -25 0 -64 -11 -93 -24 -55 -27
-49 -35 8 -11 20 8 52 15 70 15 76 0 156 38 146 69 -4 10 -8 9 -19 -4z"/>
<path d="M1946 2666 c3 -9 11 -16 16 -16 13 0 5 23 -10 28 -7 2 -10 -2 -6 -12z"/>
<path d="M4090 3101 c0 -5 5 -13 10 -16 6 -4 7 -11 4 -17 -4 -7 -2 -8 4 -4 13
8 36 -30 28 -49 -2 -7 2 -16 10 -19 22 -9 17 36 -8 74 -23 34 -48 50 -48 31z"/>
<path d="M3950 3020 c0 -4 14 -13 30 -20 30 -13 90 -72 90 -90 0 -6 5 -10 10
-10 18 0 -18 57 -56 88 -37 31 -74 47 -74 32z"/>
<path d="M3994 2670 c-6 -6 -34 -13 -62 -17 -56 -6 -71 -23 -21 -23 34 0 99
27 99 41 0 12 -4 11 -16 -1z"/>
<path d="M3188 2737 c-56 -88 -195 -209 -303 -265 -27 -14 -44 -27 -37 -30 20
-6 167 86 236 150 66 59 141 159 135 177 -2 6 -16 -8 -31 -32z"/>
<path d="M2840 2373 c-47 -23 -110 -50 -140 -59 -58 -17 -86 -34 -57 -34 48 0
226 76 277 119 37 30 16 23 -80 -26z"/>
</g>
</svg>
