<?xml version="1.0" standalone="no"?>
<!DOCTYPE svg PUBLIC "-//W3C//DTD SVG 20010904//EN"
 "http://www.w3.org/TR/2001/REC-SVG-20010904/DTD/svg10.dtd">
<svg version="1.0" xmlns="http://www.w3.org/2000/svg"
 width="260.000000pt" height="280.000000pt" viewBox="0 0 260.000000 280.000000"
 preserveAspectRatio="xMidYMid meet">
<metadata>
Created by potrace 1.16, written by Peter Selinger 2001-2019
</metadata>
<g transform="translate(0.000000,280.000000) scale(0.100000,-0.100000)"
fill="#000000" stroke="none">
<path d="M1655 2314 c-195 -15 -385 -55 -573 -118 -233 -78 -531 -210 -630
-278 -69 -48 -145 -131 -177 -194 -27 -54 -30 -68 -30 -159 0 -92 2 -104 30
-155 36 -66 99 -131 153 -159 21 -11 94 -36 162 -56 215 -63 261 -100 348
-276 87 -178 165 -232 332 -232 185 0 368 102 604 337 207 206 347 429 438
698 51 151 62 271 33 359 -34 101 -140 179 -291 213 -71 16 -304 27 -399 20z
m409 -39 c91 -24 140 -49 192 -97 84 -77 108 -169 80 -308 -21 -103 -44 -162
-109 -275 -109 -194 -186 -298 -361 -493 -136 -152 -238 -217 -412 -263 -91
-24 -238 -29 -300 -11 -78 23 -105 50 -159 159 -88 177 -119 203 -325 273
-164 56 -218 85 -282 152 -77 80 -109 205 -76 299 21 62 76 137 130 177 148
111 642 310 913 367 159 33 285 44 470 40 124 -2 199 -8 239 -20z"/>
<path d="M1705 2196 c-39 -17 -111 -98 -127 -142 -14 -41 -31 -45 -22 -6 5 22
4 25 -6 15 -15 -14 -21 -73 -8 -73 11 0 -1 -42 -14 -51 -5 -3 -6 -24 -2 -47 5
-31 2 -45 -10 -57 -20 -21 -21 -39 -1 -31 11 4 15 -1 15 -19 0 -37 15 -30 47
20 61 99 83 123 149 167 117 78 164 141 144 193 -16 43 -101 59 -165 31z m86
-86 c11 -6 19 -21 19 -35 0 -19 -16 -35 -73 -74 -81 -54 -126 -101 -157 -161
-30 -59 -44 -62 -36 -6 3 25 9 66 12 91 17 127 149 231 235 185z"/>
<path d="M1230 2082 c-61 -30 -104 -118 -136 -273 -18 -92 -15 -266 6 -329 13
-37 53 -80 73 -80 7 1 -2 13 -20 28 l-32 28 29 11 c32 12 50 58 50 131 0 55
24 101 100 192 76 91 100 137 100 192 0 50 -19 82 -60 103 -38 20 -67 19 -110
-3z m99 -118 c37 -47 28 -82 -39 -160 -81 -93 -110 -152 -110 -225 0 -96 -59
-138 -73 -52 -19 113 5 323 45 395 39 69 138 92 177 42z"/>
<path d="M2041 2009 c-48 -14 -100 -49 -183 -125 -40 -36 -92 -77 -116 -91
-23 -14 -39 -29 -36 -34 3 -5 27 -9 54 -9 33 0 50 -5 54 -15 6 -17 52 -21 58
-5 2 6 31 15 65 20 33 4 81 17 106 28 31 14 47 17 50 9 4 -13 67 10 67 25 0 6
-7 7 -15 4 -42 -17 -47 -16 -22 4 15 12 39 39 53 59 13 20 28 34 31 31 4 -3 9
4 12 15 3 17 2 18 -15 5 -10 -8 -15 -10 -11 -3 12 20 -14 61 -48 78 -37 17
-55 18 -104 4z m118 -98 c31 -20 -54 -96 -142 -128 -39 -14 -248 -32 -237 -20
3 3 46 26 95 53 50 26 114 60 144 76 53 28 113 36 140 19z"/>
<path d="M758 1974 c-82 -44 -133 -265 -94 -409 20 -76 60 -147 111 -198 58
-58 83 -67 107 -37 24 29 23 37 -12 125 -38 96 -38 146 -1 268 17 53 32 114
34 136 2 23 6 44 10 48 11 10 8 43 -3 43 -5 0 -10 -6 -10 -12 0 -7 -6 -4 -12
7 -25 47 -77 58 -130 29z m96 -116 c22 -30 20 -53 -9 -154 -32 -112 -32 -148
6 -245 59 -154 0 -178 -91 -37 -48 74 -74 179 -65 258 9 78 46 155 87 180 42
25 53 25 72 -2z"/>
<path d="M326 1728 c-10 -40 -6 -142 8 -181 28 -76 119 -175 136 -146 4 5 17
-3 31 -18 13 -16 17 -22 9 -15 -15 13 -40 16 -40 5 0 -19 185 -103 227 -103
28 0 11 17 -29 29 -76 23 -140 54 -127 61 16 11 -51 71 -72 64 -10 -3 -31 12
-57 40 -54 58 -77 135 -68 223 6 61 -5 87 -18 41z"/>
<path d="M1879 1615 c-150 -84 -135 -80 -334 -80 -156 0 -184 -2 -208 -18 -33
-22 -34 -31 -3 -45 47 -21 103 -31 291 -52 259 -30 347 -20 418 48 66 62 71
127 14 163 -49 30 -104 25 -178 -16z m155 -37 c57 -25 37 -82 -44 -127 -62
-35 -163 -38 -384 -12 -99 12 -182 23 -184 26 -3 3 37 5 89 5 171 1 228 13
346 69 113 53 136 58 177 39z"/>
<path d="M1150 1291 c0 -5 16 -15 35 -22 19 -7 35 -16 35 -21 0 -4 -19 -1 -41
7 -61 22 -155 17 -146 -8 5 -16 137 -92 210 -121 161 -64 366 -90 445 -57 67
28 78 108 20 156 -25 21 -40 25 -93 25 -47 0 -64 4 -69 15 -3 9 -18 15 -35 15
-31 0 -50 -15 -29 -23 10 -3 10 -7 1 -17 -15 -16 -200 -20 -211 -5 -7 10 -105
65 -116 65 -3 0 -6 -4 -6 -9z m60 -105 c69 -19 94 -20 257 -11 114 7 139 5
178 -9 39 -15 65 -39 65 -61 0 -15 -75 -35 -132 -35 -122 0 -352 64 -433 121
-32 22 -32 22 65 -5z"/>
</g>
</svg>
