<?xml version="1.0" standalone="no"?>
<!DOCTYPE svg PUBLIC "-//W3C//DTD SVG 20010904//EN"
 "http://www.w3.org/TR/2001/REC-SVG-20010904/DTD/svg10.dtd">
<svg version="1.0" xmlns="http://www.w3.org/2000/svg"
 width="350.000000pt" height="350.000000pt" viewBox="0 0 350.000000 350.000000"
 preserveAspectRatio="xMidYMid meet">
<metadata>
Created by potrace 1.16, written by Peter Selinger 2001-2019
</metadata>
<g transform="translate(0.000000,350.000000) scale(0.100000,-0.100000)"
fill="#000000" stroke="none">
<path d="M1763 2731 c-469 -305 -759 -493 -1055 -685 l-358 -231 0 -537 c0
-295 3 -538 8 -541 16 -7 678 26 690 35 6 6 12 18 12 28 0 27 52 98 91 124
117 80 266 42 332 -84 l28 -55 77 3 c42 2 372 16 732 32 l654 28 20 24 c17 21
86 159 86 172 0 3 -22 6 -48 6 -111 0 -202 62 -202 139 0 96 116 153 262 128
l46 -8 7 105 c12 173 -15 407 -66 566 -42 131 -146 315 -228 403 -72 76 -191
160 -296 207 -161 73 -400 140 -571 159 -54 7 -113 13 -131 16 -24 3 -46 -6
-90 -34z m262 -11 c358 -58 625 -172 788 -336 61 -61 142 -184 129 -195 -4 -3
-225 -37 -492 -74 -467 -65 -485 -67 -495 -49 -5 11 -27 36 -48 56 -50 50
-125 72 -227 66 -132 -8 -221 -73 -236 -174 -3 -24 -10 -44 -15 -44 -4 0 -231
-32 -505 -70 -273 -39 -498 -69 -500 -68 -1 2 59 43 134 92 154 99 419 270
917 594 388 253 343 236 550 202z m-239 -574 c28 -13 55 -30 59 -37 6 -9 3
-10 -11 -4 -53 22 -116 29 -171 17 -53 -11 -83 -26 -72 -36 3 -3 29 2 59 11
67 20 142 8 202 -32 32 -22 38 -31 38 -61 0 -71 -73 -143 -161 -159 -48 -9
-153 18 -195 50 -44 33 -68 87 -59 133 9 51 68 105 136 125 76 22 116 20 175
-7z m1194 -8 c10 -18 17 -34 15 -36 -2 -2 -20 1 -39 8 -20 6 -44 10 -53 8 -10
-2 11 -13 47 -24 41 -12 66 -26 68 -36 3 -14 -4 -14 -65 3 -37 10 -78 22 -90
25 -13 3 -23 2 -23 -4 0 -5 33 -18 73 -27 39 -10 84 -24 98 -31 25 -12 45 -42
35 -51 -2 -2 -38 9 -80 25 -42 17 -78 26 -81 22 -5 -9 70 -43 133 -59 23 -7
42 -13 42 -16 0 -2 3 -11 6 -19 5 -13 -5 -11 -42 9 -55 28 -121 45 -111 28 4
-6 19 -14 34 -18 48 -12 133 -68 133 -88 0 -16 -3 -15 -32 7 -18 13 -58 34
-88 45 -63 24 -60 23 -60 13 0 -5 26 -21 58 -35 88 -40 126 -65 134 -87 10
-28 4 -26 -73 21 -38 22 -73 38 -79 34 -6 -4 12 -20 42 -39 84 -51 113 -70
120 -80 14 -21 -3 -18 -39 6 -44 28 -138 68 -161 68 -23 0 -5 -13 48 -35 70
-29 160 -86 160 -102 0 -11 -7 -9 -30 7 -44 31 -119 62 -132 54 -6 -4 14 -19
48 -34 67 -31 133 -84 121 -96 -4 -5 -16 -3 -25 4 -56 39 -155 93 -160 87 -4
-4 2 -14 13 -21 35 -26 158 -103 169 -107 6 -2 9 -7 6 -10 -3 -3 -36 14 -74
39 -65 42 -96 53 -96 37 0 -5 27 -23 58 -41 70 -40 119 -78 111 -86 -3 -3 -30
7 -60 24 -56 31 -79 37 -79 21 0 -6 32 -26 70 -47 39 -20 70 -43 70 -50 0 -20
-4 -19 -95 36 -77 46 -115 61 -115 43 0 -5 40 -30 88 -56 101 -56 128 -74 119
-83 -3 -3 -36 10 -72 31 -36 20 -73 35 -83 33 -10 -2 13 -20 62 -48 123 -70
102 -77 -27 -10 -62 33 -119 60 -125 60 -30 0 -5 -19 78 -60 50 -24 90 -47 90
-50 0 -3 -21 -6 -47 -8 -105 -7 -183 -68 -191 -150 -4 -44 -1 -52 27 -85 36
-40 120 -77 176 -77 36 0 41 -5 26 -28 -6 -10 -29 -4 -101 28 -52 22 -98 36
-102 32 -9 -9 139 -82 166 -82 8 0 17 -4 21 -9 12 -21 -14 -18 -77 9 -40 17
-70 25 -73 19 -6 -8 60 -43 118 -63 10 -3 16 -10 13 -15 -3 -5 -45 6 -93 25
-92 36 -103 39 -103 25 0 -5 37 -24 83 -42 91 -36 93 -37 85 -45 -3 -3 -47 7
-97 21 -50 15 -99 25 -109 23 -9 -2 24 -15 73 -30 69 -20 84 -27 65 -31 -14
-3 -326 -18 -694 -33 -523 -22 -671 -25 -674 -16 -14 43 -73 109 -121 135
-107 60 -255 33 -329 -60 -16 -21 -36 -54 -45 -74 l-15 -36 -148 -6 c-82 -4
-227 -10 -322 -14 l-172 -6 0 195 0 195 58 16 c139 39 207 141 156 238 -20 40
-93 85 -160 100 l-54 12 0 143 c0 127 2 143 18 148 9 2 250 37 535 77 437 61
520 70 527 58 5 -7 6 -17 2 -20 -4 -4 -137 -24 -297 -44 -328 -41 -345 -44
-345 -56 0 -5 10 -7 23 -4 12 3 130 19 262 35 132 17 270 35 306 41 65 10 68
10 120 -20 110 -61 243 -62 339 -3 49 30 90 83 90 116 0 12 4 26 8 32 5 9 344
62 985 153 4 1 16 -13 27 -31z m-2502 -674 c59 -29 87 -61 101 -111 22 -77
-52 -158 -162 -178 l-37 -7 0 161 0 161 23 0 c13 0 46 -12 75 -26z"/>
<path d="M1910 2672 c8 -5 40 -13 70 -17 283 -36 615 -152 732 -254 48 -42 88
-111 88 -149 0 -23 14 -29 25 -11 12 18 -15 95 -46 132 -86 104 -338 210 -649
271 -149 30 -242 41 -220 28z"/>
<path d="M1902 2510 c-50 -10 -107 -43 -116 -66 -25 -64 18 -115 111 -134 152
-32 289 36 257 128 -18 54 -152 92 -252 72z m165 -46 c44 -33 45 -72 3 -107
-92 -78 -300 -13 -257 80 14 32 72 52 151 52 59 1 74 -3 103 -25z"/>
<path d="M1080 2191 c-105 -55 -60 -161 73 -169 53 -3 67 0 97 20 45 31 60 70
39 106 -32 58 -140 80 -209 43z m163 -30 l22 -23 -32 16 c-39 20 -119 20 -153
1 -30 -17 -6 -21 36 -5 33 13 144 -17 144 -38 0 -28 -21 -50 -61 -66 -50 -20
-97 -9 -129 31 -28 36 -25 67 8 93 38 30 132 25 165 -9z"/>
<path d="M2500 1883 c-91 -15 -139 -57 -147 -127 -5 -44 -3 -48 38 -90 45 -44
119 -76 179 -76 99 0 190 67 190 140 0 91 -139 172 -260 153z m142 -44 c41
-21 68 -63 68 -106 0 -124 -240 -155 -310 -40 -39 64 -13 147 52 161 12 3 32
7 43 10 34 8 108 -5 147 -25z"/>
<path d="M827 1708 c-25 -33 -25 -33 -46 -14 -30 27 -39 11 -12 -18 l23 -25
-22 -30 -22 -31 -30 21 c-19 14 -33 18 -40 11 -6 -6 3 -17 26 -32 35 -21 36
-28 14 -57 -8 -9 -15 -9 -33 3 -13 9 -32 14 -42 12 -13 -2 -8 -9 21 -26 38
-22 38 -23 21 -48 -21 -33 -9 -46 15 -16 32 39 64 19 36 -23 -14 -21 -14 -25
-2 -25 7 0 20 10 28 21 12 19 17 20 36 10 12 -6 22 -17 22 -24 0 -7 12 -13 28
-13 15 -1 37 -5 50 -9 33 -11 27 10 -8 25 -31 13 -31 19 2 64 14 17 16 17 46
2 36 -18 66 -21 56 -5 -3 6 -22 18 -42 26 l-35 14 21 22 c19 18 24 19 46 8 13
-7 30 -11 38 -9 8 3 0 11 -20 22 l-33 17 26 35 c17 22 21 34 12 34 -7 0 -23
-14 -35 -30 -22 -29 -23 -30 -53 -15 -31 16 -31 18 3 68 14 19 16 27 6 27 -7
0 -23 -16 -36 -35 -22 -35 -23 -35 -47 -19 l-25 17 25 33 c14 18 25 35 25 38
0 15 -20 3 -43 -26z"/>
<path d="M1267 1580 c-81 -21 -128 -61 -146 -126 -48 -173 292 -290 433 -149
112 112 7 264 -194 280 -30 2 -72 0 -93 -5z m161 -39 c50 -25 76 -50 96 -88
30 -59 13 -111 -51 -160 -32 -25 -45 -28 -107 -28 -59 0 -80 5 -124 29 -120
67 -130 196 -19 247 57 25 155 25 205 0z"/>
<path d="M2135 1330 c-90 -13 -154 -84 -141 -154 9 -46 68 -98 142 -126 132
-49 284 12 284 115 0 106 -141 187 -285 165z m139 -31 c27 -15 56 -40 56 -49
0 -5 -17 1 -37 11 -45 23 -144 25 -188 3 -26 -12 -26 -13 -5 -9 101 23 160 12
215 -39 43 -41 44 -56 5 -99 -49 -56 -140 -73 -210 -37 -113 58 -114 197 -1
229 41 12 133 6 165 -10z"/>
</g>
</svg>
