<?xml version="1.0" standalone="no"?>
<!DOCTYPE svg PUBLIC "-//W3C//DTD SVG 20010904//EN"
 "http://www.w3.org/TR/2001/REC-SVG-20010904/DTD/svg10.dtd">
<svg version="1.0" xmlns="http://www.w3.org/2000/svg"
 width="490.000000pt" height="300.000000pt" viewBox="0 0 490.000000 300.000000"
 preserveAspectRatio="xMidYMid meet">
<g transform="translate(0.000000,300.000000) scale(0.100000,-0.100000)"
fill="#000000" stroke="none">
<path d="M3045 2984 c-80 -13 -192 -47 -260 -78 -56 -26 -94 -54 -152 -110
-45 -44 -86 -76 -98 -76 -39 0 -130 -50 -181 -98 -12 -12 -30 -9 -112 17 -201
63 -372 85 -652 84 -240 0 -408 -15 -578 -49 -138 -27 -332 -88 -413 -130
-175 -88 -325 -225 -395 -359 -41 -78 -74 -185 -74 -238 0 -14 -6 -30 -13 -34
-23 -14 -78 -101 -94 -149 -21 -63 -12 -136 26 -212 17 -33 35 -63 41 -67 6
-4 1 -14 -14 -26 -86 -68 -67 -281 37 -424 12 -16 28 -48 36 -70 51 -154 126
-259 254 -358 190 -147 389 -222 697 -263 157 -20 616 -15 777 10 181 27 346
73 446 123 l48 24 -51 57 c-62 70 -174 236 -207 309 -13 29 -26 53 -28 53 -1
0 -31 -9 -66 -19 -383 -117 -995 -84 -1404 76 -231 90 -420 244 -465 379 -12
35 -19 68 -15 74 3 5 2 10 -3 10 -11 0 -23 -53 -14 -60 10 -8 32 -73 27 -78
-3 -3 -14 3 -25 13 -20 18 -70 15 -70 -5 0 -6 8 -5 19 2 27 16 62 -8 104 -75
51 -78 150 -167 280 -252 41 -27 47 -29 47 -17 0 5 -16 16 -36 26 -20 9 -34
19 -31 22 3 3 16 1 29 -6 22 -11 22 -10 3 5 -11 8 -26 13 -33 10 -25 -9 -193
135 -244 210 -12 17 3 5 33 -25 69 -70 129 -123 129 -113 0 5 4 3 8 -3 9 -15
153 -94 225 -124 31 -13 53 -28 50 -33 -3 -6 -1 -7 5 -3 11 6 97 -15 187 -46
17 -6 41 -10 55 -9 20 1 22 -1 10 -10 -12 -8 -11 -9 6 -4 11 3 52 -1 90 -9
242 -50 580 -61 793 -24 65 11 65 11 89 -18 22 -26 23 -22 7 19 -4 8 22 19 83
34 48 12 95 25 105 28 12 5 19 0 27 -19 5 -15 19 -39 31 -55 12 -17 19 -37 15
-46 -3 -9 -2 -14 2 -11 5 3 16 -4 25 -14 19 -23 15 -27 -74 -58 -221 -79 -394
-106 -669 -106 -440 1 -876 104 -1106 262 -96 65 -154 125 -154 158 l0 28 28
-27 c50 -48 44 -29 -8 25 -28 29 -59 71 -71 95 -23 47 -34 58 -19 17 13 -32
13 -41 1 -28 -6 5 -12 29 -15 54 -3 25 -10 60 -15 78 -5 17 -7 32 -4 32 3 0 1
6 -5 13 -14 16 3 109 23 119 8 5 12 15 8 25 -5 12 -2 15 8 11 28 -11 13 69
-18 101 -8 7 -12 18 -10 25 2 6 -2 17 -10 24 -7 7 -14 27 -14 43 -1 16 -2 42
-3 58 0 16 3 27 8 24 4 -3 5 4 2 15 -4 11 -2 23 4 27 5 3 10 13 10 22 0 8 14
37 32 65 l32 49 19 -37 c91 -176 369 -328 732 -398 252 -49 467 -67 816 -69
l258 -2 -1 -40 c0 -22 1 -42 2 -45 3 -10 11 -45 15 -70 2 -14 13 -59 24 -100
22 -88 26 -84 -82 -95 -69 -7 -81 -1 -53 27 24 24 45 138 26 138 -6 0 -10 -19
-10 -43 0 -31 -9 -57 -30 -90 -26 -41 -34 -48 -62 -47 -18 1 -132 -1 -253 -4
-454 -11 -766 41 -1030 170 -123 60 -187 102 -179 116 4 7 3 8 -4 4 -15 -9
-103 64 -95 77 3 6 1 7 -6 3 -7 -4 -19 2 -30 16 -11 13 -22 20 -26 16 -4 -4 8
-21 26 -39 180 -168 432 -288 709 -339 30 -6 65 -12 76 -14 76 -15 366 -27
574 -24 l245 3 27 -30 c15 -16 28 -36 28 -42 0 -7 5 -13 10 -13 7 0 7 -7 0
-21 -13 -23 -8 -35 9 -24 20 12 -1 75 -35 110 -9 9 -15 18 -13 20 3 2 54 9
114 16 61 6 111 13 113 14 2 2 -3 16 -11 32 -14 27 -52 178 -62 245 -14 91
-17 310 -6 393 24 176 78 347 150 470 20 33 47 97 62 142 29 91 77 183 117
225 48 52 17 36 -48 -24 -36 -33 -74 -67 -85 -77 -21 -16 -138 -165 -167 -212
-52 -82 -128 -249 -128 -280 0 -6 5 -7 10 -4 6 3 10 17 10 30 0 13 5 25 10 27
6 2 12 13 13 26 0 12 5 22 9 22 4 0 8 7 8 16 0 19 106 200 137 234 13 14 23
29 23 34 0 5 10 18 23 30 12 12 33 36 47 53 18 23 28 29 37 22 14 -12 6 -42
-9 -33 -5 3 -8 0 -7 -7 3 -19 -22 -108 -32 -114 -4 -3 -5 -13 -2 -23 6 -15 5
-16 -12 -2 -17 14 -18 14 -6 -8 11 -20 10 -26 -6 -37 -13 -10 -20 -10 -26 -2
-6 8 -7 7 -4 -3 2 -8 11 -14 18 -12 9 1 8 -3 -3 -11 -10 -8 -18 -19 -18 -24 0
-6 -7 -16 -15 -23 -9 -7 -14 -19 -11 -27 3 -7 2 -13 -3 -13 -5 0 -12 -16 -15
-36 -5 -22 -12 -34 -19 -31 -7 3 -12 -6 -13 -22 -1 -14 -9 -51 -18 -81 -10
-30 -20 -70 -23 -87 -3 -18 -10 -33 -15 -33 -6 0 -8 -12 -5 -30 4 -16 2 -42
-3 -57 -6 -15 -11 -93 -12 -173 l-3 -145 -225 -1 c-283 -1 -412 5 -403 19 3 6
1 7 -6 3 -14 -9 -230 11 -291 27 -25 6 -49 10 -54 9 -49 -15 -522 139 -546
178 -4 7 -11 12 -16 11 -21 -1 -75 40 -68 51 5 7 3 8 -5 4 -12 -8 -23 0 -80
59 -38 39 -93 115 -84 115 5 0 9 17 9 38 2 56 8 92 15 92 3 0 18 -11 33 -25
15 -14 32 -25 37 -25 6 0 -4 12 -23 27 -39 33 -48 43 -48 62 0 8 6 11 16 7 14
-5 15 -4 5 8 -8 9 -8 16 -2 20 10 7 37 -32 33 -47 -1 -5 1 -6 6 -3 4 2 29 -17
55 -44 26 -27 47 -46 47 -44 0 3 14 -5 31 -17 18 -12 69 -41 115 -65 45 -23
80 -45 76 -49 -4 -4 6 -3 22 1 18 4 27 3 23 -3 -3 -5 -1 -10 6 -11 7 0 40 -8
75 -18 43 -11 59 -20 50 -25 -8 -5 1 -6 21 -2 22 4 32 2 28 -4 -4 -5 8 -10 26
-11 18 0 59 -5 92 -11 253 -46 452 -55 566 -26 69 17 99 42 99 81 0 46 -41 59
-201 62 -242 5 -454 32 -614 80 -78 24 -195 74 -190 83 4 5 -1 6 -9 3 -8 -3
-32 6 -55 20 -22 14 -45 26 -50 26 -5 0 -19 11 -32 25 -13 13 -29 25 -36 25
-24 0 -62 23 -56 33 3 6 1 7 -5 3 -6 -4 -26 0 -45 7 -30 13 -35 13 -45 -2 -9
-12 -9 -9 0 11 6 15 15 25 21 21 6 -3 7 -1 3 5 -3 6 1 17 9 25 8 9 15 19 15
24 0 16 111 132 148 154 20 13 44 30 52 40 23 25 179 101 192 93 6 -4 8 -3 5
3 -7 11 15 22 103 48 30 9 64 20 75 25 30 14 301 67 380 75 106 11 603 14 660
5 28 -4 88 -13 135 -20 47 -7 100 -19 119 -27 18 -8 36 -12 39 -9 3 3 10 2 16
-3 7 -6 24 -12 39 -15 36 -6 49 -15 41 -28 -4 -7 -2 -8 5 -4 6 4 28 9 47 11
21 2 47 14 63 28 14 13 41 30 59 38 17 8 32 17 32 21 0 3 19 9 42 13 33 6 57
22 126 87 81 77 165 127 235 142 15 3 39 9 53 12 21 5 25 4 19 -6 -5 -9 -4
-11 4 -6 6 4 9 12 6 17 -4 5 -3 9 2 9 4 0 35 4 68 9 83 13 201 24 195 18 -3
-3 -43 -14 -90 -26 -109 -28 -180 -53 -180 -64 0 -4 -4 -6 -8 -3 -10 6 -88
-47 -119 -81 -42 -48 -83 -110 -76 -117 4 -3 1 -6 -5 -6 -7 0 -12 -9 -12 -20
0 -11 -4 -20 -8 -20 -4 0 -17 -35 -27 -77 -16 -62 -20 -111 -20 -238 1 -138
18 -295 32 -282 2 2 -4 69 -13 148 -10 90 -13 170 -9 214 4 39 8 79 9 90 5 49
28 135 37 135 5 0 9 9 9 19 0 11 5 21 11 23 5 2 11 10 13 18 8 51 94 141 169
176 29 14 60 29 69 34 32 18 174 49 198 44 23 -4 23 -3 5 6 -35 18 173 2 255
-19 136 -35 160 -43 154 -52 -3 -5 1 -6 9 -3 14 5 156 -60 167 -76 3 -4 15
-10 28 -14 12 -4 19 -12 16 -18 -4 -7 -2 -8 5 -4 11 7 67 -22 94 -48 6 -6 28
-21 47 -33 36 -22 80 -67 80 -82 0 -4 10 -16 23 -27 l22 -19 -19 23 c-42 49
-5 29 65 -35 110 -102 273 -281 290 -318 5 -11 29 -47 54 -80 25 -33 48 -68
51 -77 4 -10 10 -18 15 -18 5 0 9 -4 9 -10 0 -5 14 -33 31 -62 18 -29 32 -58
32 -65 0 -7 5 -10 10 -6 5 3 6 -4 2 -17 -4 -14 -3 -20 3 -16 5 3 16 -9 23 -27
7 -17 15 -34 19 -37 25 -22 79 -187 81 -250 1 -19 3 -27 6 -17 2 9 8 17 13 17
5 0 7 -6 4 -14 -3 -8 -1 -17 4 -20 6 -3 8 -16 4 -28 -3 -12 -1 -19 4 -15 5 3
10 -2 11 -11 0 -9 3 -33 7 -52 23 -125 28 -182 29 -320 l2 -155 -38 -97 c-21
-54 -43 -98 -48 -98 -5 0 -9 -6 -9 -14 0 -8 -6 -16 -12 -19 -7 -2 -10 -7 -6
-11 8 -10 62 69 79 117 7 20 17 37 22 37 5 0 6 -8 2 -17 -4 -10 -13 -36 -20
-58 -18 -57 -84 -185 -96 -185 -6 0 -7 -5 -4 -10 4 -6 -9 -29 -29 -50 -20 -22
-36 -45 -36 -50 0 -6 -5 -10 -10 -10 -6 0 -23 -14 -39 -32 -26 -29 -30 -31
-47 -18 -17 14 -18 13 -6 -1 14 -19 7 -28 -45 -50 -18 -8 -33 -17 -33 -21 0
-5 -6 -8 -14 -8 -7 0 -27 -7 -42 -15 -17 -9 -30 -11 -32 -5 -2 6 -11 10 -20 9
-14 0 -14 -2 -2 -7 19 -7 -79 -30 -190 -44 -61 -7 -105 -7 -155 1 -118 19
-238 52 -284 77 -24 13 -49 24 -55 24 -19 1 -89 37 -80 42 5 3 3 3 -5 1 -18
-4 -192 79 -210 100 -7 10 -20 17 -28 17 -8 0 -11 5 -7 11 4 7 1 10 -7 7 -24
-8 -241 159 -234 180 3 7 1 11 -4 8 -12 -8 -93 72 -86 84 4 6 -1 7 -11 3 -14
-5 -16 -3 -11 11 4 9 3 15 -2 11 -14 -8 -60 56 -54 74 4 14 4 14 -6 1 -9 -12
-13 -12 -19 -2 -5 7 -19 25 -30 40 -59 73 -74 94 -131 179 -40 60 -59 98 -55
110 4 13 3 15 -4 5 -7 -11 -11 -10 -18 5 -4 10 -8 23 -9 28 -1 18 -16 35 -26
30 -5 -4 -9 -1 -9 4 0 6 -13 40 -30 74 -16 35 -30 69 -30 76 0 7 -7 19 -15 27
-8 8 -22 42 -31 75 -9 33 -21 62 -25 65 -5 3 -9 16 -9 30 0 13 -4 24 -9 24 -4
0 -16 35 -26 78 -9 42 -24 102 -32 132 -8 30 -17 126 -20 213 -6 162 4 264 33
333 21 49 16 65 -6 23 -38 -71 -53 -204 -45 -378 10 -219 93 -502 209 -721 25
-47 53 -100 63 -117 9 -18 20 -33 25 -33 4 0 8 -5 8 -12 0 -16 108 -174 183
-267 88 -109 263 -279 372 -361 52 -38 97 -70 100 -70 3 0 22 -11 43 -25 41
-27 246 -121 362 -165 143 -56 194 -65 348 -65 78 0 142 -1 142 -2 0 -7 -101
-52 -145 -66 -76 -23 -118 -28 -235 -28 -234 0 -344 41 -652 248 -259 173
-437 350 -603 599 -36 54 -70 104 -75 110 -18 23 -129 240 -145 284 -23 63
-31 81 -43 110 -31 70 -69 273 -75 405 -5 92 14 265 38 345 15 50 82 193 107
230 6 8 -1 2 -16 -13 -14 -15 -26 -35 -26 -43 0 -8 -4 -14 -9 -14 -16 0 -78
-162 -102 -270 -13 -56 -12 -303 2 -390 19 -121 78 -308 139 -437 26 -56 45
-104 42 -106 -4 -2 -2 -3 4 -1 6 1 24 -23 39 -54 16 -32 39 -71 52 -88 13 -17
23 -36 23 -42 0 -6 3 -12 8 -14 4 -1 27 -32 52 -68 24 -36 72 -98 107 -139 50
-61 60 -78 52 -93 -16 -30 18 -77 36 -48 3 6 -1 7 -9 4 -16 -6 -23 10 -8 19 4
2 1 2 -5 1 -15 -4 -16 5 -5 23 6 9 17 4 40 -20 17 -17 32 -36 34 -42 2 -5 8
-9 15 -7 6 1 14 -7 18 -18 3 -11 11 -20 17 -20 5 0 7 -7 4 -15 -4 -10 -1 -15
8 -13 8 2 31 -10 51 -27 20 -16 55 -45 77 -63 22 -17 44 -32 50 -32 5 0 6 -4
3 -10 -4 -6 1 -7 11 -3 13 5 15 3 9 -7 -5 -8 -4 -11 2 -7 6 4 18 -5 27 -18 9
-14 21 -23 25 -21 4 3 38 -14 74 -38 37 -24 73 -46 82 -50 9 -3 14 -10 10 -15
-3 -5 0 -13 6 -17 8 -4 9 -3 5 4 -4 7 -3 12 3 12 5 0 14 -6 18 -13 14 -22 265
-131 277 -120 2 3 20 0 38 -6 39 -13 210 -17 288 -7 52 6 54 6 30 -8 -14 -9
-34 -15 -46 -16 -11 0 -24 -3 -28 -7 -6 -7 -24 -11 -58 -15 -10 -1 -18 -6 -18
-11 0 -5 -10 -7 -22 -6 -13 2 -32 0 -43 -4 -47 -14 -204 -22 -255 -12 -26 5
-31 4 -20 -4 8 -6 25 -11 38 -11 43 0 12 -18 -51 -29 -83 -14 -159 -13 -231 6
-32 8 -71 16 -85 18 -65 8 -100 18 -95 26 3 5 -2 6 -11 3 -15 -6 -102 20 -172
52 -17 8 -36 14 -42 14 -6 0 -11 5 -11 11 0 5 -4 8 -9 5 -14 -9 -41 4 -41 20
0 8 -10 14 -25 14 -24 0 -34 5 -70 38 -8 7 -17 13 -20 12 -3 0 -9 0 -14 0 -16
0 -166 116 -239 185 -39 36 -73 62 -76 57 -7 -11 26 -46 113 -122 231 -201
591 -348 901 -366 97 -6 110 -5 170 19 46 17 94 27 162 31 181 12 419 96 521
184 35 31 56 41 98 46 78 11 196 63 260 115 111 91 205 238 250 392 27 92 38
368 20 502 -69 519 -462 1121 -941 1441 -93 63 -256 146 -345 176 -106 37
-254 61 -390 65 -71 2 -143 1 -160 -1z m-831 -518 c-6 -16 -24 -23 -24 -8 0
10 22 33 27 28 2 -2 1 -11 -3 -20z m-1916 -336 c23 -11 93 -49 156 -84 153
-86 292 -136 471 -169 135 -26 153 -27 373 -37 179 -7 217 -11 232 -25 26 -23
11 -51 -38 -72 -51 -22 -250 -28 -398 -14 -395 40 -718 170 -856 344 -29 36
-30 39 -13 57 22 25 22 25 73 0z m-134 -846 c3 -8 2 -12 -4 -9 -6 3 -10 10
-10 16 0 14 7 11 14 -7z m-26 -220 c12 -20 17 -34 10 -32 -14 5 -52 68 -40 68
4 -1 17 -17 30 -36z m149 -217 c18 -12 31 -28 28 -35 -3 -7 0 -10 5 -7 10 6
91 -27 119 -49 28 -22 237 -93 341 -116 309 -68 625 -91 877 -64 35 3 75 8 90
9 16 1 37 6 47 10 13 6 23 3 32 -10 12 -16 14 -16 14 -3 0 19 10 24 125 53 50
13 114 32 143 44 28 11 52 18 52 13 0 -4 4 -1 9 6 6 10 21 -3 56 -50 27 -34
62 -78 79 -95 16 -18 26 -33 21 -33 -5 0 -20 12 -32 27 -13 14 -23 22 -23 18
0 -5 12 -21 27 -37 l27 -28 -32 -6 c-17 -4 -30 -10 -27 -14 3 -4 -7 -7 -21 -7
-15 -1 -29 -5 -33 -10 -6 -9 -89 -35 -120 -38 -9 -1 -26 -7 -39 -14 -12 -6
-26 -10 -30 -7 -4 2 -38 -2 -77 -10 -134 -26 -242 -35 -460 -39 -205 -3 -434
9 -445 24 -3 3 -18 7 -35 8 -87 6 -305 66 -305 85 0 5 -5 6 -10 3 -14 -9 -150
56 -150 72 0 7 -7 10 -15 7 -8 -4 -15 -2 -15 3 0 5 -17 19 -37 31 -21 12 -54
35 -73 52 -19 16 -38 30 -42 30 -5 0 -8 6 -8 13 0 8 -10 19 -22 26 -25 13 -90
93 -82 100 2 3 21 -11 42 -31 35 -34 167 -118 184 -118 15 0 8 11 -14 20 -33
15 -94 52 -118 72 -11 10 -20 16 -20 14 0 -7 -81 77 -101 105 -27 38 -24 44 9
19 15 -11 42 -31 59 -43z m3800 -673 c-3 -3 -12 -4 -19 -1 -8 3 -5 6 6 6 11 1
17 -2 13 -5z"/>
<path d="M327 2059 c7 -7 15 -10 18 -7 3 3 -2 9 -12 12 -14 6 -15 5 -6 -5z"/>
<path d="M230 866 c0 -2 8 -10 18 -17 15 -13 16 -12 3 4 -13 16 -21 21 -21 13z"/>
<path d="M540 634 c51 -23 110 -41 150 -48 l35 -5 -35 10 c-19 6 -46 16 -60
22 -14 6 -29 11 -35 12 -5 0 -23 6 -38 13 -16 7 -34 12 -40 12 -7 -1 4 -8 23
-16z"/>
<path d="M800 560 c0 -6 7 -10 15 -10 8 0 15 2 15 4 0 2 -7 6 -15 10 -8 3 -15
1 -15 -4z"/>
<path d="M878 543 c6 -2 18 -2 25 0 6 3 1 5 -13 5 -14 0 -19 -2 -12 -5z"/>
<path d="M2256 532 c-3 -5 1 -9 9 -9 8 0 12 4 9 9 -3 4 -7 8 -9 8 -2 0 -6 -4
-9 -8z"/>
<path d="M973 523 c9 -2 23 -2 30 0 6 3 -1 5 -18 5 -16 0 -22 -2 -12 -5z"/>
<path d="M2236 507 c3 -10 9 -15 12 -12 3 3 0 11 -7 18 -10 9 -11 8 -5 -6z"/>
<path d="M1098 503 c7 -3 16 -2 19 1 4 3 -2 6 -13 5 -11 0 -14 -3 -6 -6z"/>
<path d="M1175 500 c30 -8 162 -13 154 -6 -2 2 -44 5 -94 8 -49 3 -76 2 -60
-2z"/>
<path d="M1830 501 c0 -6 5 -13 10 -16 6 -3 10 1 10 9 0 9 -4 16 -10 16 -5 0
-10 -4 -10 -9z"/>
<path d="M1400 490 c-23 -8 -23 -8 7 -7 17 1 29 5 27 9 -3 4 -6 8 -7 7 -1 -1
-13 -5 -27 -9z"/>
<path d="M1488 483 c7 -3 16 -2 19 1 4 3 -2 6 -13 5 -11 0 -14 -3 -6 -6z"/>
<path d="M1628 483 c18 -2 45 -2 60 0 15 2 0 4 -33 4 -33 0 -45 -2 -27 -4z"/>
<path d="M1955 480 c3 -5 8 -10 11 -10 2 0 4 5 4 10 0 6 -5 10 -11 10 -5 0 -7
-4 -4 -10z"/>
<path d="M3438 2848 c6 -6 18 -8 28 -6 14 3 12 5 -9 10 -19 3 -25 2 -19 -4z"/>
<path d="M2989 2763 c-13 -16 -12 -17 4 -4 9 7 17 15 17 17 0 8 -8 3 -21 -13z"/>
<path d="M2915 2679 c-4 -6 -5 -12 -2 -15 2 -3 7 2 10 11 7 17 1 20 -8 4z"/>
<path d="M1430 2670 c0 -6 7 -10 15 -10 8 0 15 2 15 4 0 2 -7 6 -15 10 -8 3
-15 1 -15 -4z"/>
<path d="M2569 2573 c-14 -16 -26 -40 -58 -113 -18 -40 -31 -156 -31 -274 0
-113 17 -283 30 -301 4 -5 10 -27 14 -47 4 -21 10 -38 14 -38 4 0 14 -21 21
-46 14 -48 59 -88 87 -77 20 8 7 22 -15 16 -33 -9 -93 118 -116 247 -43 243
-25 447 53 608 22 46 22 51 1 25z"/>
<path d="M2871 2574 c0 -11 3 -14 6 -6 3 7 2 16 -1 19 -3 4 -6 -2 -5 -13z"/>
<path d="M2603 2551 c-18 -284 -8 -466 36 -678 12 -54 21 -114 21 -135 0 -21
4 -38 8 -38 13 0 4 114 -17 196 -32 129 -45 277 -37 451 3 87 9 172 12 189 4
21 2 33 -8 36 -8 4 -14 -3 -15 -21z"/>
<path d="M4100 2541 c0 -6 4 -13 10 -16 6 -3 7 1 4 9 -7 18 -14 21 -14 7z"/>
<path d="M2821 2424 c0 -11 3 -14 6 -6 3 7 2 16 -1 19 -3 4 -6 -2 -5 -13z"/>
<path d="M3923 2325 c0 -27 2 -38 4 -22 2 15 2 37 0 50 -2 12 -4 0 -4 -28z"/>
<path d="M2461 2344 c0 -11 3 -14 6 -6 3 7 2 16 -1 19 -3 4 -6 -2 -5 -13z"/>
<path d="M2821 2184 c0 -11 3 -14 6 -6 3 7 2 16 -1 19 -3 4 -6 -2 -5 -13z"/>
<path d="M3922 2180 c0 -14 2 -19 5 -12 2 6 2 18 0 25 -3 6 -5 1 -5 -13z"/>
<path d="M3922 2125 c0 -16 2 -22 5 -12 2 9 2 23 0 30 -3 6 -5 -1 -5 -18z"/>
<path d="M2441 2104 c0 -11 3 -14 6 -6 3 7 2 16 -1 19 -3 4 -6 -2 -5 -13z"/>
<path d="M2252 2060 c0 -14 2 -19 5 -12 2 6 2 18 0 25 -3 6 -5 1 -5 -13z"/>
<path d="M2842 2060 c0 -14 2 -19 5 -12 2 6 2 18 0 25 -3 6 -5 1 -5 -13z"/>
<path d="M3912 2035 c0 -16 2 -22 5 -12 2 9 2 23 0 30 -3 6 -5 -1 -5 -18z"/>
<path d="M2722 1998 c-1 -20 2 -39 7 -42 5 -3 12 -23 15 -43 15 -82 145 -398
146 -354 0 13 -39 102 -61 141 -16 28 -79 223 -79 245 0 8 -4 15 -9 15 -6 0
-12 17 -14 38 l-4 37 -1 -37z"/>
<path d="M1098 1993 c12 -2 32 -2 45 0 12 2 2 4 -23 4 -25 0 -35 -2 -22 -4z"/>
<path d="M1213 1993 c9 -2 25 -2 35 0 9 3 1 5 -18 5 -19 0 -27 -2 -17 -5z"/>
<path d="M2107 1972 c-11 -54 18 -398 34 -408 5 -3 9 -17 9 -32 0 -15 11 -70
24 -122 34 -130 37 -140 47 -140 5 0 9 -9 9 -20 0 -28 46 -138 96 -233 24 -44
44 -84 44 -89 0 -4 5 -8 10 -8 6 0 10 -9 10 -19 0 -11 3 -21 8 -23 4 -1 30
-36 57 -77 61 -90 205 -250 269 -299 16 -12 25 -22 20 -22 -5 0 11 -14 36 -30
25 -16 41 -30 36 -30 -5 0 10 -13 32 -30 23 -16 45 -30 50 -30 4 0 14 -9 22
-20 8 -11 20 -20 27 -20 16 0 17 -12 1 -30 -11 -12 -10 -12 4 -1 14 10 22 9
48 -4 18 -9 34 -14 37 -12 2 3 -5 8 -16 12 -12 3 -21 11 -21 16 0 5 -6 9 -13
9 -7 0 -33 17 -59 38 -25 20 -61 48 -79 62 -34 26 -126 108 -163 146 -66 66
-146 154 -174 190 -74 96 -192 290 -192 317 0 8 -4 17 -8 19 -13 5 -128 308
-116 308 2 0 0 8 -5 18 -28 52 -72 354 -73 494 0 54 -1 98 -3 98 -1 0 -5 -13
-8 -28z"/>
<path d="M2240 1985 c0 -8 5 -15 10 -15 6 0 10 7 10 15 0 8 -4 15 -10 15 -5 0
-10 -7 -10 -15z"/>
<path d="M4351 1974 c0 -11 3 -14 6 -6 3 7 2 16 -1 19 -3 4 -6 -2 -5 -13z"/>
<path d="M2052 1950 c0 -14 2 -19 5 -12 2 6 2 18 0 25 -3 6 -5 1 -5 -13z"/>
<path d="M2871 1954 c0 -11 3 -14 6 -6 3 7 2 16 -1 19 -3 4 -6 -2 -5 -13z"/>
<path d="M1847 1933 c-9 -9 -9 -41 1 -46 4 -3 7 8 8 24 1 31 1 32 -9 22z"/>
<path d="M2243 1890 c0 -25 2 -35 4 -22 2 12 2 32 0 45 -2 12 -4 2 -4 -23z"/>
<path d="M340 1896 c0 -2 7 -9 15 -16 9 -7 15 -8 15 -2 0 5 -7 12 -15 16 -8 3
-15 4 -15 2z"/>
<path d="M3865 1890 c-3 -5 -1 -10 4 -10 6 0 11 5 11 10 0 6 -2 10 -4 10 -3 0
-8 -4 -11 -10z"/>
<path d="M1832 1860 c0 -14 2 -19 5 -12 2 6 2 18 0 25 -3 6 -5 1 -5 -13z"/>
<path d="M1811 1780 c-12 -54 -14 -97 -6 -88 3 3 8 23 10 44 3 22 8 51 11 67
3 15 3 27 1 27 -3 0 -10 -23 -16 -50z"/>
<path d="M2250 1816 c0 -8 4 -17 9 -20 5 -4 7 3 4 14 -6 23 -13 26 -13 6z"/>
<path d="M2407 1811 c-4 -17 -3 -21 5 -13 5 5 8 16 6 23 -3 8 -7 3 -11 -10z"/>
<path d="M3822 1804 c-7 -8 -8 -14 -3 -14 10 0 25 19 20 25 -2 1 -10 -3 -17
-11z"/>
<path d="M480 1806 c0 -2 9 -6 20 -9 11 -3 18 -1 14 4 -5 9 -34 13 -34 5z"/>
<path d="M73 1755 c-7 -8 -9 -16 -4 -19 5 -3 12 1 15 10 8 22 4 25 -11 9z"/>
<path d="M2249 1714 c1 -24 6 -44 10 -44 8 0 1 79 -8 84 -3 2 -4 -16 -2 -40z"/>
<path d="M137 1735 c17 -30 103 -111 141 -132 34 -19 41 -20 46 -7 3 9 2 12
-4 9 -22 -13 -170 105 -170 135 0 6 -5 10 -10 10 -7 0 -8 -6 -3 -15z"/>
<path d="M718 1728 c6 -6 18 -8 28 -6 14 3 12 5 -9 10 -19 3 -25 2 -19 -4z"/>
<path d="M55 1700 c-7 -22 13 -87 33 -108 17 -18 15 -13 -9 37 -12 27 -18 53
-15 67 8 29 0 32 -9 4z"/>
<path d="M3750 1675 c-7 -9 -8 -15 -2 -15 5 0 12 7 16 15 3 8 4 15 2 15 -2 0
-9 -7 -16 -15z"/>
<path d="M1795 1670 c3 -5 8 -10 11 -10 2 0 4 5 4 10 0 6 -5 10 -11 10 -5 0
-7 -4 -4 -10z"/>
<path d="M1103 1653 c9 -2 25 -2 35 0 9 3 1 5 -18 5 -19 0 -27 -2 -17 -5z"/>
<path d="M2100 1651 c0 -6 4 -13 10 -16 6 -3 7 1 4 9 -7 18 -14 21 -14 7z"/>
<path d="M1338 1643 c7 -3 16 -2 19 1 4 3 -2 6 -13 5 -11 0 -14 -3 -6 -6z"/>
<path d="M1418 1633 c7 -3 16 -2 19 1 4 3 -2 6 -13 5 -11 0 -14 -3 -6 -6z"/>
<path d="M1792 1615 c0 -16 2 -22 5 -12 2 9 2 23 0 30 -3 6 -5 -1 -5 -18z"/>
<path d="M3677 1593 c-4 -3 -7 -11 -7 -17 0 -6 5 -5 12 2 6 6 9 14 7 17 -3 3
-9 2 -12 -2z"/>
<path d="M336 1582 c-5 -8 5 -18 31 -28 21 -8 52 -21 68 -29 69 -30 74 -23 6
10 -40 19 -77 35 -82 35 -4 0 -9 5 -11 12 -3 9 -6 9 -12 0z"/>
<path d="M110 1561 c0 -6 5 -11 11 -11 5 0 7 -4 4 -10 -3 -5 -1 -10 4 -10 16
0 13 16 -4 30 -10 9 -15 9 -15 1z"/>
<path d="M3110 1560 c8 -5 20 -10 25 -10 6 0 3 5 -5 10 -8 5 -19 10 -25 10 -5
0 -3 -5 5 -10z"/>
<path d="M2280 1551 c0 -6 4 -13 10 -16 6 -3 7 1 4 9 -7 18 -14 21 -14 7z"/>
<path d="M2900 1539 c0 -9 12 -34 26 -55 15 -21 30 -50 34 -64 4 -16 8 -20 11
-10 3 8 -12 44 -33 80 -21 36 -38 58 -38 49z"/>
<path d="M1780 1524 c0 -8 5 -12 10 -9 6 3 10 10 10 16 0 5 -4 9 -10 9 -5 0
-10 -7 -10 -16z"/>
<path d="M3148 1533 c7 -3 16 -2 19 1 4 3 -2 6 -13 5 -11 0 -14 -3 -6 -6z"/>
<path d="M3608 1533 c7 -3 16 -2 19 1 4 3 -2 6 -13 5 -11 0 -14 -3 -6 -6z"/>
<path d="M150 1514 c0 -11 59 -68 65 -62 3 2 -11 20 -30 38 -19 19 -35 30 -35
24z"/>
<path d="M2296 1505 c4 -8 8 -15 10 -15 2 0 4 7 4 15 0 8 -4 15 -10 15 -5 0
-7 -7 -4 -15z"/>
<path d="M3194 1511 c6 -9 66 -33 66 -26 0 4 -60 35 -67 35 -2 0 -2 -4 1 -9z"/>
<path d="M520 1493 c0 -9 122 -74 128 -69 2 2 -19 17 -47 33 -28 15 -51 31
-51 36 0 4 -7 7 -15 7 -8 0 -15 -3 -15 -7z"/>
<path d="M3286 1468 c3 -5 10 -6 15 -3 13 9 11 12 -6 12 -8 0 -12 -4 -9 -9z"/>
<path d="M3478 1473 c6 -2 18 -2 25 0 6 3 1 5 -13 5 -14 0 -19 -2 -12 -5z"/>
<path d="M4792 1455 c0 -16 2 -22 5 -12 2 9 2 23 0 30 -3 6 -5 -1 -5 -18z"/>
<path d="M3408 1453 c6 -2 18 -2 25 0 6 3 1 5 -13 5 -14 0 -19 -2 -12 -5z"/>
<path d="M232 1438 c2 -7 40 -39 84 -70 43 -32 78 -63 76 -69 -1 -6 2 -8 8 -4
18 11 10 23 -35 49 -25 15 -45 32 -45 38 0 6 -3 9 -6 5 -6 -6 -19 2 -61 41
-14 13 -23 17 -21 10z"/>
<path d="M2326 1430 c3 -14 11 -32 16 -40 6 -10 7 -7 2 10 -3 14 -11 32 -16
40 -6 10 -7 7 -2 -10z"/>
<path d="M689 1376 c19 -20 39 -36 45 -36 13 0 -34 49 -59 62 -12 6 -6 -4 14
-26z"/>
<path d="M2986 1388 c42 -69 64 -100 64 -89 0 18 -52 101 -63 101 -5 0 -5 -6
-1 -12z"/>
<path d="M2466 1365 c-9 -26 -7 -32 5 -12 6 10 9 21 6 23 -2 3 -7 -2 -11 -11z"/>
<path d="M4792 1350 c0 -19 2 -27 5 -17 2 9 2 25 0 35 -3 9 -5 1 -5 -18z"/>
<path d="M1817 1350 c19 -22 26 -21 17 4 -3 9 -12 16 -20 16 -11 0 -10 -4 3
-20z"/>
<path d="M2350 1360 c0 -5 5 -10 11 -10 5 0 7 5 4 10 -3 6 -8 10 -11 10 -2 0
-4 -4 -4 -10z"/>
<path d="M741 1325 c0 -5 6 -19 14 -29 8 -11 15 -15 15 -10 0 6 -7 19 -15 30
-8 10 -14 15 -14 9z"/>
<path d="M1858 1323 c-20 -5 -25 -33 -7 -33 7 0 9 -10 7 -24 -5 -27 11 -39 33
-25 11 7 11 9 -3 9 -13 0 -18 8 -18 31 0 20 4 29 13 26 6 -2 12 -14 11 -26 0
-11 5 -21 13 -21 20 0 15 31 -9 51 -11 11 -21 18 -22 18 -1 -1 -9 -3 -18 -6z"/>
<path d="M225 1293 c8 -18 18 -33 20 -33 10 0 4 16 -16 40 l-20 25 16 -32z"/>
<path d="M2375 1310 c3 -5 8 -10 11 -10 2 0 4 5 4 10 0 6 -5 10 -11 10 -5 0
-7 -4 -4 -10z"/>
<path d="M425 1300 c9 -15 87 -50 83 -38 -3 7 -23 20 -47 30 -23 9 -39 13 -36
8z"/>
<path d="M1280 1280 c0 -13 7 -20 20 -20 13 0 20 7 20 20 0 13 -7 20 -20 20
-13 0 -20 -7 -20 -20z"/>
<path d="M1580 1279 c-15 -27 5 -51 39 -47 19 2 27 10 29 27 6 41 -48 57 -68
20z m53 -5 c9 -10 -4 -34 -18 -34 -17 0 -28 17 -20 30 7 11 28 13 38 4z"/>
<path d="M2391 1283 c0 -4 4 -17 9 -28 8 -19 9 -19 9 2 1 12 -3 25 -9 28 -5 3
-10 3 -9 -2z"/>
<path d="M3060 1286 c0 -7 53 -87 75 -112 6 -7 21 -26 35 -44 14 -18 37 -46
53 -63 15 -17 27 -35 27 -39 0 -5 7 -8 15 -8 8 0 15 -4 15 -8 0 -5 20 -30 45
-55 25 -26 45 -43 45 -39 0 5 -38 49 -85 98 -46 49 -84 93 -85 97 0 5 -28 43
-62 85 -77 97 -78 98 -78 88z"/>
<path d="M260 1253 c0 -21 263 -168 285 -159 6 3 2 5 -9 5 -11 1 -16 6 -13 15
3 7 0 13 -6 13 -32 -1 -48 4 -42 13 3 5 0 7 -8 4 -7 -2 -42 13 -78 36 -35 22
-71 43 -79 47 -8 3 -23 13 -32 21 -10 8 -18 11 -18 5z"/>
<path d="M548 1243 c7 -3 16 -2 19 1 4 3 -2 6 -13 5 -11 0 -14 -3 -6 -6z"/>
<path d="M590 1230 c19 -13 30 -13 30 0 0 6 -10 10 -22 10 -19 0 -20 -2 -8
-10z"/>
<path d="M657 1219 c7 -7 15 -10 18 -7 3 3 -2 9 -12 12 -14 6 -15 5 -6 -5z"/>
<path d="M720 1220 c-23 -7 -23 -8 -3 -9 12 -1 25 4 28 9 3 6 5 10 3 9 -2 -1
-14 -5 -28 -9z"/>
<path d="M914 1195 c-7 -18 3 -35 21 -35 15 0 28 27 19 41 -8 14 -34 11 -40
-6z"/>
<path d="M1740 1189 c-9 -16 -8 -26 5 -45 8 -13 22 -24 30 -24 19 0 45 28 45
49 0 41 -61 57 -80 20z m55 -9 c8 -24 -1 -40 -21 -40 -20 0 -29 27 -14 45 17
20 27 19 35 -5z"/>
<path d="M2430 1202 c0 -12 19 -26 26 -19 2 2 -2 10 -11 17 -9 8 -15 8 -15 2z"/>
<path d="M4782 1180 c0 -14 2 -19 5 -12 2 6 2 18 0 25 -3 6 -5 1 -5 -13z"/>
<path d="M2852 1182 c-15 -10 -5 -42 13 -42 18 0 26 15 19 34 -7 18 -13 19
-32 8z"/>
<path d="M2470 1135 c0 -5 5 -17 10 -25 5 -8 10 -10 10 -5 0 6 -5 17 -10 25
-5 8 -10 11 -10 5z"/>
<path d="M4315 1129 c-4 -6 -5 -12 -2 -15 2 -3 7 2 10 11 7 17 1 20 -8 4z"/>
<path d="M4765 1129 c-4 -6 -5 -12 -2 -15 2 -3 7 2 10 11 7 17 1 20 -8 4z"/>
<path d="M1337 1124 c-4 -4 -7 -18 -7 -31 0 -21 4 -24 28 -21 21 2 27 8 27 28
0 18 -6 26 -20 28 -12 2 -24 0 -28 -4z m43 -24 c0 -4 -7 -10 -15 -14 -10 -4
-15 1 -15 14 0 13 5 18 15 14 8 -4 15 -10 15 -14z"/>
<path d="M3051 1092 c-8 -15 -7 -21 4 -26 22 -8 46 4 43 23 -5 23 -35 25 -47
3z"/>
<path d="M560 1089 c0 -5 19 -14 43 -20 52 -15 49 -14 67 -22 36 -14 88 -27
125 -31 l40 -5 -35 10 c-19 6 -81 25 -137 43 -57 18 -103 29 -103 25z"/>
<path d="M2505 1070 c10 -11 20 -20 22 -20 2 0 -2 9 -9 20 -7 11 -17 20 -22
20 -5 0 -1 -9 9 -20z"/>
<path d="M4741 1034 c0 -11 3 -14 6 -6 3 7 2 16 -1 19 -3 4 -6 -2 -5 -13z"/>
<path d="M2547 1013 c24 -39 25 -40 21 -18 -3 20 -21 45 -33 45 -3 0 2 -12 12
-27z"/>
<path d="M840 1010 c0 -6 7 -10 15 -10 8 0 15 2 15 4 0 2 -7 6 -15 10 -8 3
-15 1 -15 -4z"/>
<path d="M880 999 c0 -6 42 -17 100 -24 14 -2 54 -8 90 -14 86 -13 200 -20
462 -26 119 -4 232 -10 250 -16 41 -11 44 -11 33 0 -15 15 -54 19 -225 26
-350 13 -398 15 -465 21 -38 3 -109 14 -157 23 -49 10 -88 14 -88 10z"/>
<path d="M2580 973 c0 -15 19 -37 26 -31 3 4 -1 14 -10 23 -9 9 -16 13 -16 8z"/>
<path d="M4701 954 c0 -11 3 -14 6 -6 3 7 2 16 -1 19 -3 4 -6 -2 -5 -13z"/>
<path d="M520 950 c8 -6 24 -15 35 -21 16 -8 15 -6 -4 10 -13 12 -28 21 -35
21 -6 0 -4 -5 4 -10z"/>
<path d="M260 941 c0 -6 4 -11 8 -11 5 0 18 -9 31 -21 12 -12 24 -19 27 -16 2
2 -11 16 -31 31 -19 15 -35 22 -35 17z"/>
<path d="M3082 938 c-7 -7 -12 -22 -12 -35 0 -29 36 -46 62 -29 33 20 16 76
-22 76 -9 0 -21 -5 -28 -12z m46 -30 c-2 -13 -11 -24 -21 -26 -22 -4 -35 27
-16 39 25 16 41 10 37 -13z"/>
<path d="M582 932 c4 -16 68 -46 68 -33 0 10 -31 25 -44 22 -5 -1 -13 4 -18
11 -8 11 -9 10 -6 0z"/>
<path d="M3380 902 c0 -4 9 -13 20 -20 23 -14 26 -7 6 14 -16 15 -26 18 -26 6z"/>
<path d="M660 891 c0 -4 21 -13 48 -20 26 -8 60 -20 76 -28 17 -9 25 -10 21
-3 -11 17 -145 65 -145 51z"/>
<path d="M346 877 c5 -13 166 -87 187 -86 6 0 -6 7 -28 16 -22 9 -68 31 -102
49 -34 18 -60 27 -57 21z"/>
<path d="M2656 873 c-11 -11 -6 -23 9 -23 8 0 15 4 15 9 0 13 -16 22 -24 14z"/>
<path d="M3430 861 c0 -6 4 -13 10 -16 6 -3 7 1 4 9 -7 18 -14 21 -14 7z"/>
<path d="M2680 836 c0 -2 7 -9 15 -16 13 -11 14 -10 9 4 -5 14 -24 23 -24 12z"/>
<path d="M3470 825 c7 -8 17 -15 22 -15 5 0 3 7 -6 15 -8 8 -18 15 -22 15 -3
0 -1 -7 6 -15z"/>
<path d="M2850 826 c0 -2 8 -10 18 -17 15 -13 16 -12 3 4 -13 16 -21 21 -21
13z"/>
<path d="M1821 787 c-19 -24 -10 -52 18 -52 31 0 36 16 13 45 -16 20 -19 20
-31 7z m29 -28 c0 -5 -4 -9 -10 -9 -5 0 -10 7 -10 16 0 8 5 12 10 9 6 -3 10
-10 10 -16z"/>
<path d="M806 783 c-4 -5 -24 -13 -44 -19 -26 -9 -31 -12 -15 -13 26 -1 73 19
73 31 0 10 -4 10 -14 1z"/>
<path d="M590 770 c8 -5 26 -10 41 -10 14 0 30 -5 36 -11 7 -7 13 -7 17 -1 4
6 -15 15 -44 21 -62 13 -69 13 -50 1z"/>
<path d="M1353 773 c-18 -7 -16 -48 2 -63 19 -16 65 1 65 24 0 40 -27 56 -67
39z m45 -26 c4 -21 -25 -34 -40 -19 -8 8 -8 16 2 27 16 19 34 15 38 -8z"/>
<path d="M1897 767 c-3 -8 -1 -20 4 -28 6 -10 9 -7 9 14 0 29 -5 35 -13 14z"/>
<path d="M3535 770 c-5 -9 65 -57 78 -52 4 1 7 -2 7 -7 0 -6 11 -16 24 -23 13
-7 43 -24 67 -37 24 -13 46 -26 49 -30 10 -12 115 -60 145 -66 17 -3 -4 9 -45
28 -92 43 -143 72 -201 115 -77 57 -118 81 -124 72z"/>
<path d="M2006 763 c-3 -4 -6 -15 -6 -25 0 -24 33 -21 38 3 3 17 -21 33 -32
22z m11 -25 c-3 -8 -6 -5 -6 6 -1 11 2 17 5 13 3 -3 4 -12 1 -19z"/>
<path d="M2740 760 c8 -5 20 -10 25 -10 6 0 3 5 -5 10 -8 5 -19 10 -25 10 -5
0 -3 -5 5 -10z"/>
<path d="M3254 755 c-8 -21 2 -45 19 -45 21 0 38 25 31 44 -8 20 -43 21 -50 1z
m36 -15 c0 -5 -4 -10 -10 -10 -5 0 -10 5 -10 10 0 6 5 10 10 10 6 0 10 -4 10
-10z"/>
<path d="M4525 760 c-3 -5 -1 -10 4 -10 6 0 11 5 11 10 0 6 -2 10 -4 10 -3 0
-8 -4 -11 -10z"/>
<path d="M3420 744 c-18 -20 6 -50 26 -33 8 6 14 17 14 24 0 19 -27 26 -40 9z"/>
<path d="M1176 741 c-10 -16 5 -40 25 -38 14 1 19 7 17 22 -3 21 -32 33 -42
16z"/>
<path d="M1620 735 c-10 -12 -10 -18 0 -31 11 -13 15 -13 27 -1 13 13 8 47 -7
47 -4 0 -13 -7 -20 -15z"/>
<path d="M1888 675 c-4 -20 -3 -23 8 -14 16 13 19 39 5 39 -5 0 -11 -11 -13
-25z"/>
<path d="M4385 690 c-13 -6 -15 -9 -5 -9 8 0 22 4 30 9 18 12 2 12 -25 0z"/>
<path d="M4705 648 c-24 -24 -30 -33 -14 -23 23 17 65 65 56 65 -1 0 -21 -19
-42 -42z"/>
<path d="M2700 662 c-40 -32 -3 -84 49 -67 27 8 34 34 16 61 -19 29 -35 30
-65 6z m54 -19 c10 -24 -12 -45 -35 -32 -22 11 -24 24 -7 43 15 16 34 11 42
-11z"/>
<path d="M2845 660 c3 -5 8 -10 11 -10 2 0 4 5 4 10 0 6 -5 10 -11 10 -5 0 -7
-4 -4 -10z"/>
<path d="M3908 653 c6 -2 18 -2 25 0 6 3 1 5 -13 5 -14 0 -19 -2 -12 -5z"/>
<path d="M1445 640 c-4 -7 -3 -16 3 -22 14 -14 45 -2 40 15 -6 16 -34 21 -43
7z"/>
<path d="M3160 636 c0 -2 7 -7 16 -10 8 -3 12 -2 9 4 -6 10 -25 14 -25 6z"/>
<path d="M2853 623 c-27 -10 -7 -63 24 -63 7 0 19 12 25 26 10 21 9 27 -3 35
-15 9 -27 10 -46 2z m37 -18 c10 -12 9 -16 -5 -21 -17 -7 -38 13 -29 28 8 12
20 10 34 -7z"/>
<path d="M3450 600 c-8 -5 -10 -10 -5 -10 6 0 17 5 25 10 8 5 11 10 5 10 -5 0
-17 -5 -25 -10z"/>
<path d="M4635 589 c-4 -6 -5 -12 -2 -15 2 -3 7 2 10 11 7 17 1 20 -8 4z"/>
<path d="M2930 586 c0 -2 7 -9 15 -16 13 -11 14 -10 9 4 -5 14 -24 23 -24 12z"/>
<path d="M2970 560 c0 -5 5 -10 11 -10 5 0 7 5 4 10 -3 6 -8 10 -11 10 -2 0
-4 -4 -4 -10z"/>
<path d="M4585 558 c-23 -14 -49 -38 -40 -38 3 0 23 11 43 25 37 25 35 35 -3
13z"/>
<path d="M3560 550 c-12 -7 -12 -13 -4 -27 13 -22 34 -26 54 -13 12 7 12 13 4
27 -13 22 -34 26 -54 13z m38 -30 c-2 -6 -8 -6 -18 0 -13 9 -13 11 0 20 15 10
25 0 18 -20z"/>
<path d="M3940 544 c0 -7 74 -35 87 -32 7 2 -10 10 -37 20 -28 9 -50 14 -50
12z"/>
<path d="M2990 531 c0 -5 7 -11 14 -14 10 -4 13 -1 9 9 -6 15 -23 19 -23 5z"/>
<path d="M3310 510 c0 -5 -10 -18 -22 -30 -12 -11 -19 -20 -15 -20 8 0 57 46
57 54 0 3 -4 6 -10 6 -5 0 -10 -4 -10 -10z"/>
<path d="M4466 504 c-99 -36 -224 -39 -350 -8 -32 9 -60 13 -63 11 -2 -3 29
-13 69 -23 110 -28 263 -24 348 9 68 27 64 35 -4 11z"/>
<path d="M3035 498 c6 -16 45 -42 52 -35 2 3 -10 15 -26 27 -18 12 -29 16 -26
8z"/>
<path d="M3755 480 c-7 -12 3 -50 13 -50 18 1 34 19 30 36 -4 21 -33 31 -43
14z m25 -20 c0 -5 -4 -10 -10 -10 -5 0 -10 5 -10 10 0 6 5 10 10 10 6 0 10 -4
10 -10z"/>
<path d="M2876 455 c-3 -9 1 -18 10 -22 19 -7 39 11 30 26 -10 16 -33 13 -40
-4z"/>
<path d="M3238 453 c7 -3 16 -2 19 1 4 3 -2 6 -13 5 -11 0 -14 -3 -6 -6z"/>
<path d="M3113 403 c-13 -9 -23 -22 -23 -29 0 -21 17 -17 23 6 3 13 10 18 21
14 9 -3 16 -1 16 4 0 19 -14 20 -37 5z"/>
<path d="M3160 372 c0 -34 14 -43 24 -15 4 9 0 23 -9 32 -13 14 -15 12 -15
-17z"/>
<path d="M3110 340 c0 -5 9 -10 20 -10 11 0 20 5 20 10 0 6 -9 10 -20 10 -11
0 -20 -4 -20 -10z"/>
<path d="M3420 340 c-9 -6 -10 -10 -3 -10 6 0 15 5 18 10 8 12 4 12 -15 0z"/>
<path d="M3303 219 c-15 -15 -5 -39 17 -39 22 0 32 24 17 39 -6 6 -14 11 -17
11 -3 0 -11 -5 -17 -11z"/>
<path d="M3140 200 c8 -5 20 -10 25 -10 6 0 3 5 -5 10 -8 5 -19 10 -25 10 -5
0 -3 -5 5 -10z"/>
<path d="M2910 169 c0 -5 5 -7 10 -4 6 3 10 8 10 11 0 2 -4 4 -10 4 -5 0 -10
-5 -10 -11z"/>
<path d="M3513 164 c-8 -21 13 -42 28 -27 13 13 5 43 -11 43 -6 0 -13 -7 -17
-16z"/>
<path d="M3345 130 c3 -5 8 -10 11 -10 2 0 4 5 4 10 0 6 -5 10 -11 10 -5 0 -7
-4 -4 -10z"/>
<path d="M3598 103 c6 -2 18 -2 25 0 6 3 1 5 -13 5 -14 0 -19 -2 -12 -5z"/>
</g>
</svg>
