<?xml version="1.0" standalone="no"?>
<!DOCTYPE svg PUBLIC "-//W3C//DTD SVG 20010904//EN"
 "http://www.w3.org/TR/2001/REC-SVG-20010904/DTD/svg10.dtd">
<svg version="1.0" xmlns="http://www.w3.org/2000/svg"
 width="600.000000pt" height="600.000000pt" viewBox="0 0 600.000000 600.000000"
 preserveAspectRatio="xMidYMid meet">
<g transform="translate(0.000000,600.000000) scale(0.100000,-0.100000)"
fill="#000000" stroke="none">
<path d="M3142 5210 c-95 -45 -167 -60 -284 -60 -178 0 -257 -31 -443 -176
-168 -130 -315 -264 -401 -365 -205 -242 -394 -593 -483 -899 -17 -58 -40
-132 -51 -165 -12 -33 -45 -144 -75 -247 -155 -540 -241 -1142 -206 -1435 33
-270 138 -495 304 -648 170 -159 270 -205 788 -370 96 -30 213 -63 260 -71
115 -22 297 -15 393 16 80 25 186 79 193 97 3 7 9 13 15 13 5 0 6 -6 2 -12 -4
-8 -3 -10 2 -5 5 5 9 14 9 20 0 7 9 10 20 9 11 -2 17 -1 13 4 -8 7 80 93 95
94 5 0 -10 -16 -33 -35 -23 -19 -38 -35 -32 -35 10 0 221 199 211 200 -4 0
-36 -30 -73 -68 -36 -37 -66 -62 -66 -57 0 6 34 44 76 85 42 41 73 68 68 60
-7 -13 -5 -13 9 -1 9 7 14 18 11 23 -7 10 65 90 75 84 3 -2 13 3 21 12 13 14
12 15 -3 9 -24 -9 -22 -5 14 29 30 28 31 28 19 4 -8 -17 -9 -21 -1 -14 6 6 14
21 16 34 5 24 25 52 25 35 0 -6 6 1 13 15 8 14 18 24 24 23 6 -1 14 4 17 13 4
10 2 13 -7 8 -8 -5 -7 -2 2 9 8 10 16 15 19 12 8 -8 32 16 26 26 -3 5 2 16 10
25 9 8 16 12 16 8 0 -3 7 -1 15 6 9 7 14 19 11 27 -3 8 -1 11 4 8 6 -3 10 0
10 7 0 8 8 21 18 29 25 23 82 88 82 94 0 6 81 116 91 125 18 15 182 261 270
407 140 231 285 530 358 737 47 133 74 251 137 586 48 258 57 324 58 430 1
164 -15 203 -131 308 -95 86 -128 141 -144 243 -21 134 -65 183 -200 220 -39
11 -85 27 -102 35 -58 31 -127 106 -170 187 -33 63 -52 86 -87 109 -67 43
-113 52 -190 39 -99 -18 -140 -19 -195 -6 -54 12 -155 62 -155 77 0 4 -5 8
-12 8 -6 0 -19 6 -27 13 -23 19 -91 37 -142 37 -28 0 -67 -11 -107 -30z m195
-18 c18 -9 59 -33 91 -53 110 -68 205 -84 349 -57 54 10 71 9 117 -5 65 -21
91 -46 136 -132 41 -78 113 -156 173 -187 23 -11 81 -34 129 -49 129 -42 151
-66 168 -190 15 -105 42 -151 151 -259 75 -75 99 -105 112 -144 32 -95 21
-221 -59 -646 -79 -423 -124 -562 -294 -900 -75 -149 -102 -200 -185 -340 -50
-85 -218 -334 -260 -385 -37 -46 -60 -86 -57 -98 1 -5 -1 -6 -6 -3 -5 3 -51
-48 -103 -112 -51 -64 -136 -165 -187 -225 -51 -59 -90 -112 -87 -117 4 -6 2
-9 -3 -8 -5 2 -76 -65 -158 -148 -197 -199 -276 -259 -414 -312 -54 -20 -89
-25 -198 -29 -132 -5 -207 3 -302 32 -248 76 -542 175 -614 206 -240 104 -426
282 -520 497 -88 202 -119 489 -81 767 9 61 22 166 31 235 40 318 192 904 346
1330 118 324 342 672 565 876 182 166 362 305 453 348 61 28 75 31 220 37 165
7 195 13 293 60 73 34 144 38 194 11z"/>
<path d="M3130 5140 c-9 -6 -10 -10 -3 -10 6 0 15 5 18 10 8 12 4 12 -15 0z"/>
<path d="M2642 5070 c-38 -21 -72 -44 -116 -81 -17 -14 -42 -34 -55 -45 -122
-96 -270 -237 -354 -336 -20 -23 -42 -49 -49 -57 -28 -33 -178 -265 -184 -284
-4 -12 -10 -24 -14 -27 -8 -5 -105 -207 -132 -275 -29 -70 -66 -178 -84 -240
-9 -33 -34 -116 -55 -185 -21 -69 -50 -168 -64 -220 -14 -52 -30 -109 -35
-126 -5 -16 -14 -50 -19 -75 -5 -24 -17 -75 -26 -114 -41 -182 -50 -228 -75
-410 -11 -82 -27 -196 -36 -251 -23 -157 -20 -450 7 -578 49 -236 119 -373
266 -523 137 -139 270 -212 550 -304 87 -28 211 -69 275 -90 65 -22 130 -39
145 -38 26 1 26 2 -7 11 -102 29 -137 40 -160 49 -104 45 -150 60 -161 53 -5
-3 -9 0 -9 5 0 6 -10 11 -22 11 -13 0 -32 7 -42 15 -24 18 -40 19 -30 2 4 -6
-1 -5 -12 4 -10 9 -53 27 -94 40 -41 13 -78 28 -82 34 -4 5 -8 7 -8 2 0 -4
-22 4 -50 19 -27 14 -56 27 -63 28 -25 3 -87 56 -88 74 0 10 -3 12 -6 5 -3 -8
-26 6 -63 39 -33 28 -57 55 -54 60 3 4 -3 5 -13 1 -10 -3 -15 -3 -12 1 4 4 -8
23 -27 43 -19 19 -31 41 -27 47 3 6 2 8 -2 3 -13 -12 -86 105 -79 128 4 14 3
16 -4 7 -8 -11 -10 -11 -15 2 -3 8 -1 17 6 20 7 3 6 5 -3 5 -18 1 -43 58 -33
75 3 6 2 8 -2 3 -10 -9 -48 132 -40 151 3 7 1 11 -4 8 -14 -9 -33 170 -33 318
0 147 16 302 34 323 5 7 8 32 5 55 -3 24 1 73 9 110 9 37 13 72 10 77 -4 5 -1
13 5 16 6 4 8 18 5 30 -3 13 -2 34 3 47 8 23 22 94 25 133 0 11 4 22 8 25 4 3
9 29 13 59 3 29 12 71 20 94 8 22 12 44 9 48 -2 4 0 18 5 31 5 13 15 44 22 71
8 26 17 47 21 47 5 0 8 12 7 28 -1 15 8 56 19 91 12 35 22 69 22 75 0 20 54
181 62 184 4 2 8 18 8 36 0 17 9 57 20 89 11 31 22 65 24 74 6 33 25 69 25 51
1 -9 5 -19 11 -23 5 -3 5 8 -2 26 -8 22 -8 33 0 38 6 3 13 19 16 33 2 15 11
40 20 55 8 16 29 62 47 103 18 41 44 89 56 106 13 17 23 36 23 42 0 22 55 102
67 98 8 -3 10 1 6 11 -4 10 -2 14 4 10 7 -5 9 0 6 12 -3 11 4 28 16 40 12 12
26 33 31 47 6 14 14 22 20 19 5 -3 10 -1 10 4 0 21 55 90 68 86 7 -3 10 0 7 5
-10 15 75 112 92 106 8 -3 11 -2 8 4 -8 13 37 62 52 56 7 -3 15 -1 18 4 4 6 1
10 -5 10 -6 0 -8 5 -5 10 4 6 9 9 13 7 10 -5 42 30 35 37 -4 3 1 6 10 6 9 0
31 16 48 35 18 19 36 32 41 29 5 -3 7 0 6 7 -2 7 8 18 22 25 14 7 33 23 42 35
10 12 24 19 33 15 8 -3 14 -2 14 2 -3 20 3 30 29 41 15 7 34 19 42 27 8 8 26
23 40 34 31 24 17 24 -28 0z"/>
<path d="M4017 4895 c-4 -8 -3 -16 1 -19 4 -3 9 4 9 15 2 23 -3 25 -10 4z"/>
<path d="M2833 4852 c-18 -41 -227 -586 -329 -857 -44 -119 -223 -655 -275
-825 -116 -379 -294 -1019 -279 -1003 4 4 29 82 55 173 25 91 50 176 55 190 5
14 16 52 26 85 55 193 166 543 309 970 186 558 285 835 425 1198 43 112 51
152 13 69z"/>
<path d="M4021 4844 c0 -11 3 -14 6 -6 3 7 2 16 -1 19 -3 4 -6 -2 -5 -13z"/>
<path d="M3416 4688 c-22 -57 -58 -155 -82 -218 -58 -156 -81 -216 -164 -425
-39 -99 -91 -229 -114 -290 -67 -170 -227 -567 -284 -700 -28 -66 -81 -192
-117 -280 -122 -294 -227 -538 -326 -762 -55 -122 -99 -228 -99 -235 0 -15
158 327 367 797 78 175 323 763 400 960 41 105 80 204 87 220 8 17 30 75 51
130 20 55 61 165 90 245 30 80 95 255 144 390 50 135 90 239 91 231 0 -8 2
-12 5 -9 3 3 2 15 -3 27 -6 18 -14 4 -46 -81z"/>
<path d="M2861 4744 c0 -11 3 -14 6 -6 3 7 2 16 -1 19 -3 4 -6 -2 -5 -13z"/>
<path d="M3410 4560 c-9 -6 -10 -10 -3 -10 6 0 15 5 18 10 8 12 4 12 -15 0z"/>
<path d="M2068 4293 c-189 -475 -338 -925 -467 -1408 -22 -82 -43 -159 -47
-170 -5 -14 -4 -17 3 -10 6 6 25 60 43 120 137 469 385 1211 524 1574 20 52
35 98 34 103 -2 5 -42 -89 -90 -209z"/>
<path d="M2096 4467 c3 -10 9 -15 12 -12 3 3 0 11 -7 18 -10 9 -11 8 -5 -6z"/>
<path d="M4056 4428 c-3 -13 -2 -26 2 -30 4 -4 8 6 9 23 3 35 -2 38 -11 7z"/>
<path d="M4031 4369 c-5 -13 -36 -82 -70 -153 -33 -70 -61 -130 -61 -133 0 -8
-400 -810 -478 -958 -37 -71 -86 -164 -107 -205 -62 -119 -238 -447 -315 -586
-38 -70 -70 -129 -70 -131 0 -2 -10 -20 -23 -41 -13 -20 -39 -66 -58 -102 -20
-36 -70 -125 -113 -197 -43 -73 -76 -138 -73 -145 4 -10 6 -10 6 1 1 8 25 53
55 100 77 125 310 523 374 641 48 89 83 153 102 185 81 136 417 796 560 1100
73 154 170 365 170 369 0 2 20 46 44 97 59 127 77 171 71 177 -2 3 -9 -6 -14
-19z"/>
<path d="M4675 4200 c10 -11 20 -20 23 -20 3 0 -3 9 -13 20 -10 11 -20 20 -23
20 -3 0 3 -9 13 -20z"/>
<path d="M4656 4186 c3 -8 13 -17 21 -20 25 -10 23 -3 -3 17 -18 13 -22 14
-18 3z"/>
<path d="M2492 4140 c0 -14 2 -19 5 -12 2 6 2 18 0 25 -3 6 -5 1 -5 -13z"/>
<path d="M1965 4129 c-4 -6 -5 -12 -2 -15 2 -3 7 2 10 11 7 17 1 20 -8 4z"/>
<path d="M4720 4131 c0 -6 4 -13 10 -16 6 -3 7 1 4 9 -7 18 -14 21 -14 7z"/>
<path d="M3257 4091 c-4 -17 -3 -21 5 -13 5 5 8 16 6 23 -3 8 -7 3 -11 -10z"/>
<path d="M4456 3958 c-21 -62 -71 -198 -113 -303 -75 -189 -85 -214 -149 -353
-19 -41 -34 -76 -34 -79 0 -16 -259 -515 -335 -645 -96 -163 -130 -220 -188
-313 -113 -180 -197 -296 -209 -289 -7 4 -8 2 -4 -5 4 -6 -12 -39 -38 -76 -25
-36 -42 -65 -38 -65 4 0 13 10 21 21 8 14 15 18 20 11 4 -7 12 -3 20 11 13 20
13 21 -2 8 -31 -25 -17 -1 61 107 149 204 330 483 433 669 18 32 41 74 52 93
34 60 171 332 204 405 17 39 45 100 62 138 52 114 177 442 235 616 18 56 35
99 37 97 2 -2 5 11 6 30 1 19 0 34 -1 34 -2 0 -20 -51 -40 -112z"/>
<path d="M4526 4013 c-6 -14 -5 -15 5 -6 7 7 10 15 7 18 -3 3 -9 -2 -12 -12z"/>
<path d="M3806 3787 c3 -10 9 -15 12 -12 3 3 0 11 -7 18 -10 9 -11 8 -5 -6z"/>
<path d="M2977 3691 c-4 -17 -3 -21 5 -13 5 5 8 16 6 23 -3 8 -7 3 -11 -10z"/>
<path d="M1641 3534 c0 -11 3 -14 6 -6 3 7 2 16 -1 19 -3 4 -6 -2 -5 -13z"/>
<path d="M3009 3453 c-13 -16 -12 -17 4 -4 9 7 17 15 17 17 0 8 -8 3 -21 -13z"/>
<path d="M1821 3344 c0 -11 3 -14 6 -6 3 7 2 16 -1 19 -3 4 -6 -2 -5 -13z"/>
<path d="M3470 3340 c0 -5 5 -10 11 -10 5 0 7 5 4 10 -3 6 -8 10 -11 10 -2 0
-4 -4 -4 -10z"/>
<path d="M1631 3144 c0 -11 3 -14 6 -6 3 7 2 16 -1 19 -3 4 -6 -2 -5 -13z"/>
<path d="M4041 3044 c0 -11 3 -14 6 -6 3 7 2 16 -1 19 -3 4 -6 -2 -5 -13z"/>
<path d="M4013 3029 c-2 -23 3 -25 10 -4 4 8 3 16 -1 19 -4 3 -9 -4 -9 -15z"/>
<path d="M3941 2904 c0 -11 3 -14 6 -6 3 7 2 16 -1 19 -3 4 -6 -2 -5 -13z"/>
<path d="M1545 2850 c3 -5 8 -10 11 -10 2 0 4 5 4 10 0 6 -5 10 -11 10 -5 0
-7 -4 -4 -10z"/>
<path d="M3830 2716 c0 -2 8 -10 18 -17 15 -13 16 -12 3 4 -13 16 -21 21 -21
13z"/>
<path d="M3765 2569 c-4 -6 -5 -12 -2 -15 2 -3 7 2 10 11 7 17 1 20 -8 4z"/>
<path d="M1402 2480 c0 -14 2 -19 5 -12 2 6 2 18 0 25 -3 6 -5 1 -5 -13z"/>
<path d="M3696 2447 c3 -10 9 -15 12 -12 3 3 0 11 -7 18 -10 9 -11 8 -5 -6z"/>
<path d="M3686 2403 c-6 -14 -5 -15 5 -6 7 7 10 15 7 18 -3 3 -9 -2 -12 -12z"/>
<path d="M4260 2349 c-7 -11 -10 -23 -7 -25 2 -2 9 7 15 21 14 30 7 33 -8 4z"/>
<path d="M2526 2323 c-6 -14 -5 -15 5 -6 7 7 10 15 7 18 -3 3 -9 -2 -12 -12z"/>
<path d="M4200 2259 c0 -5 5 -7 10 -4 6 3 10 8 10 11 0 2 -4 4 -10 4 -5 0 -10
-5 -10 -11z"/>
<path d="M2455 2159 c-4 -6 -5 -12 -2 -15 2 -3 7 2 10 11 7 17 1 20 -8 4z"/>
<path d="M2941 2144 c0 -11 3 -14 6 -6 3 7 2 16 -1 19 -3 4 -6 -2 -5 -13z"/>
<path d="M4125 2149 c-3 -4 2 -6 10 -5 21 3 28 13 10 13 -9 0 -18 -4 -20 -8z"/>
<path d="M2840 2105 c-7 -9 -8 -15 -2 -15 5 0 12 7 16 15 3 8 4 15 2 15 -2 0
-9 -7 -16 -15z"/>
<path d="M3576 2093 c-6 -14 -5 -15 5 -6 7 7 10 15 7 18 -3 3 -9 -2 -12 -12z"/>
<path d="M2861 2006 c-9 -10 -8 -15 2 -19 8 -3 13 3 13 14 0 23 0 23 -15 5z"/>
<path d="M2265 1989 c-4 -6 -5 -12 -2 -15 2 -3 7 2 10 11 7 17 1 20 -8 4z"/>
<path d="M4016 1988 c3 -5 10 -6 15 -3 13 9 11 12 -6 12 -8 0 -12 -4 -9 -9z"/>
<path d="M2380 1985 c0 -5 5 -17 10 -25 5 -8 10 -10 10 -5 0 6 -5 17 -10 25
-5 8 -10 11 -10 5z"/>
<path d="M4000 1971 c0 -6 4 -13 10 -16 6 -3 7 1 4 9 -7 18 -14 21 -14 7z"/>
<path d="M3500 1940 c-6 -11 -8 -20 -6 -20 3 0 10 9 16 20 6 11 8 20 6 20 -3
0 -10 -9 -16 -20z"/>
<path d="M3350 1889 c0 -5 5 -7 10 -4 6 3 10 8 10 11 0 2 -4 4 -10 4 -5 0 -10
-5 -10 -11z"/>
<path d="M3923 1835 c0 -8 4 -12 9 -9 5 3 6 10 3 15 -9 13 -12 11 -12 -6z"/>
<path d="M2281 1824 c0 -11 3 -14 6 -6 3 7 2 16 -1 19 -3 4 -6 -2 -5 -13z"/>
<path d="M3320 1809 c0 -5 5 -7 10 -4 6 3 10 8 10 11 0 2 -4 4 -10 4 -5 0 -10
-5 -10 -11z"/>
<path d="M2640 1715 c0 -5 5 -17 10 -25 5 -8 10 -10 10 -5 0 6 -5 17 -10 25
-5 8 -10 11 -10 5z"/>
<path d="M1597 1493 c-3 -5 63 -8 146 -8 227 -1 397 -44 612 -156 140 -72 311
-216 387 -327 16 -24 32 -41 35 -38 9 9 -103 150 -173 217 -155 150 -374 262
-594 303 -86 17 -405 23 -413 9z"/>
<path d="M1768 1393 c6 -2 18 -2 25 0 6 3 1 5 -13 5 -14 0 -19 -2 -12 -5z"/>
<path d="M2438 1353 c7 -3 16 -2 19 1 4 3 -2 6 -13 5 -11 0 -14 -3 -6 -6z"/>
<path d="M3450 1291 c0 -6 4 -13 10 -16 6 -3 7 1 4 9 -7 18 -14 21 -14 7z"/>
<path d="M3360 1201 c0 -6 4 -13 10 -16 6 -3 7 1 4 9 -7 18 -14 21 -14 7z"/>
<path d="M2598 1053 c7 -3 16 -2 19 1 4 3 -2 6 -13 5 -11 0 -14 -3 -6 -6z"/>
<path d="M2656 1048 c3 -5 10 -6 15 -3 13 9 11 12 -6 12 -8 0 -12 -4 -9 -9z"/>
<path d="M2166 4848 c3 -5 10 -6 15 -3 13 9 11 12 -6 12 -8 0 -12 -4 -9 -9z"/>
<path d="M2003 4705 c0 -8 4 -12 9 -9 5 3 6 10 3 15 -9 13 -12 11 -12 -6z"/>
<path d="M3501 1216 l-24 -31 28 27 c16 15 27 29 24 31 -2 3 -15 -10 -28 -27z"/>
</g>
</svg>
