<?xml version="1.0" standalone="no"?>
<!DOCTYPE svg PUBLIC "-//W3C//DTD SVG 20010904//EN"
 "http://www.w3.org/TR/2001/REC-SVG-20010904/DTD/svg10.dtd">
<svg version="1.0" xmlns="http://www.w3.org/2000/svg"
 width="797.000000pt" height="500.000000pt" viewBox="0 0 797.000000 500.000000"
 preserveAspectRatio="xMidYMid meet">

<g transform="translate(0.000000,500.000000) scale(0.100000,-0.100000)"
fill="#000000" stroke="none">
<path d="M5060 4994 c-19 -2 -96 -11 -170 -20 -177 -20 -344 -48 -508 -85
-132 -30 -137 -31 -298 -22 -338 17 -609 -13 -979 -107 -214 -54 -453 -127
-565 -173 -67 -27 -91 -31 -231 -38 -185 -9 -347 -40 -556 -105 -532 -164
-1148 -495 -1449 -777 -87 -81 -185 -204 -229 -288 -116 -221 -96 -485 55
-711 24 -35 89 -109 146 -165 l104 -102 9 -798 c9 -677 13 -807 26 -858 36
-136 145 -271 267 -333 65 -34 64 -33 1690 -382 106 -23 164 -30 248 -30 105
0 146 8 848 159 823 179 1999 431 3097 666 833 178 825 176 944 295 123 123
177 246 192 435 5 66 20 401 34 745 14 344 27 639 29 656 2 18 21 53 41 80 51
66 100 167 132 271 25 81 27 101 27 263 0 162 -2 182 -27 263 -103 335 -360
603 -766 801 -314 152 -661 233 -1091 252 -119 6 -162 12 -240 36 -170 52
-302 70 -535 73 -115 2 -226 1 -245 -1z m93 -270 c274 -138 548 -420 701 -722
54 -106 52 -110 -22 -40 -336 316 -702 567 -1046 714 l-89 39 134 21 c200 33
235 31 322 -12z m659 -44 c416 -138 791 -438 1053 -845 126 -195 124 -193 170
-211 55 -21 105 -7 137 39 20 28 23 46 26 159 5 183 -32 359 -113 536 -19 39
-31 72 -28 72 4 0 40 -19 82 -41 408 -223 624 -539 597 -871 -12 -142 -58
-256 -153 -379 l-47 -60 -7 -152 c-5 -84 -19 -431 -34 -772 -27 -655 -31 -696
-81 -780 -33 -57 -114 -132 -168 -156 -52 -23 -786 -183 -2486 -544 -217 -46
-580 -124 -807 -174 -488 -107 -1028 -221 -1047 -221 -11 0 -10 12 4 63 10 35
20 90 23 123 4 32 6 410 7 840 l0 781 63 38 c34 21 95 72 135 113 58 59 82 94
122 175 56 117 73 189 73 303 -1 150 -59 302 -172 451 -259 344 -815 599
-1501 689 -97 13 -205 18 -383 19 -206 0 -244 2 -230 13 44 33 346 176 485
230 178 69 306 110 479 152 222 53 356 62 544 35 590 -84 1186 -389 1824 -934
103 -88 151 -108 219 -89 47 13 92 59 93 95 4 151 -20 255 -96 411 -153 314
-371 560 -700 787 -38 27 -74 53 -80 58 -21 20 304 -1 435 -28 374 -77 779
-279 1145 -571 61 -48 220 -198 355 -334 135 -136 259 -255 277 -264 97 -49
183 26 183 160 -1 171 -111 469 -257 694 -79 122 -151 209 -281 342 l-115 117
69 -16 c38 -8 122 -32 186 -53z m777 -100 c76 -11 111 -40 190 -155 43 -62
131 -224 131 -241 0 -3 -23 21 -52 53 -100 112 -251 250 -373 340 l-30 22 35
-5 c19 -2 64 -9 99 -14z m-3141 -44 c399 -154 748 -462 929 -820 33 -66 34
-68 10 -50 -14 10 -87 67 -163 125 -386 295 -754 497 -1136 623 -154 51 -161
55 -134 65 64 25 324 89 364 90 26 1 76 -12 130 -33z m-1799 -911 c409 -56
822 -197 1075 -366 163 -110 300 -264 349 -396 17 -46 22 -80 22 -163 0 -98
-2 -110 -32 -173 -45 -95 -119 -166 -228 -219 -50 -24 -94 -53 -104 -67 -14
-23 -16 -111 -21 -911 l-5 -885 -23 -50 c-42 -90 -114 -145 -195 -147 -23 0
-209 36 -412 81 -204 44 -567 123 -807 175 -241 52 -452 103 -470 112 -76 38
-138 119 -157 206 -5 23 -15 408 -21 853 -9 614 -15 817 -25 841 -8 19 -45 56
-94 93 -235 183 -328 434 -234 633 59 123 141 199 298 274 129 62 305 103 540
128 81 8 433 -4 544 -19z"/>
<path d="M3410 3021 c29 -56 54 -199 53 -316 0 -179 -31 -297 -118 -449 -25
-44 -45 -81 -45 -83 0 -1 33 0 73 2 39 3 169 12 287 20 1159 80 2258 312 3198
674 201 77 375 151 369 157 -2 3 -69 -13 -148 -35 -1056 -290 -2368 -515
-3370 -577 l-106 -7 -6 124 c-9 188 -59 345 -149 465 -34 44 -57 60 -38 25z"/>
<path d="M3111 1393 c-16 -447 -29 -897 -25 -902 2 -3 1209 250 1404 294 l65
15 -110 -6 c-60 -2 -315 -25 -565 -49 -250 -24 -491 -47 -536 -50 l-81 -7 -17
129 c-9 70 -30 252 -46 403 -38 355 -61 530 -70 530 -3 0 -12 -161 -19 -357z"/>
</g>
</svg>
