<?xml version="1.0" standalone="no"?>
<!DOCTYPE svg PUBLIC "-//W3C//DTD SVG 20010904//EN"
 "http://www.w3.org/TR/2001/REC-SVG-20010904/DTD/svg10.dtd">
<svg version="1.0" xmlns="http://www.w3.org/2000/svg"
 width="612.000000pt" height="582.000000pt" viewBox="0 0 612.000000 582.000000"
 preserveAspectRatio="xMidYMid meet">

<g transform="translate(0.000000,582.000000) scale(0.100000,-0.100000)"
fill="#000000" stroke="none">
<path d="M3440 5473 c-647 -35 -1227 -335 -1884 -973 -416 -405 -880 -991
-1189 -1505 -127 -212 -219 -443 -253 -635 -19 -112 -22 -316 -4 -410 46 -250
171 -472 361 -642 212 -189 538 -352 829 -415 124 -26 394 -24 503 4 72 19 79
19 84 4 42 -125 127 -218 255 -280 108 -52 212 -73 363 -73 106 -1 130 3 206
28 l86 29 59 -23 c159 -62 350 -102 489 -102 152 0 269 38 386 125 35 25 136
94 224 152 143 94 266 184 350 254 313 263 619 587 854 904 41 55 93 125 116
155 79 103 304 445 402 610 233 391 348 817 314 1156 -46 452 -306 837 -776
1147 -134 88 -448 245 -600 301 -404 146 -799 210 -1175 189z m440 -98 c512
-64 1070 -295 1430 -594 151 -126 293 -300 370 -456 70 -142 72 -163 5 -65
-66 97 -121 167 -178 225 -37 38 -39 39 -53 21 -8 -11 -14 -27 -13 -35 0 -9 5
-4 11 12 5 15 14 27 19 27 13 0 11 -24 -3 -40 -10 -11 -9 -11 6 0 15 12 20 12
23 2 3 -6 9 -10 14 -6 5 3 9 -1 10 -8 1 -16 3 -29 23 -133 37 -191 9 -459 -74
-705 -38 -113 -160 -377 -227 -490 -33 -56 -224 -343 -233 -350 -3 -3 -17 -21
-30 -40 -13 -19 -27 -37 -30 -40 -3 -3 -21 -25 -40 -50 -19 -25 -48 -61 -65
-81 -16 -20 -50 -60 -75 -90 -128 -154 -422 -449 -587 -589 -114 -98 -155
-131 -221 -182 -42 -32 -80 -59 -86 -61 -7 -2 -5 -22 7 -59 26 -82 21 -82 -16
2 -272 623 -1105 1247 -1917 1436 -314 73 -675 84 -973 29 -175 -33 -387 -100
-510 -162 -27 -13 -51 -22 -54 -20 -2 3 2 18 11 34 9 18 38 42 76 62 53 29 59
35 49 49 -12 15 -11 15 6 0 17 -16 20 -16 49 0 17 9 33 17 36 17 3 1 14 6 25
10 11 5 76 28 145 52 69 23 116 43 105 44 -17 1 -17 2 -2 6 9 2 17 9 17 14 0
5 7 9 15 9 8 0 15 4 15 9 0 7 16 30 68 96 36 47 100 123 115 136 9 9 17 20 17
24 0 4 16 23 35 42 19 19 35 38 35 43 0 5 10 17 23 27 12 10 34 34 48 53 15
19 52 61 83 94 31 32 56 61 56 65 1 3 19 20 40 36 21 17 39 35 40 41 0 5 14
23 30 39 17 16 30 32 30 35 0 12 210 230 222 230 4 0 8 7 8 15 0 8 4 15 9 15
12 0 71 59 71 71 0 5 4 9 10 9 14 0 134 123 132 136 -1 6 7 19 19 29 15 14 22
16 28 7 5 -9 14 -5 31 13 13 14 29 25 37 25 7 0 13 4 13 10 0 10 55 70 64 70
6 0 52 40 123 107 38 35 42 42 26 47 -10 3 -6 4 9 2 19 -2 33 4 47 20 12 13
27 24 34 24 8 0 31 17 53 38 21 20 41 36 45 35 4 -1 19 9 33 22 15 14 31 25
37 25 5 0 9 3 9 8 0 4 15 16 33 28 140 91 180 116 195 121 9 4 19 9 22 12 3 3
37 22 75 41 39 19 72 38 73 43 2 4 8 7 13 7 6 0 34 11 62 24 101 48 241 88
346 100 103 11 104 12 65 23 -37 11 -37 11 -4 6 60 -10 224 -10 241 0 11 7 32
5 65 -5 27 -9 83 -19 125 -23 42 -3 91 -10 110 -15 19 -5 70 -18 113 -29 44
-11 83 -18 88 -15 4 3 8 1 8 -4 0 -6 24 -16 53 -22 28 -7 59 -18 67 -25 8 -7
29 -15 45 -17 17 -3 23 -3 15 0 -12 4 -11 7 5 14 14 6 9 7 -20 4 -37 -5 -38
-4 -16 8 23 13 23 13 2 19 -12 3 -21 0 -21 -5 0 -6 -9 -3 -19 6 -11 10 -25 15
-30 11 -6 -3 -11 -2 -11 3 0 12 -49 24 -115 28 -27 1 -70 10 -95 18 -29 10
-34 14 -15 11 86 -14 93 -13 25 6 -41 11 -97 24 -125 29 -27 4 -61 12 -74 16
-17 5 -22 4 -17 -4 7 -12 -20 -6 -39 9 -6 4 -44 10 -85 13 -41 2 -115 7 -165
11 -88 7 -294 -7 -425 -29 -14 -2 -38 -5 -53 -5 -16 -1 -26 -5 -23 -9 3 -4
-11 -9 -30 -9 -53 -2 -157 -35 -142 -46 8 -5 4 -6 -10 -2 -29 8 -164 -34 -155
-48 4 -6 0 -8 -10 -4 -20 7 -70 -16 -59 -28 4 -5 1 -5 -5 -1 -15 8 -133 -32
-133 -45 0 -5 -7 -9 -15 -9 -14 0 -134 -58 -145 -70 -3 -3 -24 -14 -47 -24
-23 -10 -40 -23 -37 -28 3 -5 0 -8 -7 -6 -15 3 -89 -38 -101 -56 -4 -6 -4 -15
0 -21 3 -5 -1 -4 -10 3 -9 7 -18 9 -20 5 -1 -4 -16 -15 -33 -24 -16 -9 -29
-21 -28 -27 2 -6 -3 -9 -11 -6 -8 3 -17 1 -21 -5 -3 -6 -2 -11 2 -11 5 0 18
-7 29 -15 17 -13 16 -13 -13 -3 -24 9 -38 9 -59 -1 -23 -10 -25 -14 -13 -23
12 -8 12 -9 -2 -5 -8 3 -26 -4 -40 -14 -13 -10 -19 -19 -13 -19 5 0 19 -7 30
-16 18 -15 18 -15 -3 -5 -26 13 -36 14 -29 3 2 -4 -5 -9 -16 -9 -20 -2 -20 -1
-2 12 16 12 16 14 3 15 -9 0 -24 -9 -35 -21 -10 -12 -32 -30 -49 -42 l-30 -20
30 32 c38 42 185 160 295 238 375 266 745 420 1110 462 128 14 435 12 570 -4z
m-282 -72 c-16 -2 -40 -2 -55 0 -16 2 -3 4 27 4 30 0 43 -2 28 -4z m-165 -10
c-7 -2 -19 -2 -25 0 -7 3 -2 5 12 5 14 0 19 -2 13 -5z m-104 -19 c2 -2 -19 -2
-47 -1 -27 1 -45 5 -39 9 11 7 76 1 86 -8z m524 9 c-7 -2 -21 -2 -30 0 -10 3
-4 5 12 5 17 0 24 -2 18 -5z m-205 -10 c-10 -2 -26 -2 -35 0 -10 3 -2 5 17 5
19 0 27 -2 18 -5z m-258 -19 c0 -2 -7 -4 -15 -4 -8 0 -15 4 -15 10 0 5 7 7 15
4 8 -4 15 -8 15 -10z m497 10 c-3 -3 -12 -4 -19 -1 -8 3 -5 6 6 6 11 1 17 -2
13 -5z m-870 -40 c-3 -3 -12 -4 -19 -1 -8 3 -5 6 6 6 11 1 17 -2 13 -5z m-10
-30 c-3 -3 -12 -4 -19 -1 -8 3 -5 6 6 6 11 1 17 -2 13 -5z m-282 -82 c-2 -3
-21 -6 -42 -8 -28 -2 -33 0 -18 6 20 8 68 9 60 2z m-99 -77 c17 -16 14 -18
-10 -9 -9 3 -16 10 -16 15 0 13 9 11 26 -6z m-61 -5 c-11 -5 -27 -9 -35 -9 -9
0 -8 4 5 9 11 5 27 9 35 9 9 0 8 -4 -5 -9z m-128 -76 c-3 -3 -12 -4 -19 -1 -8
3 -5 6 6 6 11 1 17 -2 13 -5z m223 -33 c0 -6 -4 -13 -10 -16 -5 -3 -10 1 -10
9 0 9 5 16 10 16 6 0 10 -4 10 -9z m-372 -41 c8 0 13 -3 9 -6 -10 -10 -48 7
-40 19 5 8 8 8 11 -1 2 -7 11 -12 20 -12z m212 -59 c0 -6 -4 -13 -10 -16 -5
-3 -10 1 -10 9 0 9 5 16 10 16 6 0 10 -4 10 -9z m-435 -91 c3 -5 1 -10 -4 -10
-6 0 -11 5 -11 10 0 6 2 10 4 10 3 0 8 -4 11 -10z m270 -49 c3 -5 1 -12 -5
-16 -5 -3 -10 1 -10 9 0 18 6 21 15 7z m-65 -76 c-7 -8 -16 -15 -21 -15 -5 0
-9 7 -9 15 0 9 9 15 21 15 18 0 19 -2 9 -15z m-460 -25 c0 -5 -5 -10 -11 -10
-5 0 -7 5 -4 10 3 6 8 10 11 10 2 0 4 -4 4 -10z m370 -49 c0 -6 -4 -13 -10
-16 -5 -3 -10 1 -10 9 0 9 5 16 10 16 6 0 10 -4 10 -9z m-70 -75 c0 -2 -7 -6
-15 -10 -8 -3 -15 -1 -15 4 0 6 7 10 15 10 8 0 15 -2 15 -4z m-170 -115 c0 -6
-4 -13 -10 -16 -5 -3 -10 1 -10 9 0 9 5 16 10 16 6 0 10 -4 10 -9z m-95 -120
c-3 -6 -11 -11 -16 -11 -5 0 -4 6 3 14 14 16 24 13 13 -3z m-647 -306 c-3 -3
-9 2 -12 12 -6 14 -5 15 5 6 7 -7 10 -15 7 -18z m-671 -921 c-3 -3 -12 -4 -19
-1 -8 3 -5 6 6 6 11 1 17 -2 13 -5z m1048 -29 c295 -34 560 -109 823 -231 41
-19 75 -34 77 -34 2 0 62 -31 133 -70 223 -120 443 -267 602 -404 205 -176
508 -537 492 -585 -3 -9 0 -11 8 -6 10 6 12 4 7 -9 -4 -9 -3 -15 2 -12 7 5 20
-12 26 -34 0 -3 11 -25 23 -49 12 -25 20 -47 17 -49 -3 -3 -5 1 -5 8 0 7 -2
11 -5 8 -8 -8 6 -39 15 -33 11 7 34 -81 25 -96 -5 -7 -4 -10 3 -6 22 15 36
-183 13 -206 -6 -6 -11 -19 -11 -28 0 -17 -39 -95 -79 -159 l-22 -35 7 30 c5
22 3 27 -4 20 -6 -6 -13 -21 -15 -33 -4 -27 -24 -49 -34 -38 -4 4 -1 11 6 15
9 6 11 18 7 36 -4 17 -3 24 4 20 6 -3 9 3 8 17 0 13 9 64 21 113 17 69 20 105
16 155 -7 63 -27 153 -45 195 -37 90 -125 252 -162 300 -176 228 -291 341
-523 514 -256 191 -448 307 -640 386 -160 66 -178 72 -310 109 -426 118 -889
125 -1253 20 -142 -41 -337 -134 -452 -216 -30 -22 -40 -23 -40 -2 0 8 4 12
10 9 6 -3 7 1 4 9 -4 11 0 16 10 16 9 0 16 4 16 9 0 5 3 18 6 28 3 11 -1 8
-11 -7 -18 -27 -17 -22 9 58 18 52 33 73 22 28 -3 -13 -1 -26 4 -28 7 -2 7
-14 -1 -36 -6 -18 -9 -36 -5 -39 3 -4 6 1 6 10 0 8 7 23 16 32 13 12 14 19 5
28 -12 12 -15 56 -3 73 4 6 14 14 22 17 12 4 12 6 -2 6 -9 1 -22 -7 -27 -16
-6 -10 -11 -13 -11 -7 0 16 16 27 87 57 35 14 70 24 80 20 11 -4 14 -3 9 5 -4
7 -5 12 -2 12 3 0 52 13 108 30 57 16 114 31 128 34 14 3 59 12 100 21 41 9
93 14 115 11 27 -3 34 -2 20 3 -50 22 375 26 550 6z m128 -330 c256 -39 486
-115 742 -246 367 -187 687 -425 928 -689 85 -94 157 -192 157 -216 0 -8 4
-12 10 -9 5 3 10 1 10 -5 0 -6 14 -41 32 -78 18 -36 32 -81 32 -98 0 -18 3
-31 7 -29 11 8 19 -54 19 -157 0 -64 -4 -97 -10 -93 -9 6 -16 -55 -11 -94 2
-8 -2 -10 -10 -5 -9 5 -10 2 -6 -9 4 -10 2 -28 -3 -42 -7 -19 -6 -23 5 -19 7
3 12 11 9 19 -3 7 5 14 21 17 14 3 24 1 23 -4 -2 -5 -7 -8 -11 -6 -3 2 -14 -7
-22 -19 -9 -13 -20 -23 -26 -23 -5 0 -28 -12 -50 -26 -23 -14 -67 -30 -98 -34
-31 -5 -74 -11 -96 -15 -39 -6 -210 19 -316 47 l-46 12 25 35 26 36 100 0
c140 0 185 15 257 85 44 43 61 68 73 110 41 136 1 278 -114 402 -60 66 -168
138 -207 138 -19 0 -21 -3 -13 -31 5 -17 20 -45 33 -63 13 -17 38 -58 55 -92
89 -176 96 -327 21 -423 -22 -27 -91 -68 -128 -76 -9 -2 -24 -6 -33 -10 -15
-6 -12 5 13 60 64 142 62 326 -7 532 -115 343 -362 589 -724 723 -169 62 -362
89 -390 55 -16 -20 -17 -19 60 -45 137 -45 357 -171 501 -286 306 -243 479
-509 479 -734 0 -61 -3 -71 -38 -121 -54 -78 -71 -96 -127 -138 -51 -38 -153
-91 -176 -91 -7 0 7 13 32 28 51 33 96 83 116 129 20 50 17 224 -6 316 -62
242 -272 505 -566 709 -483 335 -1014 430 -1510 272 -92 -29 -248 -102 -285
-133 -55 -46 -103 -97 -116 -124 -8 -15 -19 -25 -24 -22 -6 3 -7 -1 -4 -9 3
-8 -1 -25 -9 -37 -9 -12 -13 -29 -10 -38 4 -14 3 -14 -6 0 -15 23 -31 134 -31
221 l0 77 43 45 c24 26 46 46 50 46 4 0 15 8 25 18 10 9 29 24 42 32 12 8 32
23 44 32 37 28 166 84 266 116 206 65 382 89 663 91 140 1 240 -4 310 -14z
m-313 -426 c294 -26 610 -149 840 -326 328 -251 480 -473 480 -698 0 -107 -31
-169 -118 -235 -29 -21 -73 -46 -99 -56 -27 -9 -56 -24 -65 -32 -15 -12 -27
-12 -98 2 -131 27 -230 79 -302 160 -25 27 -26 32 -11 40 12 6 18 5 21 -4 3
-8 25 -36 50 -62 53 -57 88 -66 186 -49 169 29 306 162 306 297 0 59 -20 123
-55 176 -18 28 -23 45 -19 68 8 39 -16 41 -57 3 -56 -53 -254 -154 -434 -221
-305 -114 -578 -137 -818 -67 -176 51 -403 184 -538 315 l-27 25 84 -3 c101
-4 206 16 307 58 76 32 131 65 324 195 211 142 298 175 473 176 58 0 114 4
125 8 18 7 18 9 -6 24 -44 29 -150 50 -259 51 -91 1 -116 -3 -190 -28 -47 -16
-113 -42 -147 -57 l-61 -27 5 32 c9 58 -42 87 -185 105 -228 29 -495 -75 -531
-206 -14 -49 -13 -69 3 -115 8 -21 13 -38 11 -38 -1 0 -16 5 -33 11 -34 12
-42 31 -42 110 0 200 229 331 650 372 72 7 118 7 230 -4z"/>
<path d="M4520 5111 c27 -22 40 -26 40 -12 0 5 -8 11 -17 15 -10 3 -25 9 -33
12 -8 3 -4 -4 10 -15z"/>
<path d="M4480 5103 c1 -14 124 -68 147 -65 15 2 21 -2 18 -10 -6 -16 50 -52
69 -45 8 3 26 -1 41 -9 15 -8 30 -12 33 -9 7 6 5 8 -38 28 -25 11 -36 13 -42
4 -4 -6 -10 -8 -15 -4 -4 5 -1 12 7 17 8 5 11 12 7 16 -3 4 -14 1 -22 -6 -12
-10 -19 -10 -27 -2 -9 9 -6 12 13 14 13 0 32 1 42 0 28 -3 20 7 -20 23 -29 12
-44 13 -61 6 -34 -16 -51 -13 -22 4 18 10 20 14 8 15 -9 0 -20 -4 -23 -10 -3
-5 -13 -10 -20 -10 -20 0 -7 30 14 31 10 0 12 2 3 6 -7 3 -19 0 -26 -6 -10 -8
-21 -7 -42 4 -32 17 -44 19 -44 8z m195 -53 c19 -8 19 -9 -2 -9 -12 -1 -25 4
-28 9 -7 12 2 12 30 0z"/>
<path d="M4730 5019 c-12 -8 -11 -9 5 -5 14 4 32 -5 60 -31 22 -20 33 -34 23
-31 -9 4 -24 1 -33 -6 -17 -12 -17 -13 -1 -19 10 -4 15 -3 11 3 -3 6 -3 10 2
10 16 0 31 -15 34 -34 2 -11 11 -22 19 -24 13 -4 13 -3 2 10 -10 13 -10 17 0
21 10 4 10 8 -2 16 -8 5 -11 13 -7 17 4 4 15 -1 26 -10 10 -10 36 -19 56 -21
35 -3 76 -25 46 -25 -7 0 -9 -4 -6 -10 3 -5 11 -10 16 -10 6 0 7 5 3 12 -5 8
-2 9 10 5 10 -4 21 -7 24 -7 4 0 0 -5 -8 -11 -12 -8 -10 -9 10 -7 22 3 25 0
23 -30 -1 -29 0 -31 14 -16 11 10 25 13 42 9 22 -5 20 -2 -12 20 -70 48 -270
155 -290 155 -8 0 -20 7 -27 15 -15 18 -20 18 -40 4z m186 -87 c-5 -4 -106 46
-106 53 0 3 25 -7 55 -22 30 -15 53 -29 51 -31z m154 -92 c0 -5 -4 -10 -10
-10 -5 0 -10 5 -10 10 0 6 5 10 10 10 6 0 10 -4 10 -10z"/>
<path d="M4880 4890 c0 -5 6 -7 14 -4 8 3 17 0 21 -5 3 -6 11 -9 16 -5 5 3 7
10 4 15 -8 12 -55 12 -55 -1z"/>
<path d="M4875 4860 c-3 -5 -1 -10 4 -10 6 0 11 5 11 10 0 6 -2 10 -4 10 -3 0
-8 -4 -11 -10z"/>
<path d="M4925 4820 c10 -11 23 -20 28 -20 6 0 2 9 -8 20 -10 11 -23 20 -28
20 -6 0 -2 -9 8 -20z"/>
<path d="M5122 4801 c-11 -7 -10 -9 3 -14 9 -4 13 -3 10 3 -3 6 -2 10 4 10 5
0 13 -4 16 -10 3 -5 11 -10 18 -10 6 0 2 7 -9 15 -22 17 -25 17 -42 6z"/>
<path d="M5025 4770 c3 -5 8 -10 11 -10 2 0 4 5 4 10 0 6 -5 10 -11 10 -5 0
-7 -4 -4 -10z"/>
<path d="M5000 4745 c7 -8 17 -15 22 -15 6 0 5 7 -2 15 -7 8 -17 15 -22 15 -6
0 -5 -7 2 -15z"/>
<path d="M5203 4723 c1 -18 15 -21 61 -14 11 1 -14 31 -26 31 -6 0 -5 -7 2
-15 17 -20 1 -19 -21 1 -17 15 -18 15 -16 -3z"/>
<path d="M5089 4663 c-13 -16 -12 -17 4 -4 16 13 21 21 13 21 -2 0 -10 -8 -17
-17z"/>
<path d="M5294 4665 c-3 -8 -3 -19 1 -25 3 -5 1 -10 -6 -10 -7 0 -10 -2 -7 -5
12 -12 36 8 36 31 0 26 -15 33 -24 9z"/>
<path d="M5325 4650 c3 -5 8 -10 11 -10 2 0 4 5 4 10 0 6 -5 10 -11 10 -5 0
-7 -4 -4 -10z"/>
<path d="M5357 4631 c6 -7 9 -20 6 -27 -3 -8 -3 -14 0 -14 14 0 14 30 -1 41
-14 11 -15 11 -5 0z"/>
<path d="M5399 4588 c10 -13 8 -19 -11 -32 -17 -12 -18 -16 -6 -16 8 0 21 7
28 16 11 12 10 18 -5 32 -17 15 -17 15 -6 0z"/>
<path d="M5360 4570 c0 -5 7 -7 15 -4 8 4 15 8 15 10 0 2 -7 4 -15 4 -8 0 -15
-4 -15 -10z"/>
<path d="M5430 4550 c0 -6 4 -9 9 -6 5 4 12 1 14 -4 3 -6 4 -5 3 2 -3 15 -26
23 -26 8z"/>
<path d="M1098 2953 c7 -3 16 -2 19 1 4 3 -2 6 -13 5 -11 0 -14 -3 -6 -6z"/>
<path d="M758 2863 c7 -3 16 -2 19 1 4 3 -2 6 -13 5 -11 0 -14 -3 -6 -6z"/>
<path d="M470 2810 c-21 -11 -28 -19 -18 -20 9 0 20 5 23 10 4 6 11 7 17 4 6
-4 5 -10 -3 -15 -18 -11 0 -10 26 1 11 5 14 9 8 9 -19 1 -16 19 5 24 14 4 14
5 -3 5 -11 1 -36 -7 -55 -18z"/>
<path d="M361 2684 c0 -11 3 -14 6 -6 3 7 2 16 -1 19 -3 4 -6 -2 -5 -13z"/>
<path d="M3751 1084 c0 -11 3 -14 6 -6 3 7 2 16 -1 19 -3 4 -6 -2 -5 -13z"/>
<path d="M3710 1026 c0 -31 6 -34 13 -6 3 11 1 23 -4 26 -5 3 -9 -6 -9 -20z"/>
<path d="M3750 1030 c0 -5 5 -10 10 -10 6 0 10 5 10 10 0 6 -4 10 -10 10 -5 0
-10 -4 -10 -10z"/>
<path d="M291 2283 c0 -12 -5 -25 -11 -28 -5 -3 -10 -14 -10 -23 0 -11 6 -6
15 12 9 17 14 37 12 45 -3 10 -5 8 -6 -6z"/>
<path d="M271 2124 c0 -11 3 -14 6 -6 3 7 2 16 -1 19 -3 4 -6 -2 -5 -13z"/>
<path d="M292 2050 c0 -14 2 -19 5 -12 2 6 2 18 0 25 -3 6 -5 1 -5 -13z"/>
<path d="M3520 819 c0 -5 5 -7 10 -4 6 3 10 8 10 11 0 2 -4 4 -10 4 -5 0 -10
-5 -10 -11z"/>
<path d="M3368 773 c7 -3 16 -2 19 1 4 3 -2 6 -13 5 -11 0 -14 -3 -6 -6z"/>
<path d="M2125 1755 c-101 -23 -209 -62 -435 -155 -197 -81 -318 -104 -627
-119 -163 -7 -203 -15 -203 -42 0 -4 27 -28 60 -53 56 -43 66 -46 147 -56 267
-30 524 9 728 113 163 82 458 288 453 315 -4 23 -14 23 -123 -3z"/>
</g>
</svg>
