<?xml version="1.0" standalone="no"?>
<!DOCTYPE svg PUBLIC "-//W3C//DTD SVG 20010904//EN"
 "http://www.w3.org/TR/2001/REC-SVG-20010904/DTD/svg10.dtd">
<svg version="1.0" xmlns="http://www.w3.org/2000/svg"
 width="260.000000pt" height="280.000000pt" viewBox="0 0 260.000000 280.000000"
 preserveAspectRatio="xMidYMid meet">
<metadata>
Created by potrace 1.16, written by Peter Selinger 2001-2019
</metadata>
<g transform="translate(0.000000,280.000000) scale(0.100000,-0.100000)"
fill="#000000" stroke="none">
<path d="M1625 2160 c-103 -27 -262 -103 -347 -168 -37 -28 -88 -60 -113 -71
-25 -11 -71 -40 -103 -65 -31 -24 -93 -62 -138 -84 -62 -31 -109 -67 -201
-152 -137 -126 -163 -166 -193 -294 -38 -164 -21 -265 57 -344 248 -248 924
-64 1353 367 174 175 233 292 234 461 1 85 -2 100 -26 140 -14 25 -48 61 -75
79 -26 19 -60 49 -75 67 -66 77 -217 103 -373 64z m292 -38 c22 -12 52 -34 65
-50 12 -16 45 -44 71 -62 68 -48 89 -87 95 -176 5 -76 1 -85 -27 -60 -21 19
-77 33 -67 17 4 -6 13 -11 20 -11 7 0 26 -10 41 -21 23 -19 26 -26 20 -58 -8
-45 -21 -59 -29 -33 -7 21 -56 59 -56 44 0 -5 10 -17 21 -28 12 -10 25 -30 30
-43 27 -68 -200 -324 -411 -463 -105 -70 -256 -158 -271 -158 -4 0 -10 15 -15
33 l-8 32 -3 -38 c-3 -28 -11 -40 -31 -51 -49 -25 -215 -74 -294 -86 -86 -14
-260 -9 -322 10 -37 11 -38 13 -33 48 3 20 8 46 13 56 5 13 4 17 -4 12 -6 -4
-17 -25 -23 -46 -7 -22 -15 -40 -19 -40 -13 0 -90 60 -90 70 0 23 33 87 58
114 23 25 24 27 5 17 -25 -13 -57 -55 -68 -91 -8 -24 -9 -24 -26 15 -13 27
-19 64 -19 115 0 92 19 128 87 165 39 21 43 25 18 20 -16 -3 -43 -15 -59 -27
l-29 -21 7 29 c19 80 57 131 175 241 89 82 140 121 203 153 45 23 112 64 148
90 81 59 119 74 161 65 22 -5 29 -4 25 4 -4 6 -14 11 -23 11 -26 0 12 35 92
85 91 57 191 102 279 126 97 26 233 22 293 -9z"/>
<path d="M1767 1746 c-45 -17 -74 -40 -94 -79 -32 -62 4 -73 85 -26 59 34 98
85 80 106 -13 16 -23 16 -71 -1z"/>
<path d="M986 1225 c-39 -14 -106 -70 -106 -90 0 -18 185 -18 219 0 55 28 50
65 -10 89 -47 19 -53 19 -103 1z"/>
</g>
</svg>
