<?xml version="1.0" standalone="no"?>
<!DOCTYPE svg PUBLIC "-//W3C//DTD SVG 20010904//EN"
 "http://www.w3.org/TR/2001/REC-SVG-20010904/DTD/svg10.dtd">
<svg version="1.0" xmlns="http://www.w3.org/2000/svg"
 width="600.000000pt" height="338.000000pt" viewBox="0 0 600.000000 338.000000"
 preserveAspectRatio="xMidYMid meet">
<g transform="translate(0.000000,338.000000) scale(0.100000,-0.100000)"
fill="#000000" stroke="none">
<path d="M3100 3017 c-25 -23 -60 -53 -79 -67 -108 -80 -150 -135 -131 -170
12 -23 31 -23 38 1 3 11 2 11 -6 1 -7 -11 -10 -10 -16 3 -8 23 -8 27 4 20 6
-4 9 -1 8 6 -2 7 2 13 9 14 6 0 15 4 20 9 4 5 3 6 -4 2 -22 -12 -19 9 4 31 13
12 23 19 23 16 0 -4 7 2 16 13 8 10 13 14 10 7 -4 -6 -2 -14 3 -18 6 -3 8 3 6
15 -3 17 0 19 20 16 18 -3 26 1 31 17 4 12 24 39 45 61 32 32 41 37 54 26 8
-7 12 -17 8 -24 -3 -6 -2 -8 2 -3 5 4 16 -4 25 -19 10 -14 21 -25 24 -24 11 1
55 -67 62 -96 6 -24 10 -59 13 -114 1 -22 3 -23 12 -7 16 27 1 114 -28 167
-13 25 -47 71 -76 102 l-52 57 -45 -42z m-50 -76 c0 -5 -7 -12 -16 -15 -14 -5
-15 -4 -4 9 14 17 20 19 20 6z"/>
<path d="M3115 2967 c-11 -23 -19 -47 -19 -54 1 -7 -1 -11 -5 -10 -7 2 -151
-137 -151 -146 0 -14 32 3 78 41 57 48 119 136 128 181 9 44 -8 38 -31 -12z"/>
<path d="M3177 2923 c-4 -3 -7 -19 -7 -34 0 -25 -68 -171 -91 -194 -12 -12
-11 -35 2 -35 5 0 20 21 31 48 12 26 31 63 44 82 13 19 26 59 30 88 6 50 5 59
-9 45z"/>
<path d="M3235 2824 c-3 -27 -13 -67 -21 -89 -18 -51 -18 -55 2 -55 11 0 15 6
11 20 -3 11 -1 18 3 15 22 -13 40 114 21 144 -7 10 -11 0 -16 -35z"/>
<path d="M2940 2810 c-9 -6 -10 -10 -3 -10 6 0 15 5 18 10 8 12 4 12 -15 0z"/>
<path d="M2845 2738 c-70 -16 -144 -59 -204 -117 -73 -70 -93 -110 -121 -240
-35 -163 -18 -257 56 -306 16 -10 39 -33 49 -50 11 -16 35 -37 53 -47 18 -9
41 -23 51 -32 9 -9 26 -13 38 -10 12 3 41 -3 66 -14 38 -17 53 -19 88 -11 24
6 55 7 69 3 14 -5 52 -9 85 -11 33 -1 72 -3 87 -4 14 -1 34 5 43 15 10 10 33
16 59 16 33 0 52 7 81 30 20 16 45 32 56 35 10 4 19 10 19 15 0 4 11 11 25 14
14 4 25 10 25 14 0 5 8 17 18 28 34 37 70 110 75 154 6 40 5 42 -5 18 -6 -14
-21 -31 -32 -38 -12 -6 -14 -9 -4 -6 15 4 16 2 6 -22 -7 -15 -17 -34 -24 -42
-7 -8 -13 -19 -13 -25 -1 -5 -9 -10 -18 -10 -9 0 -18 -7 -20 -15 -4 -13 -3
-13 6 0 10 15 27 8 17 -8 -3 -5 -45 -36 -93 -68 -62 -41 -96 -57 -115 -55 -14
1 -47 -7 -72 -18 -48 -22 -60 -25 -53 -13 3 4 -14 6 -36 5 -23 -2 -55 -2 -72
-2 -16 1 -60 2 -97 2 -37 0 -66 3 -63 6 2 4 -4 7 -13 8 -108 7 -242 79 -227
121 3 7 0 10 -5 7 -9 -6 -14 8 -11 28 1 5 -6 4 -15 -1 -12 -7 -22 -4 -35 9
-22 22 -45 64 -30 55 17 -11 13 10 -4 24 -16 14 -20 120 -4 120 5 0 4 12 -2
28 l-10 27 28 -27 c46 -44 206 -116 271 -122 31 -4 98 -13 147 -21 122 -21
394 -15 482 10 117 33 151 101 119 238 -20 87 -44 132 -98 184 -42 40 -129 93
-153 93 -7 0 -20 -11 -29 -25 -12 -19 -25 -25 -52 -25 -19 0 -46 -7 -59 -16
-19 -13 -38 -15 -87 -9 -77 9 -108 20 -125 45 -8 11 -21 20 -29 20 -8 0 -20
11 -26 25 -6 14 -14 24 -17 24 -3 -1 -24 -6 -46 -11z m5 -29 c-13 -9 -12 -10
3 -5 9 3 23 9 31 12 11 4 15 -3 18 -28 2 -23 8 -33 21 -34 12 -1 13 -1 2 3
-18 5 -20 19 -3 29 7 5 8 3 3 -6 -6 -10 -4 -12 9 -7 10 4 15 3 11 -3 -3 -6 -1
-10 6 -10 7 0 10 -3 6 -6 -13 -14 24 -36 49 -30 14 4 23 3 20 -2 -2 -4 9 -7
27 -6 19 1 36 -4 44 -14 8 -11 15 -13 20 -7 9 11 20 14 59 17 16 2 23 7 19 16
-4 10 0 12 11 8 20 -8 86 12 96 28 9 14 50 17 41 3 -4 -6 2 -8 16 -4 17 4 20
3 12 -7 -14 -17 -3 -28 18 -17 15 9 32 -1 41 -24 3 -5 10 -9 17 -7 7 2 13 -5
13 -14 0 -10 3 -14 7 -11 7 8 55 -58 51 -70 -1 -4 3 -18 10 -29 6 -12 9 -24 5
-27 -3 -4 -1 -12 4 -19 6 -7 10 -26 9 -41 -1 -16 2 -31 6 -33 5 -3 6 -16 3
-30 -3 -13 -7 -35 -10 -48 -8 -40 -71 -73 -160 -86 -92 -13 -90 -13 -253 -10
-67 1 -139 6 -160 11 -32 8 -133 20 -182 21 -13 0 -138 54 -150 65 -2 2 1 8 9
12 10 6 9 10 -4 14 -9 4 -13 3 -10 -3 3 -6 -1 -10 -10 -10 -21 0 -76 41 -69
52 3 4 0 8 -6 8 -6 0 -9 8 -6 18 3 9 8 34 10 55 7 51 36 109 52 103 7 -3 18 3
26 12 12 16 11 16 -6 2 -17 -13 -19 -13 -14 0 3 8 14 15 26 14 12 0 19 3 16 7
-2 4 2 10 8 13 7 3 2 3 -12 0 l-25 -5 25 15 c14 9 21 15 16 16 -5 0 -1 9 9 20
11 12 25 18 36 15 9 -3 21 0 25 6 5 8 3 10 -7 4 -8 -4 -1 4 16 18 16 13 36 22
44 19 10 -4 12 -1 6 9 -7 11 -5 11 10 -1 10 -8 16 -10 12 -3 -4 7 0 13 10 16
32 8 38 7 23 -4z"/>
<path d="M2765 2669 c-4 -6 -4 -13 -1 -16 3 -4 -3 -13 -15 -21 -15 -10 -24
-11 -32 -3 -14 14 -27 14 -27 0 0 -5 4 -8 9 -4 5 3 12 1 15 -4 4 -5 2 -12 -4
-16 -6 -4 -7 -11 -4 -17 5 -7 1 -9 -9 -5 -12 5 -17 1 -17 -12 0 -10 -7 -24
-15 -31 -9 -7 -14 -19 -11 -26 3 -7 1 -16 -4 -19 -5 -3 -7 -20 -4 -38 3 -17 6
-43 8 -56 3 -33 26 -40 26 -8 0 14 -4 27 -9 29 -19 6 2 90 33 136 38 56 79 83
98 64 11 -11 10 -15 -4 -23 -10 -6 -18 -17 -18 -26 0 -9 -8 -25 -17 -35 -13
-15 -14 -21 -5 -27 7 -4 10 -15 6 -24 -3 -10 -1 -17 5 -17 6 0 11 -7 11 -15 0
-8 7 -15 16 -15 12 0 15 -6 10 -25 -4 -17 -2 -25 6 -25 7 0 3 -10 -10 -22 -20
-21 -25 -21 -68 -10 -51 14 -72 8 -50 -14 17 -16 30 -19 21 -4 -3 6 -1 10 4
10 6 0 11 -4 11 -8 0 -11 70 0 90 13 8 6 21 18 29 28 12 15 12 17 -4 11 -14
-6 -16 -3 -10 15 5 15 -1 30 -20 53 -21 24 -25 37 -19 62 9 41 25 65 40 59 6
-2 15 0 19 6 3 7 0 8 -9 5 -21 -8 -20 0 2 22 16 17 16 18 0 11 -10 -3 -18 -2
-18 3 0 6 -9 10 -19 10 -25 0 -38 20 -20 31 9 6 10 9 2 9 -6 0 -15 -5 -18 -11z"/>
<path d="M2865 2649 c-4 -6 -5 -12 -2 -15 2 -3 7 2 10 11 7 17 1 20 -8 4z"/>
<path d="M2970 2590 c0 -12 7 -20 18 -20 13 0 14 2 3 9 -7 5 -10 14 -7 20 4 6
2 11 -3 11 -6 0 -11 -9 -11 -20z"/>
<path d="M3415 2590 c3 -5 -4 -15 -15 -23 -21 -15 -17 -29 6 -20 8 3 11 9 8
14 -3 5 5 13 17 17 l23 9 -22 5 c-12 4 -20 2 -17 -2z"/>
<path d="M3016 2565 c4 -8 15 -15 27 -15 23 0 22 2 -10 19 -19 10 -22 9 -17
-4z"/>
<path d="M3070 2539 c0 -13 39 -21 56 -11 14 8 9 10 -20 14 -20 2 -36 1 -36
-3z"/>
<path d="M3174 2526 c24 -20 34 -20 66 0 l25 15 -25 -7 c-30 -9 -39 -8 -65 1
-20 7 -20 6 -1 -9z"/>
<path d="M3307 2533 c-4 -3 -7 -11 -7 -17 0 -6 5 -5 12 2 6 6 9 14 7 17 -3 3
-9 2 -12 -2z"/>
<path d="M3270 2519 c0 -5 5 -7 10 -4 6 3 10 8 10 11 0 2 -4 4 -10 4 -5 0 -10
-5 -10 -11z"/>
<path d="M2585 2510 c-3 -6 1 -7 9 -4 18 7 21 14 7 14 -6 0 -13 -4 -16 -10z"/>
<path d="M2627 2509 c7 -7 15 -10 18 -7 3 3 -2 9 -12 12 -14 6 -15 5 -6 -5z"/>
<path d="M2730 2436 c0 -2 8 -10 18 -17 15 -13 16 -12 3 4 -13 16 -21 21 -21
13z"/>
<path d="M2716 2388 c3 -5 10 -6 15 -3 13 9 11 12 -6 12 -8 0 -12 -4 -9 -9z"/>
<path d="M2788 2243 c7 -3 16 -2 19 1 4 3 -2 6 -13 5 -11 0 -14 -3 -6 -6z"/>
<path d="M2858 2223 c7 -3 16 -2 19 1 4 3 -2 6 -13 5 -11 0 -14 -3 -6 -6z"/>
<path d="M2997 2743 c-4 -6 0 -13 8 -17 8 -3 17 0 21 6 4 6 3 8 -4 4 -5 -3
-12 -1 -14 6 -3 8 -6 9 -11 1z"/>
<path d="M3420 2720 c-9 -6 -10 -10 -3 -10 6 0 15 5 18 10 8 12 4 12 -15 0z"/>
<path d="M2985 2710 c3 -5 8 -10 11 -10 2 0 4 5 4 10 0 6 -5 10 -11 10 -5 0
-7 -4 -4 -10z"/>
<path d="M2531 2214 c0 -11 3 -14 6 -6 3 7 2 16 -1 19 -3 4 -6 -2 -5 -13z"/>
<path d="M2645 2210 c-3 -6 1 -7 9 -4 18 7 21 14 7 14 -6 0 -13 -4 -16 -10z"/>
<path d="M2428 2100 c-26 -16 -52 -38 -57 -48 -16 -30 -24 -97 -17 -137 10
-50 24 -35 22 22 -4 80 10 111 61 143 33 21 50 27 59 19 8 -7 14 -6 19 2 8 11
-11 29 -30 29 -5 0 -31 -14 -57 -30z"/>
<path d="M3527 2083 c-4 -3 -7 -13 -7 -22 0 -12 2 -13 8 -3 7 10 17 9 49 -5
44 -20 64 -37 82 -72 10 -19 10 -25 1 -31 -7 -4 -10 -12 -6 -18 3 -6 1 -23 -5
-39 -9 -26 -9 -27 7 -12 9 10 19 38 21 63 7 60 -11 87 -81 120 -61 29 -60 29
-69 19z"/>
<path d="M2490 2014 c-25 -81 -27 -149 -4 -158 25 -10 26 -8 19 32 -6 36 6
138 20 175 4 10 3 17 -4 17 -5 0 -19 -30 -31 -66z"/>
<path d="M2421 1954 c0 -11 3 -14 6 -6 3 7 2 16 -1 19 -3 4 -6 -2 -5 -13z"/>
<path d="M2629 1968 c-14 -57 31 -223 63 -231 31 -8 29 9 -7 88 -19 43 -35 90
-35 106 0 15 -4 31 -10 34 -5 3 -10 5 -11 3z m61 -203 c0 -5 -5 -3 -10 5 -5 8
-10 20 -10 25 0 6 5 3 10 -5 5 -8 10 -19 10 -25z"/>
<path d="M3506 1945 c34 -23 134 -41 112 -20 -5 5 -112 35 -126 35 -3 0 3 -7
14 -15z"/>
<path d="M3350 1904 c0 -12 28 -33 64 -48 51 -21 136 -32 136 -17 0 17 -50 33
-87 29 -17 -2 -30 -1 -28 2 2 4 -12 14 -31 23 -36 18 -54 21 -54 11z m147 -50
c-3 -3 -12 -4 -19 -1 -8 3 -5 6 6 6 11 1 17 -2 13 -5z"/>
<path d="M2820 1880 c0 -23 43 -136 62 -162 23 -33 54 -52 73 -44 10 3 5 15
-18 40 -18 19 -48 67 -67 105 -32 65 -50 86 -50 61z m71 -127 c40 -64 41 -69
10 -34 -25 28 -47 71 -36 71 2 0 14 -17 26 -37z"/>
<path d="M3300 1860 c-9 -6 -10 -10 -3 -10 6 0 15 5 18 10 8 12 4 12 -15 0z"/>
<path d="M2289 1813 c-128 -96 -248 -242 -269 -325 -4 -18 -20 -71 -34 -117
-49 -158 -58 -325 -27 -479 26 -129 64 -189 170 -269 75 -57 95 -66 265 -122
172 -57 191 -61 322 -71 243 -17 603 -15 739 5 66 9 138 24 160 32 22 8 56 19
75 25 19 5 44 18 55 27 11 9 39 30 62 45 116 77 175 193 199 389 11 81 14 158
10 227 -3 58 -6 112 -6 120 0 8 1 31 2 51 2 95 -66 236 -174 360 -54 63 -180
155 -196 145 -6 -3 -20 -26 -32 -50 -21 -45 -51 -63 -133 -81 -29 -6 -62 -35
-83 -71 -10 -17 -21 -19 -107 -16 -81 2 -103 -1 -136 -18 -53 -26 -82 -25
-151 6 -46 21 -62 24 -78 15 -12 -6 -29 -11 -40 -11 -33 0 -118 29 -153 53
-23 15 -62 27 -113 34 -69 10 -82 15 -102 41 -13 16 -48 42 -79 56 -30 15 -55
32 -55 37 0 20 -31 7 -91 -38z m105 -8 c-3 -7 -12 -11 -19 -9 -7 3 -15 1 -19
-4 -6 -10 20 -9 46 3 11 4 30 0 50 -12 25 -15 33 -26 33 -47 -1 -23 1 -25 10
-13 10 14 15 13 41 -7 16 -12 50 -30 77 -40 26 -10 47 -22 47 -27 0 -5 8 -9
18 -9 10 1 2 10 -23 25 l-40 25 36 0 c22 0 48 -9 69 -25 18 -13 38 -21 44 -18
7 4 6 1 -1 -8 -10 -12 -8 -15 7 -15 10 0 16 4 13 9 -3 5 3 5 13 -1 34 -17 91
-23 120 -12 20 8 30 8 32 1 2 -6 7 -9 12 -6 5 3 20 0 35 -7 18 -8 22 -14 13
-19 -8 -6 -2 -8 17 -8 17 0 45 -2 63 -5 20 -2 38 1 47 11 25 24 70 32 160 27
53 -3 85 -1 85 5 0 6 7 8 15 4 9 -3 15 -2 14 3 -4 21 2 25 19 13 15 -13 16
-12 4 3 -21 26 25 65 73 63 20 0 39 3 42 9 4 5 0 6 -8 1 -8 -5 -11 -4 -6 1 5
5 12 8 15 7 4 -1 13 4 21 10 12 10 12 8 1 -13 -12 -22 -11 -24 2 -13 8 7 18
10 21 7 4 -4 5 3 2 15 -2 11 0 21 5 21 5 0 14 16 21 34 7 19 17 32 21 29 5 -3
7 -11 4 -18 -5 -14 18 -14 31 0 4 4 2 5 -4 1 -7 -4 -13 -5 -13 -2 0 2 -3 11
-6 19 -4 12 0 14 15 10 19 -5 26 -15 22 -36 -1 -5 3 -5 9 -2 17 10 79 -36 72
-54 -3 -9 -1 -12 6 -7 7 4 12 2 12 -4 0 -6 5 -8 10 -5 6 3 10 2 10 -3 0 -5 13
-23 28 -38 35 -36 66 -84 53 -84 -5 0 9 -18 30 -40 44 -45 45 -47 24 -70 -13
-15 -13 -17 0 -17 8 0 15 5 15 11 1 10 30 -63 30 -74 0 -3 -5 2 -11 10 -9 12
-9 11 -4 -5 4 -11 10 -30 12 -43 8 -35 -21 -93 -39 -80 -2 1 -12 -4 -24 -10
-11 -6 -70 -13 -130 -16 -82 -4 -149 -16 -269 -47 -128 -32 -176 -40 -240 -39
-150 2 -180 1 -225 -10 -40 -11 -216 -9 -260 3 -8 2 -30 7 -48 11 -18 4 -30
11 -28 15 3 4 -3 7 -12 8 -9 1 -48 15 -85 32 -46 21 -85 31 -116 31 -26 0 -73
7 -105 15 -32 9 -63 15 -70 13 -22 -3 -109 15 -135 28 -14 8 -32 14 -40 14
-16 0 -75 42 -108 77 -25 26 -30 38 -10 27 9 -6 9 -5 0 7 -10 13 -9 24 4 57 9
23 20 42 26 42 5 0 7 7 3 15 -3 8 -2 14 2 14 25 -4 33 3 27 22 -5 15 -2 22 14
26 11 3 18 10 14 16 -4 6 0 8 9 5 10 -4 15 -1 14 10 0 10 17 35 39 57 22 22
31 29 20 16 -12 -16 -14 -21 -4 -13 9 6 20 8 24 4 5 -4 5 -2 2 4 -9 16 51 77
69 70 9 -3 12 -1 9 4 -3 6 4 10 17 11 13 0 17 3 10 6 -6 2 -10 9 -7 13 3 5 13
6 22 3 11 -5 14 -3 8 6 -6 10 -3 11 13 2 12 -7 19 -17 16 -26z m-229 -494 c57
-22 204 -52 345 -71 59 -8 120 -27 205 -65 86 -38 232 -52 335 -33 25 5 106 9
180 9 85 0 154 5 185 14 203 56 280 70 437 81 54 3 100 10 104 15 3 5 13 13
23 19 16 8 18 5 17 -19 -1 -16 -4 -27 -8 -24 -5 2 -8 0 -8 -6 0 -5 5 -13 11
-17 14 -8 3 -257 -11 -262 -5 -2 -7 -9 -4 -17 3 -7 0 -16 -6 -20 -9 -6 -9 -9
0 -15 8 -5 10 -18 5 -39 -6 -28 -11 -31 -43 -32 -31 -1 -33 -2 -13 -8 14 -4
27 -13 29 -20 3 -8 1 -11 -4 -8 -5 3 -10 -11 -12 -31 -2 -39 -22 -71 -81 -134
-37 -40 -57 -49 -47 -22 3 9 2 12 -5 9 -5 -4 -7 -16 -3 -27 5 -17 3 -20 -10
-15 -12 5 -15 3 -10 -5 5 -8 2 -9 -10 -5 -10 4 -15 3 -11 -3 4 -6 -7 -16 -24
-23 -17 -7 -30 -15 -29 -18 2 -2 1 -3 -1 -2 -2 1 -25 -6 -52 -17 -27 -10 -47
-14 -44 -10 3 4 -4 6 -15 3 -11 -3 -17 -9 -14 -15 3 -5 -11 -9 -33 -8 -47 1
-105 -7 -139 -20 -16 -7 -23 -7 -19 0 3 6 -1 10 -10 10 -9 0 -14 -4 -11 -9 3
-5 -122 -8 -297 -6 -313 3 -517 13 -497 25 6 4 -12 10 -40 13 -29 4 -57 10
-64 15 -6 5 -23 12 -38 16 -16 3 -28 11 -28 16 0 6 -8 10 -17 10 -15 0 -16 -2
-3 -10 17 -11 10 -13 -14 -4 -9 3 -13 11 -9 17 4 6 1 7 -6 2 -19 -11 -117 35
-114 53 2 6 -4 9 -13 5 -13 -5 -13 -7 -2 -14 10 -7 10 -9 0 -9 -7 0 -15 7 -18
15 -4 8 -12 15 -18 15 -23 0 -37 22 -23 39 10 14 10 14 -5 3 -15 -12 -22 -10
-53 15 -22 17 -33 34 -30 43 4 8 3 11 -1 8 -10 -11 -35 19 -28 35 4 10 -1 15
-13 14 -13 -2 -18 5 -18 25 1 15 -4 26 -9 25 -12 -3 -29 61 -23 90 2 12 0 20
-5 17 -5 -3 -6 6 -2 22 4 17 3 25 -3 21 -5 -3 -10 0 -10 8 0 20 3 19 27 -7 11
-12 20 -17 20 -11 0 6 -7 16 -16 24 -26 22 -47 70 -35 82 7 7 7 14 0 24 -8 9
-7 14 5 19 11 4 13 11 6 24 -6 11 -6 30 0 49 5 18 6 40 4 49 -5 15 -4 15 5 2
8 -11 9 -2 4 34 -5 42 -4 48 9 44 12 -5 14 0 12 23 -2 17 0 28 5 25 4 -3 7 11
6 32 l-2 37 46 -46 c30 -31 66 -54 106 -68z"/>
<path d="M2395 1690 c4 -6 -4 -9 -17 -7 -14 1 -23 -3 -23 -13 0 -8 -7 -15 -15
-15 -8 0 -16 -6 -16 -12 -1 -7 -2 -18 -3 -24 0 -5 -5 -8 -10 -5 -5 3 -11 -4
-14 -15 -3 -12 -10 -18 -15 -15 -6 3 -8 -2 -5 -13 3 -10 0 -22 -6 -25 -7 -5
-6 -18 5 -44 8 -20 15 -39 16 -42 5 -27 22 -60 27 -51 5 7 15 6 34 -4 15 -7
27 -11 27 -7 0 4 5 0 10 -8 5 -8 10 -10 10 -4 0 6 14 10 30 9 17 -1 33 2 36 6
2 5 12 6 22 3 15 -5 15 -4 2 6 -12 9 -9 10 15 6 20 -5 25 -4 16 3 -10 6 -4 9
21 9 20 0 45 5 56 11 12 6 25 10 29 10 24 -6 106 27 122 47 14 17 21 21 25 12
3 -7 3 -2 0 12 -3 14 -12 31 -19 38 -15 16 -88 25 -78 9 3 -5 1 -7 -5 -3 -6 3
-21 2 -34 -3 -13 -6 -44 -13 -70 -16 -26 -3 -55 -13 -63 -22 -13 -13 -18 -13
-32 -1 -12 9 -14 9 -9 1 5 -9 2 -11 -8 -7 -18 7 -21 20 -6 29 6 4 1 14 -12 25
-13 11 -18 19 -11 20 7 0 10 7 7 15 -8 19 22 49 38 39 7 -4 3 3 -9 15 -24 23
-79 48 -68 31z m50 -30 c3 -5 -2 -11 -12 -12 -10 0 -23 -2 -30 -2 -6 -1 -15
-5 -20 -9 -4 -5 -1 -7 7 -5 11 2 15 -6 15 -30 0 -18 7 -37 15 -42 11 -7 12
-12 3 -21 -9 -9 -7 -16 10 -29 38 -29 54 -30 86 -5 23 16 44 22 76 21 29 -1
46 3 50 12 3 7 13 12 22 11 10 -1 26 1 35 5 9 4 26 3 37 -4 20 -10 20 -12 5
-35 -15 -22 -36 -34 -74 -41 -8 -2 -35 -8 -60 -14 -25 -7 -56 -13 -70 -14 -14
-1 -34 -7 -45 -13 -35 -18 -94 -24 -133 -13 -31 10 -41 20 -56 56 -24 58 -15
91 40 147 44 46 84 61 99 37z"/>
<path d="M2713 1649 c9 -6 14 -15 11 -21 -4 -7 -2 -8 5 -4 14 9 -3 36 -23 36
-6 0 -3 -5 7 -11z"/>
<path d="M2714 1606 c23 -18 42 -20 51 -6 3 5 0 7 -9 4 -8 -3 -25 0 -38 6 -22
11 -22 10 -4 -4z"/>
<path d="M3640 1600 c0 -5 9 -9 20 -7 30 5 32 12 5 15 -14 1 -25 -3 -25 -8z"/>
<path d="M3720 1601 c0 -12 33 -27 78 -36 17 -3 12 0 -12 10 -21 8 -45 20 -52
26 -11 9 -14 8 -14 0z"/>
<path d="M2788 1578 c5 -5 16 -8 23 -6 8 3 3 7 -10 11 -17 4 -21 3 -13 -5z"/>
<path d="M3535 1556 c-10 -14 -31 -30 -49 -35 -24 -7 -26 -9 -9 -10 24 -1 92
53 81 64 -3 4 -14 -5 -23 -19z"/>
<path d="M2838 1563 c7 -3 16 -2 19 1 4 3 -2 6 -13 5 -11 0 -14 -3 -6 -6z"/>
<path d="M3017 1559 c-10 -6 -28 -8 -39 -6 -16 5 -18 3 -9 -6 8 -8 19 -8 39
-1 19 8 33 7 45 0 12 -8 20 -7 29 3 11 11 9 12 -9 6 -14 -4 -23 -2 -23 4 0 14
-10 13 -33 0z"/>
<path d="M3148 1563 c7 -3 16 -2 19 1 4 3 -2 6 -13 5 -11 0 -14 -3 -6 -6z"/>
<path d="M2890 1550 l-35 -7 37 -2 c20 0 40 4 43 9 7 11 7 11 -45 0z"/>
<path d="M3110 1550 c0 -5 5 -10 10 -10 6 0 10 5 10 10 0 6 -4 10 -10 10 -5 0
-10 -4 -10 -10z"/>
<path d="M3164 1535 c21 -16 55 -18 96 -6 15 5 37 2 55 -6 26 -12 35 -12 65 1
36 16 25 20 -20 7 -14 -4 -35 -2 -48 5 -13 7 -29 11 -35 10 -7 -2 -29 -6 -50
-11 -25 -5 -42 -4 -50 4 -6 6 -16 11 -21 11 -6 0 -2 -7 8 -15z"/>
<path d="M2244 1480 c2 -16 20 -14 24 2 3 10 2 10 -6 -1 -7 -9 -11 -10 -15 -2
-4 7 -5 8 -3 1z"/>
<path d="M2041 1467 c2 -2 11 -8 20 -15 12 -9 16 -9 16 1 0 7 -9 14 -20 14
-11 1 -18 1 -16 0z"/>
<path d="M2056 1422 c-3 -5 1 -9 9 -9 8 0 12 4 9 9 -3 4 -7 8 -9 8 -2 0 -6 -4
-9 -8z"/>
<path d="M2530 1396 c0 -2 7 -7 16 -10 8 -3 12 -2 9 4 -6 10 -25 14 -25 6z"/>
<path d="M2140 1356 c0 -2 7 -7 16 -10 8 -3 12 -2 9 4 -6 10 -25 14 -25 6z"/>
<path d="M3668 1263 c7 -3 16 -2 19 1 4 3 -2 6 -13 5 -11 0 -14 -3 -6 -6z"/>
<path d="M3190 1190 c8 -5 20 -10 25 -10 6 0 3 5 -5 10 -8 5 -19 10 -25 10 -5
0 -3 -5 5 -10z"/>
<path d="M2060 1335 c13 -14 26 -25 28 -25 3 0 -5 11 -18 25 -13 14 -26 25
-28 25 -3 0 5 -11 18 -25z"/>
<path d="M2178 1273 c7 -3 16 -2 19 1 4 3 -2 6 -13 5 -11 0 -14 -3 -6 -6z"/>
<path d="M1981 1174 c0 -11 3 -14 6 -6 3 7 2 16 -1 19 -3 4 -6 -2 -5 -13z"/>
<path d="M2670 1156 c0 -2 7 -7 16 -10 8 -3 12 -2 9 4 -6 10 -25 14 -25 6z"/>
<path d="M2314 1136 c11 -9 31 -16 45 -15 24 1 24 2 -5 8 -17 4 -37 11 -45 15
-8 4 -5 0 5 -8z"/>
<path d="M2265 1121 c7 -12 75 -35 81 -28 3 3 -8 8 -25 12 -17 4 -33 11 -36
16 -4 5 -11 9 -16 9 -6 0 -8 -4 -4 -9z"/>
<path d="M1990 1105 c0 -2 14 -12 31 -20 16 -9 39 -25 50 -36 10 -10 19 -15
19 -11 0 13 -41 47 -72 60 -16 6 -28 10 -28 7z"/>
<path d="M3548 1023 c-15 -10 -30 -24 -33 -32 -5 -11 -2 -11 13 2 10 9 24 17
30 17 7 0 12 4 12 9 0 5 8 12 18 14 12 3 13 5 2 6 -8 0 -27 -7 -42 -16z"/>
<path d="M2100 1021 c0 -10 68 -47 74 -40 2 2 -13 14 -35 26 -21 12 -39 18
-39 14z"/>
<path d="M3351 979 c-53 -16 -31 -19 29 -4 30 7 44 13 30 13 -14 0 -40 -4 -59
-9z"/>
<path d="M3468 983 c6 -2 18 -2 25 0 6 3 1 5 -13 5 -14 0 -19 -2 -12 -5z"/>
<path d="M3555 977 c-11 -7 -40 -14 -65 -15 -70 -4 -119 -13 -148 -28 -25 -13
-25 -14 -5 -14 12 0 23 5 25 10 2 6 41 13 88 17 52 3 99 13 120 24 19 10 28
18 20 19 -9 0 -24 -6 -35 -13z"/>
<path d="M2420 954 c-42 -24 -46 -24 -80 -10 -19 8 -64 17 -100 19 -40 3 -55
2 -40 -3 14 -4 44 -8 67 -9 23 -1 58 -10 77 -20 l34 -19 38 26 c21 14 55 29
74 33 34 7 34 7 5 8 -16 0 -50 -11 -75 -25z"/>
<path d="M2584 956 c33 -14 62 -24 64 -21 5 5 -63 34 -97 41 -14 3 1 -6 33
-20z"/>
<path d="M3100 962 c0 -4 10 -9 22 -9 18 -2 20 0 8 7 -18 12 -30 13 -30 2z"/>
<path d="M2040 937 c27 -14 106 -47 130 -54 8 -2 -16 12 -55 31 -38 20 -77 36
-85 36 -8 0 -4 -6 10 -13z"/>
<path d="M3825 930 c-14 -6 -2 -9 40 -8 44 0 54 2 35 8 -33 10 -51 10 -75 0z"/>
<path d="M2660 921 c0 -5 13 -14 30 -21 16 -7 39 -21 51 -31 23 -20 54 -22
104 -8 24 7 20 7 -20 5 -53 -4 -90 8 -79 26 4 6 3 8 -3 5 -11 -7 -63 14 -63
26 0 4 -4 7 -10 7 -5 0 -10 -4 -10 -9z"/>
<path d="M3110 920 c-18 -12 -2 -12 25 0 13 6 15 9 5 9 -8 0 -22 -4 -30 -9z"/>
<path d="M3938 923 c7 -3 16 -2 19 1 4 3 -2 6 -13 5 -11 0 -14 -3 -6 -6z"/>
<path d="M3736 885 c-31 -24 -96 -28 -185 -11 -90 17 -157 21 -165 8 -2 -4 13
-6 35 -4 21 2 74 -4 116 -13 95 -21 183 -15 215 15 25 23 13 27 -16 5z"/>
<path d="M2192 875 c4 -4 26 -11 50 -15 24 -5 51 -12 61 -15 9 -4 17 -3 17 3
0 5 -15 12 -32 15 -18 3 -49 9 -68 13 -19 4 -32 3 -28 -1z"/>
<path d="M2513 873 c-7 -2 -13 -9 -13 -14 0 -6 8 -6 19 1 25 13 44 13 36 0 -3
-5 0 -8 7 -5 7 3 41 -13 74 -35 84 -54 172 -77 244 -63 l55 11 -60 -5 c-40 -3
-75 0 -105 11 -25 9 -50 16 -56 16 -6 0 -42 20 -80 45 -64 42 -91 51 -121 38z"/>
<path d="M2956 868 c3 -4 -13 -9 -33 -11 -21 -2 -11 -3 22 -1 48 3 81 -3 155
-27 133 -43 160 -45 201 -19 19 12 25 19 14 15 -37 -12 -114 -22 -122 -15 -4
4 -41 17 -81 29 -40 12 -71 25 -68 29 2 4 -18 7 -44 7 -26 0 -46 -3 -44 -7z"/>
<path d="M3343 860 c-11 -16 -10 -18 1 -14 15 6 30 34 18 34 -4 0 -13 -9 -19
-20z"/>
<path d="M2340 840 c20 -13 33 -13 25 0 -3 6 -14 10 -23 10 -15 0 -15 -2 -2
-10z"/>
<path d="M2465 841 c-6 -5 -28 -11 -50 -14 l-40 -4 41 -1 c22 -1 49 4 60 13
10 8 14 15 9 15 -6 0 -15 -4 -20 -9z"/>
<path d="M3850 820 c-24 -15 -7 -18 20 -3 14 7 18 13 10 13 -8 0 -22 -4 -30
-10z"/>
<path d="M3468 783 c6 -2 18 -2 25 0 6 3 1 5 -13 5 -14 0 -19 -2 -12 -5z"/>
<path d="M3516 782 c-3 -5 0 -9 7 -10 7 0 46 -6 88 -13 52 -8 89 -9 115 -2 36
9 33 9 -31 9 -63 -1 -107 5 -157 20 -9 3 -19 1 -22 -4z"/>
<path d="M3407 751 c-14 -17 -40 -35 -58 -40 l-34 -11 33 5 c30 4 119 75 94
75 -5 0 -21 -13 -35 -29z"/>
<path d="M3775 770 c-3 -5 -2 -10 4 -10 5 0 13 5 16 10 3 6 2 10 -4 10 -5 0
-13 -4 -16 -10z"/>
<path d="M2944 758 c-3 -4 19 -5 48 -3 55 4 143 -15 191 -41 15 -8 27 -13 27
-10 0 3 11 1 25 -4 13 -5 27 -5 30 -1 2 5 -10 11 -28 15 -40 7 -50 10 -62 18
-47 28 -218 47 -231 26z"/>
<path d="M2385 630 c-3 -5 -1 -10 4 -10 6 0 11 5 11 10 0 6 -2 10 -4 10 -3 0
-8 -4 -11 -10z"/>
<path d="M2410 620 c0 -5 10 -10 23 -10 18 0 19 2 7 10 -19 13 -30 13 -30 0z"/>
<path d="M2370 586 c0 -2 9 -6 20 -9 11 -3 20 -1 20 4 0 5 -9 9 -20 9 -11 0
-20 -2 -20 -4z"/>
<path d="M3200 1842 c0 -16 37 -43 51 -37 8 2 30 -9 49 -26 l35 -31 -38 27
c-21 15 -41 25 -44 22 -9 -10 81 -68 99 -64 10 3 16 2 13 -3 -7 -11 26 -23 36
-13 5 5 -33 37 -84 71 -89 59 -117 72 -117 54z"/>
<path d="M2510 1831 c0 -6 4 -13 10 -16 6 -3 7 1 4 9 -7 18 -14 21 -14 7z"/>
<path d="M3020 1830 c0 -22 25 -60 36 -56 8 3 16 0 20 -6 4 -7 3 -8 -4 -4 -17
10 -15 0 4 -30 10 -14 23 -23 31 -20 8 3 12 2 9 -3 -8 -12 13 -28 45 -36 40
-10 45 12 7 28 -34 14 -128 108 -128 127 0 5 -4 10 -10 10 -5 0 -10 -4 -10
-10z"/>
<path d="M3566 1807 c3 -10 9 -15 12 -12 3 3 0 11 -7 18 -10 9 -11 8 -5 -6z"/>
<path d="M2911 1794 c0 -11 3 -14 6 -6 3 7 2 16 -1 19 -3 4 -6 -2 -5 -13z"/>
<path d="M2525 1790 c-3 -6 1 -7 9 -4 18 7 21 14 7 14 -6 0 -13 -4 -16 -10z"/>
<path d="M2943 1768 c1 -15 6 -23 11 -18 4 4 4 16 -2 26 -9 16 -10 14 -9 -8z"/>
</g>
</svg>
