<?xml version="1.0" standalone="no"?>
<!DOCTYPE svg PUBLIC "-//W3C//DTD SVG 20010904//EN"
 "http://www.w3.org/TR/2001/REC-SVG-20010904/DTD/svg10.dtd">
<svg version="1.0" xmlns="http://www.w3.org/2000/svg"
 width="980.000000pt" height="980.000000pt" viewBox="0 0 980.000000 980.000000"
 preserveAspectRatio="xMidYMid meet">
<metadata>
Created by potrace 1.16, written by Peter Selinger 2001-2019
</metadata>
<g transform="translate(0.000000,980.000000) scale(0.100000,-0.100000)"
fill="#000000" stroke="none">
<path d="M7900 9421 c-83 -27 -142 -83 -239 -226 -38 -55 -104 -140 -147 -190
-169 -193 -319 -384 -602 -765 -389 -525 -570 -756 -758 -971 -210 -239 -318
-315 -789 -552 -438 -221 -528 -286 -801 -577 -228 -244 -658 -746 -979 -1145
-71 -88 -188 -232 -260 -320 -733 -895 -1120 -1430 -1383 -1912 -237 -434
-337 -798 -288 -1043 60 -292 263 -569 601 -816 137 -100 557 -356 688 -418
179 -86 234 -101 382 -100 213 0 258 29 620 390 495 495 1014 1083 1392 1577
444 580 754 1026 1095 1572 285 459 360 598 465 860 125 311 190 546 288 1040
121 607 363 1209 652 1624 74 106 252 319 515 618 306 348 407 480 471 612 35
72 41 95 45 166 5 104 -13 163 -71 232 -49 59 -142 131 -212 166 -89 44 -274
107 -418 143 -156 38 -229 48 -267 35z m181 -226 c169 -31 395 -122 471 -190
95 -84 102 -178 19 -248 -27 -23 -34 -24 -73 -15 -52 11 -92 35 -183 108 -86
70 -115 88 -285 179 -74 40 -138 76 -142 79 -4 4 7 29 25 54 37 55 43 56 168
33z m-221 -279 c60 -39 126 -74 251 -131 131 -59 235 -124 287 -178 l34 -35
-24 -36 c-12 -20 -26 -36 -30 -36 -16 0 -299 115 -372 151 -86 44 -192 118
-240 168 l-29 30 23 61 c22 59 23 60 44 45 11 -8 37 -26 56 -39z m-232 -290
c26 -13 79 -47 117 -75 39 -29 97 -65 130 -80 33 -16 125 -59 205 -96 80 -37
147 -69 149 -71 5 -5 -28 -72 -38 -79 -14 -8 -258 74 -336 112 -122 61 -216
149 -274 255 -37 67 -30 73 47 34z m-318 -334 c0 -36 -48 -108 -432 -645 -353
-495 -580 -826 -572 -838 16 -27 60 17 194 191 156 204 243 322 420 570 234
327 344 477 447 607 l73 92 38 -17 c313 -138 522 -239 522 -250 0 -13 -38 -63
-280 -374 -46 -60 -87 -108 -92 -108 -4 0 -19 23 -33 50 -14 28 -30 50 -35 50
-13 0 -116 -137 -204 -274 -312 -480 -519 -1113 -636 -1941 -16 -116 -32 -239
-36 -275 l-7 -65 43 48 c24 27 51 58 62 70 l18 22 -6 -30 c-32 -142 -83 -281
-172 -470 -141 -298 -187 -388 -251 -487 l-56 -88 -58 0 c-95 0 -198 26 -491
126 -279 94 -356 128 -452 201 -49 37 -354 332 -602 582 -170 172 -312 367
-359 493 l-17 46 119 134 c258 289 440 449 670 587 58 35 223 122 367 193 277
138 354 181 458 262 232 178 381 352 763 886 81 113 186 255 234 315 91 115
332 365 352 365 6 0 11 -13 11 -28z m25 -1314 c-8 -35 -31 -96 -50 -137 -48
-101 -138 -248 -143 -233 -8 25 29 159 68 247 22 50 62 125 88 169 45 74 47
77 50 47 2 -17 -4 -59 -13 -93z m-295 -708 c-5 -25 -9 -63 -10 -86 0 -22 -29
-164 -65 -315 -36 -151 -71 -295 -76 -321 -6 -27 -14 -48 -19 -48 -23 0 -26
108 -5 195 7 34 21 105 30 160 9 55 23 124 32 155 18 63 114 312 118 308 2 -2
-1 -23 -5 -48z m-2750 -902 c49 -69 175 -222 259 -313 152 -165 688 -700 740
-738 143 -105 321 -178 682 -277 123 -34 230 -65 237 -69 8 -5 -11 -44 -69
-136 -158 -253 -256 -393 -638 -905 -142 -190 -319 -436 -393 -542 -33 -49
-43 -56 -105 -76 -367 -120 -831 55 -1324 501 -197 177 -400 414 -547 636 -96
145 -176 296 -166 314 32 51 668 942 799 1117 55 74 144 196 197 270 109 153
232 278 274 280 5 0 30 -28 54 -62z m-1265 -1975 c168 -245 225 -320 350 -462
316 -360 701 -620 1085 -733 98 -28 246 -58 328 -65 39 -3 72 -10 72 -15 0
-15 -115 -162 -239 -308 -64 -74 -231 -252 -372 -395 -140 -143 -309 -316
-375 -383 -261 -271 -347 -347 -454 -400 -47 -23 -67 -27 -140 -26 -104 0
-143 16 -405 162 l-180 100 -5 59 c-5 58 -7 61 -87 149 -214 233 -345 436
-404 624 -19 61 -23 97 -23 195 0 210 47 335 289 760 170 299 271 492 262 502
-3 2 -19 -2 -35 -11 -30 -16 -184 -249 -400 -606 -202 -336 -271 -544 -242
-735 23 -149 75 -254 258 -516 90 -128 130 -195 124 -201 -36 -36 -147 42
-279 196 -179 208 -223 308 -230 521 -6 155 14 271 75 435 99 266 234 490 603
1002 99 136 193 270 210 298 51 84 60 78 214 -147z"/>
<path d="M4040 4962 c0 -5 21 -24 48 -42 26 -19 89 -65 141 -103 l93 -70 -59
-53 c-68 -60 -88 -98 -79 -147 18 -98 109 -103 196 -12 42 44 85 68 108 60 21
-7 72 -51 72 -63 0 -4 -31 -34 -70 -66 -73 -61 -74 -64 -61 -133 l8 -41 -86
-7 c-126 -11 -145 -25 -210 -152 -30 -61 -31 -61 -115 -94 l-85 -34 -7 -55
c-4 -31 -2 -84 4 -123 7 -37 12 -72 12 -77 0 -5 -44 -36 -99 -70 -94 -58 -100
-63 -127 -123 -23 -49 -29 -76 -29 -131 0 -66 1 -69 35 -98 34 -28 38 -29 115
-26 67 4 92 10 154 41 l74 36 29 -20 c48 -35 149 -70 218 -76 124 -11 234 33
280 111 l20 32 165 18 c91 10 167 17 169 15 2 -2 31 -40 65 -84 193 -254 227
-294 257 -301 30 -8 52 10 93 75 47 74 69 156 91 347 11 98 29 218 39 265 19
87 17 133 -7 189 -22 49 -39 59 -151 88 -126 34 -108 36 -250 -29 -63 -29
-151 -43 -167 -26 -4 4 7 71 25 148 l32 139 -30 38 c-52 66 -172 173 -318 285
-77 59 -181 145 -229 190 -121 113 -178 154 -237 172 -55 16 -127 20 -127 7z
m784 -629 c45 -57 45 -58 23 -69 -12 -6 -64 -14 -116 -18 -70 -4 -108 -13
-154 -33 l-60 -27 -24 30 c-53 64 -53 64 40 64 76 0 88 3 128 29 24 17 55 41
68 55 14 14 30 26 37 26 7 0 33 -26 58 -57z m-32 -204 c26 -11 38 -34 38 -79
0 -27 -55 -130 -69 -130 -10 0 -121 173 -121 188 0 14 80 41 105 35 11 -2 32
-9 47 -14z m-229 -95 c72 -54 77 -182 9 -272 -26 -37 -30 -37 -125 -11 -30 8
-42 18 -53 46 -17 40 -9 91 42 252 6 20 94 9 127 -15z m-336 -83 c35 -17 44
-26 53 -62 16 -57 5 -117 -30 -172 -39 -62 -63 -74 -98 -48 -57 40 -74 68 -96
160 -12 50 -20 95 -16 100 10 17 73 40 110 40 19 0 54 -8 77 -18z m883 -150
c0 -46 -5 -83 -11 -86 -6 -4 -25 -4 -44 -1 -36 7 -62 38 -71 84 -5 25 -1 29
48 54 29 15 59 27 66 27 9 1 12 -21 12 -78z m-302 3 c12 -8 29 -28 37 -44 16
-31 46 -160 40 -170 -2 -4 -32 -15 -65 -25 -53 -16 -68 -17 -108 -6 -56 14
-72 32 -72 80 0 45 56 160 84 171 32 13 59 12 84 -6z m525 -81 c25 -10 36 -20
33 -29 -3 -8 -8 -36 -12 -63 -3 -26 -10 -54 -14 -61 -12 -19 -45 3 -63 42 -19
42 -57 141 -57 151 0 4 17 0 38 -9 20 -8 54 -23 75 -31z m-870 -94 c73 -63 80
-138 22 -207 -22 -26 -33 -30 -97 -35 -82 -7 -139 3 -177 31 -30 22 -73 81
-68 95 3 11 247 156 263 157 6 0 32 -18 57 -41z m-463 -9 c46 -25 26 -130 -34
-173 -43 -31 -106 -30 -140 2 -32 30 -32 42 -4 92 38 68 126 107 178 79z
m1125 -20 c52 -25 85 -80 85 -143 0 -53 -7 -77 -24 -77 -6 0 -34 20 -61 44
l-49 43 -4 77 c-2 42 -1 76 4 76 4 0 26 -9 49 -20z"/>
<path d="M3459 4288 c-217 -272 -334 -459 -363 -581 -7 -28 -6 -28 21 -13 49
25 101 86 144 170 39 75 143 247 236 391 48 74 55 93 45 112 -7 11 -26 -7 -83
-79z"/>
</g>
</svg>
