<?xml version="1.0" standalone="no"?>
<!DOCTYPE svg PUBLIC "-//W3C//DTD SVG 20010904//EN"
 "http://www.w3.org/TR/2001/REC-SVG-20010904/DTD/svg10.dtd">
<svg version="1.0" xmlns="http://www.w3.org/2000/svg"
 width="438.000000pt" height="439.000000pt" viewBox="0 0 438.000000 439.000000"
 preserveAspectRatio="xMidYMid meet">

<g transform="translate(0.000000,439.000000) scale(0.100000,-0.100000)"
fill="#000000" stroke="none">
<path d="M0 3358 c1 -893 3 -1036 15 -1052 19 -25 19 -36 0 -36 -13 0 -15 -55
-15 -435 0 -496 -10 -453 96 -412 64 26 138 41 129 27 -3 -5 -29 -13 -58 -19
-71 -15 -167 -51 -167 -63 0 -5 8 -12 19 -15 13 -3 17 -11 14 -24 -3 -12 -11
-18 -19 -15 -10 4 -14 -3 -14 -26 0 -26 2 -29 15 -18 9 7 18 10 22 6 4 -3 -3
-13 -15 -22 -18 -13 -22 -25 -22 -73 l0 -58 32 5 c32 4 32 3 13 -12 -11 -8
-26 -16 -32 -16 -9 0 -13 -20 -13 -64 0 -61 1 -64 22 -59 17 3 19 2 9 -5 -7
-5 -11 -14 -7 -20 3 -5 -1 -15 -9 -22 -18 -15 -20 -50 -3 -50 9 0 9 -3 0 -12
-7 -7 -12 -35 -12 -63 0 -36 3 -46 10 -35 5 8 10 25 10 37 0 12 14 32 32 46
26 21 30 28 19 40 -17 21 0 25 72 19 47 -4 57 -2 57 11 0 9 -5 19 -10 22 -7 4
-7 12 0 25 5 10 10 22 10 25 0 10 -103 -5 -117 -17 -9 -7 -13 -7 -13 0 0 14
65 43 83 36 8 -3 18 0 22 5 5 9 68 41 80 41 2 0 5 -14 7 -31 4 -24 1 -33 -13
-36 -23 -6 -32 -32 -18 -49 6 -8 8 -14 4 -14 -4 0 -2 -6 4 -14 8 -9 8 -21 2
-39 -5 -14 -7 -28 -4 -31 4 -3 -8 -6 -25 -6 -17 0 -37 6 -44 14 -25 26 -118
-23 -118 -64 0 -9 -5 -21 -11 -27 -8 -8 -4 -16 15 -28 21 -14 24 -20 15 -36
-7 -13 -19 -19 -37 -17 l-27 3 -3 -94 c-2 -81 -1 -93 13 -88 9 4 15 1 15 -8 0
-8 0 -18 0 -22 0 -5 -6 -8 -12 -8 -10 0 -14 -41 -16 -164 -2 -139 0 -166 13
-173 19 -11 19 -28 0 -28 -11 0 -15 -12 -15 -50 l0 -50 336 0 c244 0 333 3
328 11 -4 7 -25 9 -55 7 -46 -5 -49 -4 -49 18 0 16 10 29 31 39 34 18 49 14
30 -9 -10 -12 -4 -16 36 -24 26 -6 52 -7 58 -3 18 14 105 23 105 11 0 -6 -7
-13 -15 -16 -8 -4 -15 -12 -15 -20 0 -12 36 -14 203 -14 l203 0 29 67 c29 66
30 73 28 208 0 80 -6 153 -13 170 -6 17 -13 65 -15 108 -4 89 -8 97 -35 90
-11 -3 -20 0 -20 6 0 6 10 11 21 11 19 0 21 4 15 31 -3 17 -6 37 -6 45 0 7 -7
20 -16 29 -12 12 -13 19 -5 29 24 29 -12 171 -70 281 -47 91 -91 235 -145 480
-20 92 -19 91 -36 78 -20 -16 -66 -21 -104 -13 -31 7 -34 6 -29 -11 8 -23 -8
-25 -26 -3 -22 27 -47 117 -47 168 1 30 -3 51 -10 54 -7 2 -12 10 -12 18 0 8
-7 25 -15 38 -9 13 -15 28 -13 32 1 5 -2 19 -6 32 -7 22 -9 22 -20 6 -9 -12
-15 -14 -20 -6 -4 7 -17 12 -29 11 -15 0 -17 -2 -7 -6 16 -6 30 -23 30 -36 0
-5 -24 -7 -54 -6 -64 3 -84 -14 -109 -91 -3 -8 -6 -1 -6 16 -1 25 -7 34 -31
44 -17 7 -30 17 -30 22 0 5 9 4 21 -2 27 -15 34 -7 18 18 -10 16 -20 19 -41
15 -34 -7 -59 2 -53 19 4 9 22 12 60 10 53 -4 55 -5 55 -32 0 -30 23 -46 38
-27 12 14 4 67 -9 67 -5 0 -9 5 -9 10 0 16 60 12 66 -5 7 -16 34 -21 34 -6 0
5 16 26 35 47 32 36 44 72 28 87 -3 4 -15 -1 -25 -10 -23 -21 -43 -5 -33 26 4
14 15 21 31 21 21 0 24 5 24 35 0 37 -41 137 -48 117 -6 -19 -22 -14 -22 8 0
10 7 23 15 27 10 6 17 32 21 83 3 40 12 91 20 113 15 42 64 97 87 97 15 0 32
30 42 73 5 26 4 27 -15 17 -27 -15 -25 0 5 33 34 36 45 34 45 -7 0 -18 3 -47
6 -64 6 -27 4 -30 -14 -25 -11 2 -22 0 -26 -5 -3 -5 6 -13 22 -17 57 -14 85
-46 108 -125 6 -23 6 -24 -12 -10 -10 8 -25 22 -32 30 -8 9 -7 2 3 -17 8 -18
20 -33 25 -33 6 0 10 -6 10 -14 0 -25 -38 -11 -76 28 -41 42 -87 66 -115 59
-44 -12 -68 -201 -34 -267 16 -31 25 -68 29 -121 3 -49 28 -155 37 -161 5 -3
9 -14 9 -25 0 -10 3 -19 8 -19 11 0 46 -63 43 -78 -2 -10 4 -12 21 -7 30 10
39 24 36 60 -2 22 -9 31 -25 33 -12 2 -27 10 -33 17 -15 18 -31 85 -20 85 4 0
25 -21 47 -46 26 -31 49 -48 73 -53 31 -6 35 -11 42 -51 11 -63 28 -75 29 -19
1 101 9 166 23 208 18 50 20 94 6 121 -8 16 -7 18 4 14 11 -4 18 9 27 55 7 33
16 58 20 55 7 -4 24 44 21 59 -4 15 41 98 58 107 22 12 79 -5 98 -29 11 -14
14 -14 22 -1 8 12 12 13 19 2 7 -11 9 -11 14 1 3 9 -1 18 -9 21 -28 11 -3 26
41 26 34 0 47 -5 59 -22 21 -30 22 -65 2 -49 -10 8 -16 9 -21 1 -3 -5 -16 -10
-28 -10 -18 -1 -19 -2 -6 -10 11 -7 14 -21 12 -57 -5 -57 11 -93 37 -86 21 6
25 -6 35 -87 15 -119 58 -172 178 -222 73 -30 78 -33 49 -36 -29 -3 -47 -22
-20 -22 6 0 -3 -13 -20 -28 -23 -21 -29 -31 -21 -39 17 -17 0 -35 -24 -28 -13
4 -17 3 -10 -2 8 -6 3 -13 -18 -22 -32 -14 -38 -35 -13 -49 15 -8 15 -10 0
-15 -10 -4 -16 -18 -16 -37 0 -30 -14 -41 -23 -17 -3 6 -6 1 -6 -12 -1 -19 -5
-23 -25 -19 -20 4 -25 0 -31 -26 -4 -17 -7 -34 -6 -38 0 -5 -7 -8 -16 -8 -15
0 -18 -11 -20 -77 -2 -43 -7 -79 -13 -81 -11 -4 16 -62 29 -62 5 0 11 -11 13
-25 3 -13 1 -22 -4 -19 -19 12 -19 -29 1 -72 12 -25 20 -51 18 -57 -2 -7 4
-28 15 -47 l18 -35 -24 -3 c-18 -2 -25 -11 -29 -35 -6 -39 -2 -47 23 -47 14 0
19 -9 22 -45 3 -40 1 -44 -16 -39 -16 5 -17 4 -5 -9 9 -10 19 -12 31 -6 22 12
32 -15 16 -44 -11 -19 -13 -20 -16 -4 -5 25 -23 21 -19 -5 2 -13 2 -17 0 -10
-3 7 -9 10 -14 7 -5 -4 -9 -2 -9 4 0 5 -3 17 -7 27 -5 13 -3 15 8 10 8 -4 5 0
-5 8 -26 21 -40 20 -32 -1 4 -9 1 -20 -5 -24 -6 -4 -8 -12 -4 -18 5 -9 10 -9
20 -1 13 11 25 -6 25 -37 0 -14 -2 -14 -19 1 -19 17 -20 17 -23 -6 -2 -15 -9
-22 -20 -20 -10 2 -18 0 -18 -3 0 -13 86 -107 110 -120 22 -13 23 -14 5 -15
-18 0 -18 -2 5 -20 17 -13 20 -20 10 -20 -12 0 -11 -3 3 -11 9 -5 17 -19 17
-29 0 -11 5 -20 10 -20 6 0 10 -9 10 -20 0 -13 7 -20 19 -20 10 0 21 -7 25
-15 3 -8 1 -15 -3 -15 -14 0 0 -41 21 -62 19 -19 24 -48 8 -48 -20 0 -9 -42
18 -65 19 -17 22 -24 11 -25 -8 0 -20 5 -27 12 -9 9 -12 9 -12 -1 0 -13 37
-62 80 -106 11 -12 20 -26 20 -32 0 -6 8 -14 18 -16 14 -4 14 -6 -5 -12 -13
-4 -23 -14 -23 -22 0 -8 5 -11 10 -8 7 4 10 -7 9 -32 -1 -21 3 -50 9 -65 l12
-28 667 0 c435 0 663 4 653 10 -13 8 -13 10 2 10 11 0 15 6 11 19 -3 11 2 21
11 24 9 4 16 16 16 27 0 11 8 27 19 36 21 19 18 45 -10 70 -19 17 -27 50 -10
40 13 -8 1 34 -17 62 -8 13 -16 43 -16 67 -1 24 -4 39 -7 33 -3 -5 -9 1 -12
13 -4 13 -1 26 5 30 6 4 8 19 5 35 -3 16 -1 46 5 67 10 33 2 70 -9 40 -6 -16
-23 -17 -23 -2 0 13 51 122 60 129 4 3 9 13 13 23 4 10 11 15 17 12 13 -8 13
-42 0 -50 -6 -4 -8 -10 -6 -14 3 -4 6 -29 7 -57 2 -42 8 -54 39 -85 38 -37
167 -116 233 -144 20 -8 37 -21 37 -28 0 -33 -170 -234 -257 -303 -34 -27 -62
-52 -62 -56 -1 -5 305 -8 679 -8 l680 0 -1 468 c-1 257 -3 459 -6 450 -7 -28
-19 -21 -18 10 0 15 6 26 13 25 9 -2 12 40 12 172 0 161 -1 174 -17 169 -17
-5 -17 -5 0 9 16 13 17 50 17 502 0 438 -2 490 -16 507 -14 15 -15 18 -2 23
12 5 15 45 17 240 1 164 -2 236 -10 241 -8 4 -9 -3 -4 -25 7 -34 4 -36 -26
-20 -14 7 -18 16 -13 31 5 18 3 20 -20 14 -38 -9 -32 9 11 35 25 16 38 19 41
11 6 -18 22 -15 22 4 0 16 -11 16 -67 -1 -14 -5 -23 -3 -23 3 0 10 8 19 45 51
11 8 15 22 11 37 -7 26 12 43 25 23 6 -10 9 -5 9 17 0 16 -5 35 -12 42 -9 9
-9 12 0 12 17 0 17 271 0 288 -9 9 -9 12 0 12 15 0 17 127 2 165 -13 34 -33
27 -41 -14 -7 -32 -36 -63 -54 -57 -22 7 -3 126 20 126 10 0 14 11 13 38 0 20
3 47 7 60 12 34 -21 28 -40 -8 -20 -38 -31 -38 -39 1 -11 56 -7 119 7 119 15
0 47 -31 47 -45 0 -4 11 -18 25 -31 17 -15 27 -39 32 -69 3 -28 11 -45 19 -45
11 0 14 22 14 97 0 92 -1 95 -18 80 -20 -19 -32 -22 -32 -9 0 5 11 15 25 22
21 11 25 21 25 57 l0 43 -25 -16 c-14 -9 -25 -25 -25 -35 0 -13 -7 -19 -21
-19 -17 0 -20 4 -16 22 4 14 0 29 -10 41 -14 15 -15 22 -5 37 15 25 15 45 0
70 -10 16 -10 23 3 36 15 14 18 14 32 0 9 -9 23 -16 31 -16 12 0 15 -6 10 -24
-4 -16 -1 -25 10 -29 14 -6 16 15 16 186 -1 189 -1 192 -19 170 -19 -22 -18
-61 1 -74 4 -3 5 -20 2 -37 -6 -30 -8 -31 -20 -15 -7 10 -14 25 -14 34 0 10
-7 16 -17 15 -14 -1 -19 8 -21 42 -2 23 -7 42 -13 42 -8 0 -13 -15 -10 -33 3
-21 -22 -47 -46 -47 -22 0 -24 -3 -18 -22 14 -43 17 -96 6 -102 -7 -5 -7 -12
0 -25 9 -14 6 -23 -15 -46 -14 -15 -29 -25 -33 -22 -3 4 -15 0 -25 -10 -17
-15 -18 -15 -18 5 0 12 5 22 12 22 18 0 -23 37 -49 45 -17 5 -23 2 -23 -9 0
-9 -11 -23 -24 -32 -14 -8 -26 -25 -28 -37 -2 -17 -10 -21 -41 -23 -37 -1 -66
-23 -67 -51 0 -16 -20 -17 -20 -2 0 6 5 19 11 30 8 16 7 25 -5 38 -20 22 -21
60 0 68 8 3 26 -4 40 -18 28 -26 35 -22 56 34 7 19 15 26 27 23 11 -4 21 5 31
27 18 38 50 49 50 18 0 -24 13 -27 30 -6 18 21 3 70 -26 86 -22 11 -25 18 -20
48 3 19 10 39 16 45 16 16 40 -20 40 -58 l0 -30 21 20 c25 25 36 93 20 123
-15 27 -75 30 -90 4 -10 -16 -12 -17 -23 -2 -17 21 -87 24 -94 4 -8 -19 -24
-19 -24 0 0 18 -70 21 -87 4 -7 -7 -13 -7 -17 -1 -7 12 -46 4 -46 -9 0 -11
-53 0 -61 13 -3 5 -19 8 -35 6 -26 -3 -31 -10 -49 -63 -18 -51 -24 -60 -45
-61 -14 0 -30 -1 -36 -2 -15 -3 -46 -80 -38 -94 4 -6 7 -24 6 -39 0 -18 4 -29
13 -29 8 0 20 -8 27 -18 7 -9 24 -22 38 -28 22 -10 28 -8 53 20 28 30 29 30
43 12 8 -11 14 -36 14 -56 0 -20 5 -41 11 -47 16 -16 -16 -72 -42 -73 -6 0
-21 50 -24 80 0 8 5 24 12 35 17 26 17 46 -2 39 -8 -4 -15 -12 -15 -18 0 -19
-42 -59 -49 -48 -9 15 -43 19 -48 5 -3 -7 2 -13 11 -13 20 0 21 -19 1 -26 -8
-3 -33 10 -58 30 -40 33 -46 35 -58 20 -7 -9 -13 -30 -13 -48 0 -27 -6 -35
-29 -46 -32 -14 -42 -35 -52 -106 l-6 -49 22 25 c17 19 21 20 15 6 -3 -10 -2
-24 4 -30 11 -15 -6 -86 -21 -86 -6 0 -19 5 -31 11 -23 12 -39 2 -18 -12 12
-7 11 -10 -7 -15 -13 -4 -23 -10 -23 -14 0 -10 36 -41 46 -39 5 1 28 1 52 0
49 -1 56 -16 12 -26 -35 -8 -39 -22 -7 -28 19 -4 18 -4 -5 -6 -21 -1 -28 4
-28 18 0 22 -30 30 -75 20 l-30 -6 28 -11 c16 -7 37 -12 48 -12 11 0 18 -4 15
-9 -3 -5 1 -14 9 -21 8 -7 15 -9 15 -5 0 4 6 2 14 -4 7 -6 22 -9 32 -5 17 5
18 4 2 -8 -12 -10 -14 -18 -6 -32 5 -9 8 -20 5 -23 -3 -2 -10 4 -16 15 -7 13
-18 18 -29 15 -10 -2 -26 5 -36 16 -14 15 -23 18 -37 11 -9 -6 -26 -7 -36 -3
-16 6 -16 5 -4 -10 7 -10 19 -17 25 -16 25 3 36 -2 36 -16 0 -8 8 -15 18 -15
9 0 25 -14 34 -30 9 -17 14 -30 9 -30 -4 0 -6 -13 -3 -30 2 -17 0 -30 -6 -30
-16 0 -27 23 -13 28 9 3 9 7 0 18 -6 8 -15 11 -20 8 -5 -3 -9 2 -9 10 0 9 -4
16 -10 16 -15 0 -12 -26 5 -40 8 -7 15 -17 15 -22 0 -6 14 -28 32 -51 l32 -40
-29 18 c-17 10 -36 26 -44 34 -12 14 -13 14 -6 -4 11 -32 13 -65 3 -59 -5 3
-7 12 -4 20 3 8 1 14 -4 14 -5 0 -12 21 -15 48 -7 48 -58 159 -81 177 -21 15
-6 58 17 52 23 -6 23 1 4 27 -8 11 -18 16 -22 13 -3 -4 -3 -7 1 -7 15 0 -35
-58 -54 -63 -20 -5 -21 -4 -5 19 14 22 14 25 0 30 -8 3 -21 4 -28 1 -7 -3 -13
3 -13 13 0 13 7 16 28 14 26 -3 27 -2 16 21 -6 14 -17 25 -24 25 -7 0 -16 4
-19 10 -3 5 0 7 9 4 11 -4 14 2 14 24 -1 27 -3 29 -19 19 -11 -7 -19 -17 -19
-24 0 -19 -48 -27 -76 -13 -30 17 -30 25 1 46 14 9 22 20 19 25 -3 5 0 9 7 9
10 0 10 3 1 12 -9 9 -15 10 -20 2 -10 -15 -46 -27 -104 -33 -5 -1 -8 -11 -8
-23 0 -42 -20 -3 -25 47 -2 27 -9 51 -14 53 -7 2 -5 14 4 32 18 35 19 60 3 60
-7 0 -2 9 12 20 l25 21 -30 -7 c-16 -3 -41 -14 -55 -23 -41 -26 -72 -41 -84
-41 -6 0 -3 7 7 14 22 17 22 38 -2 53 -16 10 -26 8 -59 -15 -22 -15 -56 -41
-75 -59 -19 -17 -38 -29 -42 -25 -11 11 -34 -28 -28 -46 5 -11 2 -14 -10 -9
-11 4 -18 -1 -22 -14 -6 -19 -25 -27 -25 -9 0 5 -30 -13 -66 -41 -37 -27 -69
-48 -71 -45 -9 8 8 27 33 36 14 6 28 18 31 27 4 10 19 29 34 44 15 14 32 36
38 48 7 12 16 19 22 16 5 -4 9 -1 9 5 0 7 7 9 16 6 14 -5 16 -1 11 23 -7 34 8
52 16 21 6 -23 37 -27 37 -6 0 19 53 61 58 46 5 -14 32 36 32 57 0 13 -3 13
-15 3 -19 -16 -34 -5 -17 12 19 19 14 29 -7 16 -11 -7 -17 -17 -14 -23 4 -5
-3 -2 -15 9 -20 18 -21 18 -19 -3 1 -12 5 -21 9 -21 14 0 8 -25 -13 -50 -20
-24 -20 -24 -14 -2 7 26 -2 28 -27 6 -16 -15 -18 -15 -24 -1 -5 14 -11 13 -40
-9 -37 -29 -45 -49 -15 -41 24 6 18 -18 -7 -27 -23 -9 -61 -31 -75 -45 -6 -6
-21 -11 -34 -11 -14 0 -23 -6 -23 -15 0 -8 -5 -15 -11 -15 -6 0 -8 7 -5 16 3
9 6 22 6 30 0 8 7 14 15 14 8 0 15 7 15 15 0 9 -6 12 -15 9 -8 -4 -15 -3 -15
1 0 10 43 44 56 45 6 0 17 7 24 15 21 26 -50 -2 -84 -33 -55 -49 -96 -74 -96
-58 0 21 84 82 194 142 11 6 22 16 24 22 2 8 -20 2 -53 -13 -69 -30 -96 -32
-40 -3 22 11 43 25 46 30 3 5 17 10 30 12 14 1 30 6 37 10 19 12 14 36 -8 36
-11 0 -20 -5 -20 -12 0 -6 -3 -9 -6 -6 -8 8 22 76 52 117 23 32 23 33 2 11
-12 -14 -38 -44 -55 -65 -27 -33 -34 -37 -42 -25 -9 13 -12 13 -23 -2 -16 -22
-88 -59 -100 -52 -8 5 -6 19 10 64 4 12 1 11 -15 -2 -26 -24 -36 -23 -23 2 6
11 17 20 25 20 18 0 18 1 4 37 -10 27 -11 27 -25 9 -10 -14 -14 -16 -14 -5 0
17 -59 -91 -60 -110 0 -8 6 -11 18 -7 15 6 -23 -32 -78 -77 -12 -10 -19 -24
-16 -32 13 -34 18 -86 8 -83 -6 2 -17 -6 -25 -16 -13 -18 -14 -17 -9 12 2 18
8 32 13 32 5 0 9 8 9 18 0 9 -4 13 -8 7 -4 -5 -13 -11 -21 -13 -10 -2 -12 4
-6 25 4 15 7 40 6 54 0 14 6 45 14 69 26 74 13 111 -19 53 -11 -21 -15 -23
-16 -10 0 28 -30 79 -43 74 -7 -2 -20 2 -29 11 -12 10 -18 11 -18 4 0 -7 -11
-12 -25 -12 -18 0 -25 -5 -25 -19 0 -11 4 -23 10 -26 5 -3 10 -11 10 -17 0 -7
-6 -6 -15 2 -13 10 -15 9 -15 -11 0 -23 -1 -23 -20 6 -14 21 -20 25 -20 13 0
-48 -40 0 -41 49 0 27 -1 27 -9 6 -5 -13 -14 -23 -21 -23 -6 0 -9 -7 -5 -15 7
-18 -28 -38 -54 -30 -10 3 -21 1 -25 -4 -3 -6 -19 -8 -36 -4 -16 3 -29 2 -28
-3 4 -26 -2 -64 -11 -59 -11 7 -46 -43 -36 -53 4 -4 15 3 24 16 14 18 20 20
30 10 9 -9 12 -9 12 0 0 7 7 12 15 12 11 0 13 8 9 30 -8 35 1 38 25 9 15 -19
19 -20 32 -7 8 8 29 21 47 30 l32 17 -2 -28 c-1 -21 -6 -27 -18 -24 -18 5 -70
-49 -70 -73 0 -10 12 -7 46 12 54 30 81 27 63 -8 -14 -26 -20 -80 -8 -72 8 5
49 -35 49 -48 0 -4 5 -8 10 -8 6 0 8 11 4 25 -5 20 -2 25 13 25 10 0 24 5 31
12 7 7 12 8 12 2 0 -5 -5 -15 -11 -21 -8 -8 -9 -25 -4 -50 4 -21 10 -32 13
-24 3 9 10 1 19 -19 11 -27 11 -35 1 -43 -9 -6 -8 -7 4 -3 20 6 35 -11 21 -25
-4 -4 -19 -6 -31 -2 -16 4 -21 10 -17 24 7 20 -40 73 -55 64 -4 -3 -11 2 -14
11 -3 8 -14 14 -23 12 -19 -3 -53 47 -53 78 0 13 -3 14 -13 5 -8 -6 -17 -8
-20 -5 -3 4 -18 -7 -32 -25 -15 -17 -31 -30 -37 -28 -16 3 -35 -76 -19 -81 6
-2 11 -11 11 -20 0 -9 14 -25 30 -34 20 -11 30 -25 30 -40 0 -15 -3 -19 -8
-11 -8 13 -52 6 -52 -8 0 -15 40 -30 62 -23 11 3 23 2 27 -2 12 -18 116 -64
119 -54 2 5 10 10 18 10 7 0 11 -6 8 -14 -4 -11 0 -13 15 -9 12 3 27 0 35 -6
11 -9 21 -3 51 31 20 24 35 36 32 27 -4 -12 0 -15 19 -11 17 3 24 0 24 -12 0
-16 21 -22 33 -10 13 13 77 13 77 1 0 -7 10 -18 21 -26 17 -10 23 -10 29 -1 6
10 13 9 29 -2 11 -8 18 -18 15 -21 -11 -11 25 -57 44 -57 24 0 42 19 42 46 0
13 5 26 12 30 8 5 9 -2 5 -27 -15 -77 -16 -74 30 -71 35 2 47 -3 75 -29 25
-23 39 -29 60 -25 17 3 28 0 32 -9 4 -12 21 -14 78 -11 60 4 75 8 87 25 20 31
41 26 48 -11 7 -32 7 -32 13 -8 4 14 2 28 -4 32 -11 7 -18 38 -8 38 4 0 16 -7
27 -16 18 -13 21 -13 35 6 l15 20 32 -23 c39 -28 28 -50 -18 -37 -36 11 -37
-2 -2 -30 26 -20 28 -20 34 -3 4 10 8 12 8 5 1 -6 6 -11 12 -10 6 2 14 -4 18
-12 4 -8 12 -24 18 -35 6 -11 15 -20 21 -20 6 0 20 -8 31 -17 14 -12 21 -13
25 -5 2 7 5 -5 5 -25 1 -23 6 -38 14 -38 6 0 13 -14 14 -30 2 -21 -1 -28 -9
-24 -8 5 -9 1 -5 -10 4 -10 7 -19 7 -22 0 -2 7 -1 15 2 9 4 15 0 15 -10 0 -19
20 -22 20 -3 0 6 6 3 12 -8 6 -11 22 -30 36 -43 16 -16 22 -28 16 -40 -4 -9
-7 -25 -8 -34 0 -16 -2 -16 -19 -1 -17 16 -17 16 -11 0 3 -10 1 -17 -5 -17 -7
0 -3 -10 9 -22 22 -24 26 -38 10 -38 -5 0 -10 -7 -10 -15 0 -9 6 -12 18 -9 10
4 13 2 7 -3 -6 -4 -19 -24 -29 -45 -19 -36 -19 -36 1 -86 16 -37 18 -52 10
-56 -9 -5 -9 -7 0 -12 7 -3 17 -23 23 -45 6 -22 15 -37 20 -34 6 4 10 -5 10
-19 0 -16 6 -26 14 -26 18 0 24 -18 32 -89 7 -65 -3 -141 -18 -141 -6 0 -38
10 -72 22 -49 18 -56 23 -37 28 l23 5 -22 28 c-15 19 -28 26 -41 22 -10 -3
-30 1 -44 11 -18 12 -29 14 -38 5 -10 -8 -23 0 -55 33 -42 44 -91 64 -104 43
-4 -7 -8 -7 -8 -2 0 6 -15 10 -32 10 -27 0 -34 4 -36 23 -4 25 -3 26 33 12 22
-8 27 -7 34 12 5 14 10 17 15 10 11 -18 29 -14 22 4 -5 12 -1 14 17 9 20 -6
19 -4 -7 20 -15 16 -42 29 -58 31 -17 2 -47 8 -68 14 -21 6 -45 8 -53 4 -8 -3
-18 -1 -21 5 -4 6 -13 8 -21 5 -7 -3 -28 5 -45 17 -24 18 -33 20 -39 11 -8
-14 -81 -14 -81 0 0 4 -5 8 -11 8 -6 0 -9 -7 -5 -15 6 -18 5 -18 -28 -6 -18 7
-28 6 -36 -4 -16 -20 -32 -8 -24 17 6 19 5 19 -22 2 -15 -10 -34 -19 -42 -20
-15 -3 -47 23 -47 37 0 4 -3 11 -7 15 -5 4 -8 0 -8 -9 0 -9 -11 -27 -24 -41
-33 -36 -62 -34 -58 5 1 4 -4 6 -11 6 -33 -1 -47 4 -47 18 0 8 -9 19 -20 25
-15 8 -21 6 -30 -10 -6 -11 -8 -26 -4 -32 5 -8 1 -9 -12 -4 -39 17 -54 18 -68
7 -7 -6 -37 -13 -66 -15 -29 -3 -54 -7 -57 -9 -2 -3 -5 -22 -6 -43 -1 -34 -4
-39 -27 -42 -22 -2 -266 -8 -513 -11 -73 -1 -90 -4 -107 -21 -24 -24 -30 -25
-30 -5 0 9 -9 15 -22 16 -13 0 -39 2 -58 4 -19 2 -38 -2 -41 -7 -4 -6 -14 -8
-24 -5 -9 4 -13 11 -10 17 4 6 11 8 16 5 5 -4 9 1 9 9 0 9 -11 18 -25 22 -27
7 -32 23 -12 43 10 11 10 13 0 7 -8 -5 -13 -1 -13 9 0 11 5 15 14 12 10 -4 12
0 9 14 -3 10 -10 19 -17 19 -6 0 -17 4 -25 9 -10 7 -9 14 10 35 17 19 26 23
35 15 7 -6 18 -8 24 -4 16 10 12 35 -6 35 -19 0 -74 -31 -74 -42 0 -4 -4 -8
-10 -8 -21 0 -8 17 40 53 31 24 60 37 80 37 17 0 39 9 51 21 27 27 21 32 -16
13 -15 -8 -33 -13 -39 -10 -7 3 -6 5 1 5 12 1 53 36 53 44 0 4 -65 -7 -112
-18 -14 -4 -34 -2 -45 4 -15 10 -14 10 10 5 17 -4 27 -2 27 5 0 6 7 11 15 11
8 0 15 6 15 14 0 8 9 18 20 21 11 3 20 10 20 15 0 5 18 19 39 30 22 11 43 25
47 31 5 8 3 9 -6 4 -9 -6 -10 -2 -5 16 10 32 15 36 24 20 13 -20 24 23 15 52
-4 12 -8 29 -8 37 -1 8 -8 13 -16 11 -21 -5 -29 -5 -81 4 -50 7 -64 -2 -71
-44 -4 -28 -61 -65 -90 -58 -13 4 -23 -2 -30 -19 -15 -32 -27 -31 -25 2 3 37
-20 41 -25 5 -2 -16 -1 -28 3 -25 4 2 11 -1 15 -7 3 -6 2 -14 -5 -18 -6 -4
-17 -28 -25 -53 -7 -26 -25 -58 -40 -73 -14 -14 -26 -32 -26 -39 0 -8 -7 -19
-15 -26 -12 -10 -15 -10 -15 4 0 9 -4 16 -10 16 -5 0 -10 -13 -10 -28 0 -39
-11 -47 -25 -19 -12 23 0 57 20 57 19 0 75 59 75 79 0 37 -18 31 -51 -18 l-34
-49 -11 36 c-6 23 -16 37 -26 36 -13 -1 -14 4 -5 31 5 18 7 41 3 50 -6 17 -8
17 -25 1 -16 -15 -19 -15 -34 1 -14 16 -14 22 -1 53 8 19 25 45 37 58 l22 24
-28 23 c-17 15 -34 22 -44 18 -13 -5 -15 -2 -10 11 5 11 -1 25 -17 40 -17 15
-22 26 -16 36 8 12 14 11 39 -8 17 -12 35 -22 40 -22 5 0 27 16 48 35 33 31
35 34 13 28 -27 -6 -23 0 24 35 16 12 24 22 19 22 -5 0 -14 -5 -20 -11 -6 -6
-17 -9 -24 -7 -7 2 8 21 35 43 111 93 139 124 128 138 -14 16 -6 27 20 27 22
0 64 40 60 57 -1 7 15 17 37 24 52 15 44 29 -14 24 -25 -2 -45 -2 -45 1 0 2
18 11 40 20 21 9 42 24 45 35 4 10 15 19 26 19 10 0 19 7 19 15 0 18 -41 20
-58 3 -8 -8 -12 -9 -12 -1 0 30 14 43 45 43 45 0 52 15 14 31 -29 11 -33 11
-50 -12 -16 -21 -18 -22 -24 -6 -4 9 -1 24 6 33 11 13 9 14 -14 9 -20 -5 -27
-3 -27 8 0 15 20 27 46 27 8 0 14 -6 14 -12 0 -7 10 -14 23 -14 12 -1 33 -5
47 -9 24 -8 24 -8 8 12 -19 21 -25 48 -8 38 6 -3 10 1 10 11 0 12 6 15 23 11
75 -19 74 -19 80 2 3 13 14 21 29 22 12 0 17 3 11 6 -7 2 -13 14 -13 24 0 11
5 17 10 14 16 -10 11 21 -5 35 -11 9 -13 16 -6 23 7 7 18 2 35 -16 27 -30 69
-40 46 -12 -10 11 -10 19 -2 27 6 6 8 18 5 27 -3 10 2 7 14 -7 16 -20 21 -21
46 -10 15 8 27 22 28 33 0 11 3 14 6 7 7 -17 23 -5 23 19 0 11 7 19 16 19 11
0 14 6 9 20 -5 15 -3 18 9 14 8 -3 24 4 36 16 18 18 26 20 50 12 16 -6 31 -7
35 -4 3 4 10 0 15 -8 5 -8 12 -11 16 -8 4 4 -1 19 -10 32 -9 14 -16 33 -16 43
1 15 4 15 20 -6 11 -13 20 -18 20 -11 0 7 7 10 14 7 9 -4 17 2 21 14 4 10 12
19 20 19 7 0 16 6 18 13 3 8 14 1 31 -18 28 -33 34 -25 11 15 -8 14 -14 35
-15 48 0 18 -6 22 -34 22 -23 0 -36 -6 -41 -17 -6 -17 -7 -17 -19 -1 -12 16
-55 17 -571 18 -434 0 -561 -3 -573 -12 -13 -10 -14 -10 -8 0 6 9 -47 12 -248
12 l-256 0 0 -1032z m420 982 c0 -5 -4 -10 -10 -10 -5 0 -10 5 -10 10 0 6 5
10 10 10 6 0 10 -4 10 -10z m3294 -116 c3 -8 2 -12 -4 -9 -6 3 -10 10 -10 16
0 14 7 11 14 -7z m-2267 -31 c-3 -10 -5 -4 -5 12 0 17 2 24 5 18 2 -7 2 -21 0
-30z m2462 20 c6 -12 4 -27 -6 -48 -9 -16 -18 -43 -20 -60 -4 -34 -17 -50 -32
-41 -16 10 -13 42 5 56 11 10 14 23 9 51 -4 21 -4 43 0 49 10 16 33 12 44 -7z
m-243 -40 c-10 -10 -19 5 -10 18 6 11 8 11 12 0 2 -7 1 -15 -2 -18z m152 11
c28 -19 28 -45 1 -70 -20 -18 -21 -18 -35 1 -21 29 -18 85 5 85 4 0 17 -7 29
-16z m172 -34 c0 -5 -4 -10 -10 -10 -5 0 -10 5 -10 10 0 6 5 10 10 10 6 0 10
-4 10 -10z m300 -51 c3 -37 1 -49 -10 -49 -5 0 -10 9 -10 20 0 13 -7 20 -20
20 -25 0 -25 6 3 39 19 24 23 25 29 11 3 -9 7 -28 8 -41z m-2320 36 c0 -8 -2
-15 -4 -15 -2 0 -6 7 -10 15 -3 8 -1 15 4 15 6 0 10 -7 10 -15z m-1042 -27
c14 -14 16 -48 3 -48 -5 0 -13 -10 -17 -22 -3 -13 -11 -29 -17 -37 -6 -7 -12
-21 -12 -30 -1 -9 -2 -25 -4 -36 l-2 -20 -15 20 c-10 13 -13 31 -9 53 3 19 2
32 -4 32 -6 0 -13 -17 -17 -37 -6 -34 -18 -52 -35 -53 -11 0 -6 105 5 112 6 4
23 8 37 8 37 0 57 25 41 51 -11 17 -9 19 11 19 13 0 28 -5 35 -12z m-128 -13
c0 -3 -12 -18 -26 -33 -20 -21 -24 -35 -22 -64 4 -41 -7 -51 -17 -18 -7 21 10
85 28 108 9 12 37 17 37 7z m1460 -35 c0 -5 -5 -10 -11 -10 -5 0 -7 5 -4 10 3
6 8 10 11 10 2 0 4 -4 4 -10z m1490 -125 c-7 -9 -15 -13 -19 -10 -3 3 1 10 9
15 21 14 24 12 10 -5z m-1730 -43 c0 -28 -3 -33 -10 -22 -13 20 -13 73 0 65 6
-3 10 -23 10 -43z m180 39 c0 -5 3 -18 6 -28 5 -16 4 -16 -10 1 -18 23 -20 36
-6 36 6 0 10 -4 10 -9z m1793 -61 c-3 -11 -9 -20 -14 -20 -10 0 -12 24 -2 33
13 13 21 7 16 -13z m-1771 -28 c-4 -11 -1 -14 10 -10 13 5 14 3 4 -18 -17 -37
-26 -29 -26 24 0 31 3 42 9 33 5 -8 7 -21 3 -29z m688 31 c-1 -11 -44 -41 -77
-54 -28 -10 -28 -10 7 24 32 31 70 48 70 30z m-1155 -43 c-13 -75 20 -111 58
-64 l20 26 13 -23 c17 -31 17 -44 1 -30 -8 6 -17 8 -20 4 -14 -13 -6 -23 25
-31 42 -11 47 -29 8 -28 -16 1 -30 4 -30 9 0 4 -5 7 -11 7 -6 0 -8 -7 -5 -16
4 -11 1 -14 -12 -12 -9 2 -17 10 -17 18 0 8 -13 27 -28 42 -30 30 -37 83 -15
118 18 29 21 25 13 -20z m595 8 c0 -7 -14 -21 -30 -30 -38 -21 -39 -7 -2 21
32 24 32 24 32 9z m1673 -8 c3 -11 1 -20 -4 -20 -5 0 -9 9 -9 20 0 11 2 20 4
20 2 0 6 -9 9 -20z m-1988 -17 c0 -16 5 -27 10 -26 6 1 23 5 39 9 21 5 27 4
22 -5 -4 -6 -17 -11 -30 -11 -12 0 -27 -5 -34 -12 -18 -18 -39 36 -22 57 16
19 16 20 15 -12z m1515 3 c0 -15 -18 -31 -26 -23 -7 7 7 37 17 37 5 0 9 -6 9
-14z m-848 -59 c-23 -49 -50 -71 -101 -80 -29 -6 -32 -5 -21 8 7 8 19 15 27
15 23 0 71 38 79 63 8 26 25 49 32 43 2 -3 -5 -25 -16 -49z m88 43 c0 -5 -5
-10 -11 -10 -5 0 -7 5 -4 10 3 6 8 10 11 10 2 0 4 -4 4 -10z m74 -12 c-7 -25
-45 -59 -56 -51 -10 5 40 73 54 73 5 0 6 -10 2 -22z m644 -16 c2 -14 -2 -22
-12 -22 -19 0 -28 14 -20 35 9 21 28 14 32 -13z m79 13 c17 -18 11 -45 -12
-45 -10 0 -15 10 -15 30 0 34 5 37 27 15z m571 -7 c-5 -32 -28 -35 -28 -4 0
17 5 26 16 26 10 0 14 -7 12 -22z m-2248 -8 l25 -19 -29 7 c-16 5 -31 13 -34
20 -5 17 9 14 38 -8z m995 9 c11 -17 -1 -21 -15 -4 -8 9 -8 15 -2 15 6 0 14
-5 17 -11z m555 -13 c0 -14 -5 -28 -10 -31 -6 -3 -7 -18 -4 -32 6 -22 4 -24
-15 -18 -21 6 -30 -8 -11 -20 21 -13 10 -35 -17 -35 -27 0 -71 20 -46 20 7 0
26 15 43 33 25 26 30 38 25 63 -6 32 0 44 22 44 7 0 13 -11 13 -24z m584 -1
c3 -8 -3 -19 -14 -25 -30 -16 -40 -12 -40 15 0 20 5 25 24 25 13 0 26 -7 30
-15z m-3169 -15 c11 -13 19 -37 19 -61 1 -24 7 -43 16 -49 9 -6 10 -10 3 -10
-6 0 -15 5 -19 11 -4 8 -9 7 -14 -2 -5 -7 -11 7 -15 37 -9 65 -12 73 -30 80
-19 8 -74 -43 -75 -68 0 -24 -16 -23 -22 0 -6 23 8 42 47 64 40 23 68 22 90
-2z m3031 -62 c19 -21 40 -38 47 -38 7 0 21 14 32 30 11 16 26 30 33 30 25 0
23 -29 -3 -75 -21 -34 -32 -44 -44 -39 -9 3 -27 9 -41 12 -13 3 -38 18 -55 33
-16 16 -42 31 -57 34 -18 4 -28 14 -30 28 -2 16 -9 21 -26 19 -18 -1 -23 2
-20 15 2 13 16 20 48 23 37 5 48 2 63 -15 11 -11 34 -37 53 -57z m-1696 68 c0
-3 -4 -8 -10 -11 -5 -3 -10 -1 -10 4 0 6 5 11 10 11 6 0 10 -2 10 -4z m-1722
-72 c0 -90 -20 -113 -30 -35 -2 16 -15 32 -36 44 -30 18 -34 18 -51 3 -10 -9
-26 -16 -37 -16 -11 0 -25 -5 -32 -12 -6 -6 -15 -8 -19 -4 -12 12 12 40 43 51
16 5 32 14 36 20 3 5 33 10 66 10 l60 0 0 -61z m1407 56 c3 -5 2 -10 -4 -10
-5 0 -13 5 -16 10 -3 6 -2 10 4 10 5 0 13 -4 16 -10z m1834 -34 c13 -16 5 -67
-13 -78 -17 -12 -38 -9 -30 3 3 6 1 21 -6 34 -7 13 -10 31 -7 39 8 20 41 21
56 2z m-1181 -32 c-12 -12 -20 -14 -34 -5 -18 10 -18 10 3 11 12 0 25 5 28 11
4 6 10 8 13 4 3 -3 -1 -13 -10 -21z m962 17 c0 -5 3 -18 6 -28 6 -16 5 -16 -9
2 -19 23 -21 35 -7 35 6 0 10 -4 10 -9z m604 3 c9 -3 16 -13 16 -21 0 -10 -6
-13 -16 -9 -9 3 -18 6 -20 6 -2 0 -4 7 -4 15 0 17 2 18 24 9z m-1431 -40 c-5
-14 -2 -14 32 0 41 17 75 21 75 8 0 -8 -66 -33 -100 -37 -8 -1 -23 -6 -32 -10
-13 -5 -18 -3 -18 9 0 9 -6 16 -12 16 -9 0 -9 3 1 9 8 5 20 7 27 4 6 -2 15 0
19 6 10 16 15 13 8 -5z m1504 -22 c-8 -10 -17 -25 -20 -34 -4 -10 -12 -18 -18
-18 -8 0 -8 4 1 15 6 8 8 20 4 26 -8 14 24 41 38 33 5 -3 3 -13 -5 -22z
m-1997 -13 c0 -5 -4 -9 -10 -9 -5 0 -10 7 -10 16 0 8 5 12 10 9 6 -3 10 -10
10 -16z m-1820 -20 c29 -32 44 -66 32 -73 -15 -9 -53 15 -62 39 -11 29 -13 65
-4 65 3 0 18 -14 34 -31z m2250 11 c0 -5 -4 -10 -10 -10 -5 0 -10 5 -10 10 0
6 5 10 10 10 6 0 10 -4 10 -10z m1233 4 c8 -9 -11 -44 -23 -44 -6 0 -10 8 -10
18 0 27 18 41 33 26z m-203 -43 c0 -17 -5 -33 -11 -36 -14 -9 -18 -4 -25 33
-6 28 -4 32 15 32 17 0 21 -6 21 -29z m348 -33 c16 -16 15 -48 -2 -48 -20 0
-37 25 -30 44 7 19 16 20 32 4z m-508 -19 c0 -5 -7 -9 -15 -9 -8 0 -15 7 -15
15 0 9 6 12 15 9 8 -4 15 -10 15 -15z m613 -13 c13 -20 14 -27 3 -42 -13 -17
-14 -17 -25 4 -13 25 -15 62 -2 62 5 0 16 -11 24 -24z m-420 -31 c21 -15 19
-48 -3 -53 -13 -2 -40 38 -40 60 0 12 23 9 43 -7z m-68 -41 c6 -17 18 -42 28
-57 22 -34 13 -51 -23 -44 -21 5 -33 0 -56 -24 -15 -16 -24 -29 -19 -29 5 0 4
-5 -3 -12 -9 -9 -16 -7 -32 7 -22 20 -22 38 2 75 9 14 19 35 23 48 4 13 14 22
26 22 14 0 19 7 19 26 0 34 22 27 35 -12z m-3301 17 c3 -5 -3 -11 -14 -14 -22
-6 -37 8 -18 16 20 8 26 8 32 -2z m2956 -43 c0 -18 -27 11 -33 35 -6 22 -6 22
14 -2 10 -13 19 -28 19 -33z m734 20 c9 -17 16 -45 16 -63 0 -37 -26 -95 -43
-95 -7 0 -22 3 -35 6 -20 6 -22 11 -16 38 3 17 11 42 17 56 6 14 9 29 8 34 -5
21 10 56 23 56 8 0 22 -14 30 -32z m164 21 c-2 -6 -8 -10 -13 -10 -5 0 -11 4
-13 10 -2 6 4 11 13 11 9 0 15 -5 13 -11z m-3784 -34 c-4 -8 -10 -15 -15 -15
-5 0 -9 7 -9 15 0 8 7 15 15 15 9 0 12 -6 9 -15z m3516 -16 c0 -5 -11 -14 -25
-21 -14 -6 -27 -23 -30 -39 -6 -26 -11 -29 -44 -29 -20 0 -42 -5 -49 -12 -6
-6 -14 -10 -16 -7 -9 9 21 38 59 55 30 15 40 25 40 44 0 14 5 25 12 25 6 0 15
3 19 7 8 9 34 -9 34 -23z m450 -34 c0 -26 -7 -29 -34 -19 -19 7 -21 30 -3 37
26 11 37 6 37 -18z m-3653 -1 c-3 -3 -12 -4 -19 -1 -8 3 -5 6 6 6 11 1 17 -2
13 -5z m2747 -53 c-6 -7 -44 31 -44 43 0 6 11 -1 24 -14 13 -14 22 -27 20 -29z
m246 -17 c0 -8 -6 -14 -12 -14 -21 0 -41 17 -34 28 8 14 46 3 46 -14z m-520
-14 c0 -5 -2 -10 -4 -10 -3 0 -8 5 -11 10 -3 6 -1 10 4 10 6 0 11 -4 11 -10z
m-2633 -28 c-15 -15 -27 -34 -27 -41 0 -7 -4 -9 -10 -6 -27 17 6 75 43 75 19
0 19 -2 -6 -28z m3513 18 c0 -12 -28 -25 -36 -17 -9 9 6 27 22 27 8 0 14 -5
14 -10z m-185 -10 c-3 -5 -10 -10 -16 -10 -5 0 -9 5 -9 10 0 6 7 10 16 10 8 0
12 -4 9 -10z m40 0 c-3 -5 -10 -10 -16 -10 -5 0 -9 5 -9 10 0 6 7 10 16 10 8
0 12 -4 9 -10z m-3675 -20 c0 -11 -6 -20 -14 -20 -9 0 -12 7 -9 20 3 11 9 20
14 20 5 0 9 -9 9 -20z m3407 0 c-3 -10 0 -21 6 -23 6 -2 3 -14 -8 -30 -10 -15
-19 -26 -20 -25 -6 10 9 98 17 98 6 0 8 -9 5 -20z m153 -6 c0 -17 -22 -14 -28
4 -2 7 3 12 12 12 9 0 16 -7 16 -16z m-28 -76 c-2 -22 5 -52 17 -77 25 -48 25
-51 6 -51 -8 0 -15 7 -15 16 0 8 -4 12 -10 9 -5 -3 -11 4 -12 17 -2 42 -3 47
-9 53 -4 3 -18 3 -32 0 -19 -5 -26 -15 -31 -46 -4 -25 -12 -39 -21 -39 -8 0
-15 5 -15 10 0 6 5 10 10 10 6 0 10 15 10 34 0 26 9 44 34 71 45 47 72 45 68
-7z m381 -4 c-7 -18 -33 -18 -33 -1 0 19 10 27 25 20 8 -2 11 -11 8 -19z
m-4072 -17 c-10 -9 -11 -8 -5 6 3 10 9 15 12 12 3 -3 0 -11 -7 -18z m3799 -9
c0 -4 -5 -10 -10 -13 -13 -8 -40 13 -40 30 0 10 5 11 25 2 14 -7 25 -15 25
-19z m-2760 12 c0 -5 -15 -27 -34 -47 -18 -21 -31 -45 -28 -53 3 -8 2 -12 -2
-8 -9 8 -16 59 -7 54 9 -6 31 21 24 28 -4 3 1 6 9 6 9 0 18 7 22 15 6 17 16
20 16 5z m-546 -22 c9 -34 8 -38 -9 -38 -10 0 -15 10 -15 30 0 35 15 40 24 8z
m653 -13 c-12 -24 -37 -35 -37 -15 0 6 5 10 10 10 6 0 9 3 9 8 -3 16 2 22 15
22 11 0 12 -5 3 -25z m2319 -13 c-9 -8 -26 10 -26 26 1 15 2 15 15 -2 8 -11
13 -21 11 -24z m489 8 c-3 -5 -10 -10 -16 -10 -5 0 -9 5 -9 10 0 6 7 10 16 10
8 0 12 -4 9 -10z m165 1 c0 -5 9 -12 19 -16 20 -6 20 -7 1 -51 -15 -34 -17
-50 -9 -71 7 -20 6 -30 -5 -41 -16 -16 -36 -9 -36 14 0 8 -4 14 -10 14 -14 0
-12 28 3 33 9 3 9 7 1 18 -6 8 -14 35 -17 62 -7 47 -7 47 23 47 17 0 30 -4 30
-9z m78 -2 c-2 -6 -8 -10 -13 -10 -5 0 -11 4 -13 10 -2 6 4 11 13 11 9 0 15
-5 13 -11z m74 -34 c14 -31 4 -43 -22 -27 -23 14 -35 1 -35 -38 0 -18 -6 -26
-22 -28 -29 -4 -29 9 -1 70 25 56 60 66 80 23z m-312 -9 c0 -14 -20 -36 -32
-36 -9 0 -11 44 -2 53 9 9 34 -4 34 -17z m-480 -8 c0 -16 -3 -19 -11 -11 -6 6
-8 16 -5 22 11 17 16 13 16 -11z m-3010 -7 c7 -14 6 -21 -3 -24 -8 -4 -6 -6 4
-6 9 -1 24 8 34 19 22 25 45 26 45 3 -1 -22 -55 -83 -73 -83 -18 0 -47 52 -47
84 0 31 24 35 40 7z m3520 -11 c0 -5 -5 -10 -11 -10 -5 0 -7 5 -4 10 3 6 8 10
11 10 2 0 4 -4 4 -10z m-94 -35 c-4 -41 -14 -55 -25 -36 -5 7 -14 10 -20 7 -6
-4 -11 0 -11 11 0 14 39 50 57 53 1 0 0 -16 -1 -35z m-2896 -6 c0 -5 -4 -9
-10 -9 -5 0 -10 7 -10 16 0 8 5 12 10 9 6 -3 10 -10 10 -16z m3030 -9 c0 -11
-2 -20 -4 -20 -2 0 -6 9 -9 20 -3 11 -1 20 4 20 5 0 9 -9 9 -20z m-80 -34 c0
-8 5 -16 10 -18 16 -5 -14 -82 -33 -86 -21 -4 -21 8 -3 53 9 21 11 37 5 40
-11 7 -3 25 12 25 5 0 9 -6 9 -14z m-118 -18 c-1 -10 4 -15 15 -14 9 0 19 -6
21 -16 2 -11 -6 -18 -29 -23 -27 -6 -36 -3 -51 15 -18 22 -18 24 -1 41 21 22
49 20 45 -3z m-97 3 c7 -13 -32 -34 -46 -26 -7 5 -6 11 2 21 13 16 35 18 44 5z
m-175 -31 c0 -5 -7 -10 -15 -10 -8 0 -15 -4 -15 -9 0 -5 -7 -11 -15 -15 -10
-3 -15 1 -15 14 0 17 6 20 53 29 4 0 7 -3 7 -9z m-2952 -29 c10 -23 10 -37 0
-70 -11 -35 -17 -41 -40 -41 -16 0 -28 -5 -28 -12 0 -9 -3 -9 -12 0 -19 19
-37 14 -31 -9 5 -16 11 -19 34 -14 23 5 29 3 29 -10 0 -21 -27 -30 -45 -15 -8
7 -15 9 -15 4 0 -4 -5 -3 -12 4 -9 9 -15 9 -26 -1 -13 -10 -15 -9 -10 10 3 12
2 23 -3 25 -5 2 0 22 11 45 25 53 25 53 -5 53 -30 0 -33 16 -5 25 22 7 47 -4
74 -34 29 -32 54 -28 48 9 -5 32 2 60 15 60 5 0 14 -13 21 -29z m3552 -1 c0
-5 -5 -10 -11 -10 -5 0 -7 5 -4 10 3 6 8 10 11 10 2 0 4 -4 4 -10z m-1000 -44
c0 -3 -4 -8 -10 -11 -5 -3 -10 -1 -10 4 0 6 5 11 10 11 6 0 10 -2 10 -4z
m-2935 -46 c9 -14 79 -12 94 3 10 10 17 6 37 -16 29 -34 32 -67 5 -67 -24 0
-32 -22 -25 -69 5 -32 2 -41 -25 -70 -17 -18 -31 -36 -31 -39 0 -10 -43 -52
-53 -52 -5 0 -2 11 7 25 9 14 20 46 25 70 8 41 6 47 -13 57 -13 7 -16 13 -8
16 6 2 12 11 12 20 0 12 -3 13 -12 4 -8 -8 -16 -3 -30 23 -20 39 -23 60 -8 50
6 -4 8 -11 5 -16 -3 -5 1 -6 9 -3 23 9 19 39 -6 57 -19 13 -20 16 -6 16 9 1
20 -3 23 -9z m3741 -26 c42 -45 54 -78 27 -72 -10 2 -17 9 -16 15 1 5 -11 23
-27 38 -28 26 -40 55 -23 55 4 0 21 -16 39 -36z m-3826 11 c0 -3 -6 -16 -14
-28 -17 -28 -29 -77 -18 -77 4 0 13 5 20 12 9 9 12 6 12 -13 0 -16 12 -36 35
-56 48 -43 44 -73 -8 -64 -4 1 -3 -8 3 -19 6 -12 9 -29 7 -38 -4 -14 -6 -13
-12 6 -4 12 -12 22 -17 22 -6 0 -8 6 -5 14 3 8 -1 20 -9 27 -13 10 -17 10 -24
-1 -5 -8 -6 -18 -4 -22 3 -4 0 -8 -6 -8 -12 0 -30 42 -30 72 0 12 7 30 17 40
15 17 15 19 -2 38 -20 22 -14 66 13 87 17 13 42 17 42 8z m3775 -58 c17 -34
29 -69 28 -78 -1 -9 6 -24 17 -34 21 -19 16 -45 -10 -45 -22 0 -52 33 -48 53
2 9 -6 22 -17 31 -18 13 -19 18 -8 58 10 36 9 44 -3 51 -17 10 -18 27 -1 27 6
0 26 -28 42 -63z m-3030 17 c-15 -43 -40 -71 -50 -55 -3 6 -1 10 6 9 6 -2 16
11 22 27 9 27 25 55 32 55 1 0 -3 -16 -10 -36z m3215 -27 c0 -4 7 -24 15 -44
11 -26 18 -33 28 -25 20 17 67 3 67 -20 0 -18 -5 -20 -35 -15 -29 5 -38 1 -54
-19 -10 -13 -24 -24 -29 -24 -18 0 -25 22 -11 31 12 7 11 14 -3 40 -11 18 -16
40 -12 54 3 12 1 26 -5 29 -6 4 -11 19 -11 34 l1 27 24 -30 c14 -16 25 -34 25
-38z m-3293 -30 c-27 -53 -26 -51 -33 -44 -9 9 35 99 45 93 6 -4 1 -24 -12
-49z m1456 26 c-3 -7 -9 -13 -14 -13 -5 0 -9 6 -9 13 0 8 6 14 14 14 8 0 12
-6 9 -14z m69 -15 c-2 -10 -7 -16 -10 -13 -3 2 -11 0 -19 -6 -17 -15 -18 6 -1
25 18 19 36 15 30 -6z m-1378 -25 c-26 -21 -64 -31 -64 -17 0 12 30 35 39 30
5 -3 14 1 21 9 7 8 17 12 23 8 6 -4 -2 -16 -19 -30z m3306 13 c0 -15 -24 -28
-34 -19 -13 14 -5 33 14 33 11 0 20 -6 20 -14z m-207 -26 c21 -24 22 -50 3
-50 -8 0 -13 -8 -12 -17 0 -10 -7 -19 -16 -21 -19 -4 -25 22 -9 33 6 3 4 17
-5 33 -7 15 -14 30 -14 35 0 15 36 6 53 -13z m-3619 -29 c-7 -8 -35 9 -29 19
4 6 11 5 20 -3 7 -6 11 -14 9 -16z m3224 -4 c2 -12 -3 -17 -17 -17 -12 0 -21
6 -21 13 0 31 32 34 38 4z m-138 -2 c0 -8 -4 -15 -9 -15 -13 0 -22 16 -14 24
11 11 23 6 23 -9z m365 -26 c-5 -14 2 -22 28 -32 31 -13 33 -17 29 -51 -2 -20
-7 -38 -11 -40 -3 -2 -24 9 -45 25 -22 16 -34 29 -28 29 7 0 12 5 12 11 0 6
-9 8 -20 4 -14 -5 -20 -2 -20 9 0 9 5 16 11 16 6 0 9 10 8 23 -2 12 0 28 5 35
12 19 38 -6 31 -29z m-3411 25 c13 -5 14 -9 5 -20 -9 -11 -15 -11 -25 -3 -8 6
-11 15 -8 20 6 11 8 11 28 3z m3826 -45 c0 -5 -4 -9 -10 -9 -5 0 -10 7 -10 16
0 8 5 12 10 9 6 -3 10 -10 10 -16z m-3810 -9 c-9 -5 -9 -9 -1 -14 13 -9 15
-46 2 -46 -5 0 -13 -10 -17 -22 -7 -20 -9 -16 -16 21 -6 35 -4 49 9 63 8 10
20 15 25 12 6 -4 5 -9 -2 -14z m1115 11 l30 -6 -45 -14 c-25 -8 -58 -16 -74
-18 -16 -2 -37 -9 -45 -17 -9 -8 -35 -17 -58 -21 -24 -4 -47 -14 -53 -23 -8
-14 -9 -11 -9 13 -1 38 26 73 64 84 35 11 146 12 190 2z m2432 -48 c4 -10 12
-22 20 -26 31 -19 1 -58 -42 -54 -28 3 -44 26 -45 65 0 29 3 32 30 32 20 0 33
-6 37 -17z m-3074 -43 c-10 -11 -23 -20 -29 -20 -7 0 -15 -12 -19 -27 -7 -29
-32 -63 -46 -63 -13 0 18 77 38 97 11 11 24 18 30 16 6 -2 14 1 18 6 3 6 10
11 15 11 6 0 2 -9 -7 -20z m3172 -1 c0 -8 12 -20 28 -28 15 -7 27 -20 27 -27
0 -8 5 -23 12 -34 10 -15 9 -23 -6 -39 -15 -17 -22 -18 -33 -9 -8 6 -12 20
-10 30 3 10 0 21 -6 26 -19 12 -50 79 -42 92 9 15 30 7 30 -11z m-592 -52 c-9
-14 -23 4 -23 31 l1 27 13 -25 c8 -14 12 -28 9 -33z m113 16 c-10 -10 -19 5
-10 18 6 11 8 11 12 0 2 -7 1 -15 -2 -18z m-2861 -13 c3 -5 1 -10 -4 -10 -6 0
-11 5 -11 10 0 6 2 10 4 10 3 0 8 -4 11 -10z m165 -40 c-6 -11 -12 -20 -14
-20 -2 0 -2 9 1 20 3 11 9 20 15 20 5 0 4 -9 -2 -20z m2590 -20 c0 -5 -2 -10
-4 -10 -3 0 -8 5 -11 10 -3 6 -1 10 4 10 6 0 11 -4 11 -10z m-2831 -116 c-6
-54 -15 -107 -20 -116 -5 -10 -9 -25 -9 -33 0 -8 -6 -15 -14 -15 -26 0 -32
190 -6 198 5 2 10 13 10 25 0 25 30 61 42 49 5 -5 3 -53 -3 -108z m141 95 c0
-6 -4 -7 -10 -4 -5 3 -10 11 -10 16 0 6 5 7 10 4 6 -3 10 -11 10 -16z m2908 9
c18 -18 15 -28 -8 -28 -11 0 -20 2 -20 4 0 2 -3 11 -6 20 -7 19 16 22 34 4z
m-3313 -28 c-15 -16 -33 -26 -38 -23 -6 4 1 16 17 30 39 33 55 28 21 -7z
m3395 15 c0 -16 -27 -32 -37 -22 -3 4 -3 13 0 22 8 20 37 20 37 0z m-373 -25
l42 -31 -3 -117 c-2 -82 -9 -135 -23 -178 -25 -77 -46 -124 -55 -124 -4 0 7
33 24 73 35 84 49 227 29 290 -11 34 -16 37 -49 37 -63 0 -82 9 -82 39 0 35 6
41 45 41 19 0 47 -12 72 -30z m653 20 c0 -5 -7 -10 -15 -10 -8 0 -15 5 -15 10
0 6 7 10 15 10 8 0 15 -4 15 -10z m-2640 -20 c8 -5 11 -10 6 -10 -5 0 -3 -7 4
-15 16 -19 6 -33 -32 -43 -51 -13 -43 -29 26 -52 37 -12 66 -26 66 -31 0 -5 9
-9 20 -9 11 0 20 -4 20 -9 0 -5 9 -7 20 -4 11 3 28 2 37 -2 10 -5 21 -7 26 -7
4 1 7 -5 7 -14 0 -11 5 -14 16 -10 28 11 207 8 237 -3 16 -6 39 -11 53 -11 13
0 24 -3 24 -7 0 -16 -54 -75 -83 -89 l-32 -16 30 26 c20 17 25 26 15 27 -81 8
-149 -3 -163 -27 -4 -8 -15 -14 -23 -14 -9 0 -12 -5 -8 -11 5 -9 -12 -10 -61
-4 -97 10 -170 30 -245 68 -79 39 -103 79 -108 179 l-4 68 56 -5 c33 -3 56 -1
56 5 0 6 -6 10 -12 10 -9 0 -8 4 2 10 8 5 20 10 25 10 6 0 17 -5 25 -10z m770
-6 c0 -8 9 -23 21 -35 14 -14 18 -27 13 -41 -4 -15 0 -26 14 -37 19 -14 21
-28 23 -114 1 -54 -1 -100 -4 -104 -4 -3 1 -19 11 -36 13 -22 14 -31 5 -34
-18 -7 -16 -23 3 -23 10 0 14 -6 11 -14 -3 -7 0 -19 6 -25 8 -8 8 -11 -2 -11
-7 0 -9 -5 -6 -10 3 -6 0 -17 -8 -24 -11 -11 -17 -12 -27 -3 -10 9 -11 9 -6 0
4 -7 2 -13 -3 -13 -6 0 -11 -8 -11 -17 -1 -16 -2 -15 -12 2 -6 11 -12 22 -14
24 -2 2 -21 -8 -43 -22 -22 -15 -51 -28 -65 -31 -14 -3 -30 -7 -35 -11 -5 -3
-14 2 -19 11 -6 11 -14 14 -23 8 -16 -10 -49 -6 -66 7 -7 7 -13 5 -16 -3 -5
-10 -9 -10 -19 2 -7 9 -24 16 -38 16 -21 -1 -26 5 -28 33 -2 19 0 37 5 40 5 3
14 18 20 33 15 34 89 74 107 59 9 -7 16 -7 24 1 15 15 16 38 2 38 -5 0 -9 3
-9 8 4 26 -1 34 -16 22 -25 -21 -19 20 10 62 14 20 25 40 25 44 0 4 11 22 25
40 14 18 39 61 55 95 16 34 34 65 39 68 20 13 51 10 51 -5z m874 10 c20 -8 21
-20 2 -27 -8 -3 -16 2 -19 14 -6 21 -5 22 17 13z m1070 -13 c7 -11 -22 -23
-35 -15 -5 3 -7 10 -4 15 8 12 32 12 39 0z m-4152 -38 c28 -15 46 -29 39 -31
-7 -2 -18 1 -24 7 -15 15 -47 14 -47 -1 0 -7 -9 -24 -19 -38 l-19 -25 -7 28
c-4 16 -2 33 4 41 7 8 11 18 10 22 -5 30 0 30 63 -3z m3556 5 c-9 -13 -29 -26
-47 -29 -26 -5 -29 -4 -20 7 6 8 22 14 35 14 15 0 24 6 24 15 0 8 5 15 11 15
7 0 6 -8 -3 -22z m152 -12 c0 -3 -4 -8 -10 -11 -5 -3 -10 -1 -10 4 0 6 5 11
10 11 6 0 10 -2 10 -4z m-3278 -28 c-7 -7 -12 -8 -12 -2 0 14 12 26 19 19 2
-3 -1 -11 -7 -17z m2703 -15 c34 -47 -58 -315 -125 -365 -26 -19 -156 -45
-167 -34 -13 13 16 23 75 28 9 1 12 10 9 25 -3 18 -1 21 9 13 17 -15 79 2 80
21 0 8 -3 26 -7 42 -4 15 -4 27 2 27 5 0 9 11 9 25 0 16 -6 25 -16 25 -11 0
-15 -6 -11 -20 3 -13 -1 -24 -13 -30 -27 -14 -43 -12 -36 5 3 8 0 15 -6 15 -6
0 -8 3 -4 8 4 4 13 7 19 7 7 0 13 8 15 18 2 10 -3 17 -12 17 -18 0 -21 16 -5
26 6 3 15 1 19 -5 5 -9 11 -8 23 4 9 9 25 15 35 13 11 -2 30 3 44 10 19 11 24
21 24 52 -1 21 -4 42 -8 46 -5 4 -8 15 -8 24 0 21 40 24 55 3z m-2690 -28 c0
-11 -8 -21 -17 -23 -14 -3 -18 3 -18 23 0 20 4 26 18 23 9 -2 17 -12 17 -23z
m45 15 c12 -8 11 -10 -7 -10 -13 0 -23 5 -23 10 0 13 11 13 30 0z m3090 0 c8
-5 11 -12 8 -16 -10 -9 -38 3 -38 16 0 12 10 13 30 0z m140 -12 c0 -7 -5 -20
-10 -28 -12 -19 -35 2 -27 24 7 19 37 21 37 4z m-3561 -43 c11 -11 7 -13 -23
-12 -28 1 -36 5 -36 20 0 14 5 17 23 12 12 -4 28 -13 36 -20z m4049 -2 c16
-14 18 -23 12 -40 -17 -43 -60 -17 -60 36 0 26 21 27 48 4z m-1001 -95 c2 -45
-1 -164 -7 -264 -5 -100 -7 -189 -4 -198 4 -11 13 -15 26 -10 10 3 25 0 33 -6
13 -10 16 -7 21 19 4 17 10 31 15 31 5 0 9 8 9 19 0 10 8 25 17 32 15 12 16
12 9 -6 -5 -11 -12 -36 -16 -56 -3 -19 -10 -41 -14 -48 -4 -6 -2 -18 4 -26 9
-11 9 -15 1 -15 -6 0 -11 5 -11 11 0 6 -6 9 -12 7 -7 -3 -14 -25 -15 -51 -2
-46 -34 -130 -53 -142 -5 -3 -15 5 -22 19 -14 33 -28 33 -28 1 0 -23 -16 -87
-57 -235 -17 -60 -65 -172 -71 -166 -2 3 6 37 17 78 18 69 32 161 36 253 1 22
7 57 14 78 7 21 11 44 8 51 -3 8 0 24 7 38 15 28 17 43 15 128 0 36 -5 71 -11
78 -8 9 -8 16 0 24 15 15 16 32 2 23 -5 -3 -10 3 -10 14 0 12 -5 21 -10 21 -6
0 -16 11 -22 25 -12 27 -38 34 -38 10 0 -8 5 -15 11 -15 6 0 8 -9 4 -21 -5
-16 -1 -22 24 -32 17 -6 31 -15 31 -19 0 -15 -22 -19 -37 -7 -13 11 -17 10
-29 -6 -8 -10 -17 -15 -21 -12 -4 4 -1 13 5 19 19 19 14 38 -11 38 -26 0 -77
21 -77 32 0 4 -7 4 -17 1 -10 -4 -14 -2 -10 4 4 6 24 13 45 17 89 14 149 90
204 258 18 53 34 95 37 93 2 -3 6 -42 8 -87z m-3272 34 c-12 -13 -24 22 -12
37 10 12 13 11 15 -8 2 -13 1 -26 -3 -29z m165 3 c7 -14 11 -27 9 -29 -8 -8
-64 -19 -57 -11 8 9 -15 35 -31 35 -6 0 -11 5 -11 10 0 6 7 10 15 10 8 0 15
-4 15 -10 0 -5 5 -10 10 -10 6 0 10 7 10 15 0 24 25 17 40 -10z m140 -1 c0
-23 -3 -25 -22 -19 -13 4 -31 7 -40 8 -18 1 -24 18 -11 30 3 4 21 7 40 7 29 0
33 -3 33 -26z m3513 9 c4 -3 2 -12 -4 -20 -9 -10 -8 -18 6 -33 22 -24 35 -26
35 -5 0 15 25 21 33 8 2 -5 7 -24 11 -43 5 -32 3 -37 -30 -58 -39 -25 -53 -19
-54 21 0 9 -4 17 -8 17 -22 0 -43 96 -25 113 8 9 28 9 36 0z m312 -31 c35 -31
46 -59 35 -87 -9 -24 -35 -43 -45 -33 -3 3 -6 18 -8 34 -2 16 -11 46 -20 66
-29 63 -17 70 38 20z m-4067 11 c5 -17 -26 -29 -40 -15 -6 6 -7 15 -3 22 9 14
37 9 43 -7z m4142 -4 c0 -24 -23 -21 -28 4 -2 10 3 17 12 17 10 0 16 -9 16
-21z m-514 -20 c1 -13 5 -32 9 -41 5 -14 2 -18 -13 -18 -16 0 -23 8 -28 34 -3
19 -3 40 1 46 11 18 30 5 31 -21z m-3412 -19 c16 -17 35 -30 43 -30 7 0 13 -4
13 -10 0 -16 -30 -12 -36 5 -4 8 -10 15 -16 15 -5 0 -21 11 -36 25 -18 17 -22
25 -12 25 8 0 28 -14 44 -30z m4028 15 c0 -5 -5 -11 -11 -13 -6 -2 -11 4 -11
13 0 9 5 15 11 13 6 -2 11 -8 11 -13z m-4212 -5 c0 -5 -5 -10 -11 -10 -5 0 -7
5 -4 10 3 6 8 10 11 10 2 0 4 -4 4 -10z m2617 4 c-3 -3 -12 -4 -19 -1 -8 3 -5
6 6 6 11 1 17 -2 13 -5z m263 -4 c-13 -9 -13 -11 0 -19 8 -6 11 -13 7 -17 -13
-14 -102 -32 -111 -23 -15 14 -36 11 -36 -6 0 -9 8 -14 23 -12 18 2 22 -3 22
-25 1 -16 7 -34 14 -40 11 -11 13 -10 8 5 -8 22 18 23 39 2 19 -19 8 -41 -12
-24 -11 9 -14 8 -14 -4 0 -19 -39 -11 -47 10 -4 10 -14 12 -30 8 -14 -3 -23
-2 -20 2 3 4 -14 9 -36 10 -33 2 -48 10 -74 39 -18 19 -33 39 -33 43 0 9 52 6
105 -4 22 -5 26 -4 15 4 -18 12 -17 13 50 34 55 17 87 23 125 25 16 1 17 0 5
-8z m1285 1 c-3 -5 0 -21 7 -36 9 -21 9 -31 -1 -48 -10 -15 -11 -22 -2 -25 15
-5 14 -32 -1 -34 -7 0 -17 -2 -23 -2 -21 -3 -35 -18 -35 -37 0 -24 -25 -35
-44 -19 -8 6 -17 24 -21 39 -5 24 2 36 49 85 35 35 53 62 50 71 -4 10 0 15 11
15 9 0 14 -4 10 -9z m-1832 -30 c3 -14 1 -18 -9 -14 -8 3 -14 11 -14 19 0 21
17 17 23 -5z m-2247 -18 c-10 -10 -19 5 -10 18 6 11 8 11 12 0 2 -7 1 -15 -2
-18z m2474 -3 c7 -4 8 -10 3 -13 -13 -8 -46 20 -38 33 6 9 9 9 15 0 4 -7 13
-16 20 -20z m-2478 -170 c1 -8 9 -21 15 -28 11 -11 8 -20 -13 -47 -23 -31 -28
-33 -51 -22 -23 10 -28 8 -52 -21 -31 -38 -54 -42 -49 -9 2 14 14 26 33 32 47
17 105 56 105 71 0 8 -4 14 -10 14 -11 0 -13 59 -3 87 6 14 9 8 14 -22 4 -22
9 -47 11 -55z m415 28 c-3 -8 -6 -5 -6 6 -1 11 2 17 5 13 3 -3 4 -12 1 -19z
m1863 -7 c14 -27 3 -56 -16 -40 -15 12 -19 41 -7 52 9 10 11 9 23 -12z m-1952
-32 c-16 -11 -30 -7 -36 9 -2 7 7 16 20 21 17 6 24 5 26 -7 2 -8 -2 -18 -10
-23z m2932 -18 c-6 -23 -13 -41 -16 -41 -7 0 5 70 13 83 12 19 14 -4 3 -42z
m704 28 c-8 -14 -24 -10 -24 6 0 9 6 12 15 9 8 -4 12 -10 9 -15z m-3794 -3 c0
-8 -4 -18 -10 -21 -5 -3 -10 3 -10 14 0 12 5 21 10 21 6 0 10 -6 10 -14z
m1135 -15 c3 -5 1 -12 -5 -16 -5 -3 -10 1 -10 9 0 18 6 21 15 7z m2457 -46 c0
-5 -5 -11 -11 -13 -6 -2 -11 4 -11 13 0 9 5 15 11 13 6 -2 11 -8 11 -13z m194
-30 c7 -18 -13 -45 -33 -45 -19 0 -28 27 -13 45 16 19 39 19 46 0z m-716 -4
c0 -6 -4 -13 -10 -16 -5 -3 -10 1 -10 9 0 9 5 16 10 16 6 0 10 -4 10 -9z m195
-21 c-7 -12 -55 -14 -55 -2 0 4 14 8 30 9 18 1 28 -2 25 -7z m-2975 -14 c-6
-8 -18 -12 -26 -9 -19 7 -7 23 18 23 17 0 18 -3 8 -14z m2540 -33 c0 -15 -2
-16 -10 -3 -8 12 -10 12 -16 -3 -7 -19 -29 -23 -39 -7 -3 6 4 14 17 19 35 15
48 13 48 -6z m471 -30 c-10 -17 -10 -16 -11 3 0 23 13 41 18 25 2 -6 -1 -18
-7 -28z m-3261 12 c0 -18 -41 -37 -54 -24 -13 11 12 39 35 39 11 0 19 -7 19
-15z m25 -25 c-3 -5 -11 -10 -16 -10 -6 0 -7 5 -4 10 3 6 11 10 16 10 6 0 7
-4 4 -10z m3438 -15 c52 -49 24 -80 -44 -50 -42 19 -45 25 -29 56 14 26 40 24
73 -6z m-3316 -2 c5 -13 -30 -21 -65 -14 -21 3 -21 4 -5 17 21 16 65 14 70 -3z
m80 0 c-4 -3 -2 -12 3 -18 11 -13 3 -45 -11 -45 -16 0 -23 52 -8 61 17 10 25
12 16 2z m1356 -23 c41 -15 45 -37 6 -32 -13 1 -39 2 -58 2 -43 -1 -91 9 -91
19 0 11 51 27 80 26 14 -1 42 -8 63 -15z m1674 -12 c-3 -7 -5 -2 -5 12 0 14 2
19 5 13 2 -7 2 -19 0 -25z m-3507 -2 c0 -8 6 -17 13 -19 6 -3 0 -6 -15 -6 -15
-1 -39 -14 -57 -31 -20 -21 -32 -27 -37 -18 -4 6 5 22 22 36 16 14 28 31 26
39 -2 8 7 13 23 13 15 0 25 -6 25 -14z m3569 -5 c19 -12 -4 -24 -30 -16 -17 6
-19 9 -8 16 17 11 21 11 38 0z m66 -31 c3 -5 -1 -10 -9 -10 -8 0 -18 5 -21 10
-3 6 1 10 9 10 8 0 18 -4 21 -10z m-3455 -14 c0 -2 -20 -11 -45 -19 -52 -18
-60 -13 -12 8 32 14 57 19 57 11z m3316 -54 c-12 -12 -18 8 -10 35 l8 28 4
-28 c2 -16 1 -31 -2 -35z m157 43 c41 8 60 -11 55 -56 -4 -40 -20 -47 -47 -20
-12 12 -24 21 -29 21 -11 0 -60 58 -54 64 2 3 13 1 23 -5 11 -5 34 -7 52 -4z
m-2953 -28 c-27 -14 -83 -11 -74 4 3 5 26 9 52 9 45 0 46 -1 22 -13z m-115
-16 c3 -5 1 -12 -5 -16 -5 -3 -10 1 -10 9 0 18 6 21 15 7z m592 -13 c-3 -8 -6
-5 -6 6 -1 11 2 17 5 13 3 -3 4 -12 1 -19z m2858 12 c6 -10 -24 -59 -37 -60
-11 0 -10 28 2 51 12 21 25 25 35 9z m-3521 -70 c-5 -35 -3 -40 15 -40 11 0
22 -4 25 -9 10 -15 -18 -18 -54 -5 -19 7 -29 13 -22 13 14 1 17 31 2 31 -5 0
-10 -4 -10 -8 0 -5 -7 -17 -15 -28 -15 -18 -15 -18 -12 7 2 23 51 78 69 79 4
0 5 -18 2 -40z m2993 25 c8 -9 12 -22 9 -30 -4 -12 -10 -13 -31 -3 -34 15 -33
38 3 47 2 1 10 -6 19 -14z m-2862 -5 c-3 -5 -11 -10 -16 -10 -6 0 -7 5 -4 10
3 6 11 10 16 10 6 0 7 -4 4 -10z m3397 -25 c0 -5 -5 -11 -11 -13 -6 -2 -11 4
-11 13 0 9 5 15 11 13 6 -2 11 -8 11 -13z m-3644 -7 c16 -16 -14 -37 -55 -38
-26 0 -33 -4 -33 -19 0 -11 -9 -21 -21 -24 -19 -5 -20 -4 -5 12 22 24 5 38
-49 44 -28 3 -22 4 20 4 71 0 127 12 119 24 -8 13 10 11 24 -3z m309 -53 c-1
-25 -5 -45 -8 -45 -11 0 -15 80 -4 84 5 2 11 5 12 5 1 1 1 -19 0 -44z m1068
34 c11 -17 -5 -30 -26 -19 -10 6 -19 14 -19 18 0 11 39 12 45 1z m114 4 c14
11 14 10 0 -12 -22 -34 -37 -37 -35 -7 0 15 5 21 10 16 6 -6 16 -5 25 3z
m2176 -3 c-3 -5 -13 -10 -21 -10 -8 0 -12 5 -9 10 3 6 13 10 21 10 8 0 12 -4
9 -10z m65 0 c0 -5 -7 -10 -15 -10 -8 0 -15 5 -15 10 0 6 7 10 15 10 8 0 15
-4 15 -10z m-2160 -35 c0 -1 -7 -8 -15 -15 -13 -10 -15 -9 -15 8 0 15 5 20 15
16 8 -4 15 -7 15 -9z m2107 1 c3 -3 3 -12 0 -21 -7 -16 -47 -21 -47 -6 0 5 -9
13 -20 16 -11 3 -20 11 -20 17 0 11 76 6 87 -6z m-192 -5 c3 -5 1 -12 -5 -16
-5 -3 -10 1 -10 9 0 18 6 21 15 7z m-2278 -27 c2 -13 1 -15 -4 -4 -3 8 -11 19
-17 23 -7 6 -6 7 4 4 8 -2 16 -12 17 -23z m-415 1 c0 -5 -5 -11 -11 -13 -6 -2
-11 4 -11 13 0 9 5 15 11 13 6 -2 11 -8 11 -13z m2378 5 c0 -5 -4 -10 -9 -10
-6 0 -13 5 -16 10 -3 6 1 10 9 10 9 0 16 -4 16 -10z m-2260 -45 c0 -14 -4 -25
-9 -25 -4 0 -6 11 -3 25 2 14 6 25 8 25 2 0 4 -11 4 -25z m-996 -1 c10 -25 7
-31 -14 -37 -17 -4 -18 -2 -9 15 8 16 8 23 -2 29 -11 7 -11 9 2 9 9 0 20 -7
23 -16z m173 10 c-3 -3 -12 -4 -19 -1 -8 3 -5 6 6 6 11 1 17 -2 13 -5z m246
-24 c9 -16 12 -32 9 -34 -11 -7 -52 31 -52 48 0 27 28 18 43 -14z m2902 20
c-3 -5 -10 -10 -16 -10 -5 0 -9 5 -9 10 0 6 7 10 16 10 8 0 12 -4 9 -10z
m-190 -20 c3 -5 -1 -10 -9 -10 -9 0 -16 5 -16 10 0 6 4 10 9 10 6 0 13 -4 16
-10z m81 -4 c29 -22 5 -43 -27 -24 -13 7 -26 14 -28 15 -1 1 0 6 4 12 9 15 28
14 51 -3z m621 -38 c-3 -7 -5 -2 -5 12 0 14 2 19 5 13 2 -7 2 -19 0 -25z
m-4103 14 c5 -8 -5 -14 -58 -40 -4 -3 0 7 9 22 17 26 39 34 49 18z m1651 -21
c-6 -5 -25 10 -25 20 0 5 6 4 14 -3 8 -7 12 -15 11 -17z m2105 19 c0 -5 -4
-10 -9 -10 -6 0 -13 5 -16 10 -3 6 1 10 9 10 9 0 16 -4 16 -10z m-459 -16 c12
-14 11 -16 -5 -13 -11 2 -21 10 -24 17 -5 17 13 15 29 -4z m-2721 -9 c0 -8 6
-15 14 -15 14 0 86 -74 86 -89 0 -12 -54 -67 -74 -74 -11 -4 -15 -13 -12 -24
4 -14 0 -18 -19 -18 -30 0 -32 12 -4 41 l21 22 -21 12 c-18 9 -19 14 -10 32
10 18 8 24 -11 38 l-23 18 22 12 c17 9 20 15 12 23 -16 16 -14 37 4 37 8 0 15
-7 15 -15z m-775 -5 c-3 -5 -11 -10 -16 -10 -6 0 -7 5 -4 10 3 6 11 10 16 10
6 0 7 -4 4 -10z m1851 -18 c10 10 36 -20 29 -33 -4 -5 1 -17 11 -24 18 -14 18
-14 -3 -15 -25 0 -63 44 -63 74 0 17 2 18 10 6 5 -8 12 -11 16 -8z m1545 5
c-1 -12 -15 -9 -19 4 -3 6 1 10 8 8 6 -3 11 -8 11 -12z m471 1 c7 -7 35 -24
61 -37 49 -25 53 -36 13 -43 -28 -6 -56 7 -56 26 0 7 -9 21 -20 31 -11 10 -20
22 -20 27 0 11 6 10 22 -4z m-3303 -19 c-22 -14 -33 -10 -19 6 7 8 17 12 22 9
6 -4 5 -10 -3 -15z m3021 0 c-7 -11 -14 -19 -16 -16 -7 7 7 37 17 37 6 0 5 -9
-1 -21z m-3303 -43 c-6 -16 -28 -23 -26 -8 1 4 0 9 -1 12 -1 3 -3 15 -4 28 -3
23 -3 23 17 3 11 -11 17 -26 14 -35z m340 46 c10 -6 10 -12 -1 -28 -17 -23
-41 -8 -30 19 7 19 13 20 31 9z m-517 -27 c-7 -8 -17 -15 -23 -15 -5 0 -2 9 8
20 21 23 35 19 15 -5z m570 4 c0 -5 7 -9 15 -9 8 0 15 -7 15 -15 0 -21 -16
-19 -40 5 -24 24 -26 42 -5 34 8 -4 15 -10 15 -15z m2868 11 c6 0 12 -4 12
-10 0 -5 -7 -10 -15 -10 -8 0 -15 -9 -15 -20 0 -25 -16 -26 -30 -1 -18 34 -13
54 13 47 12 -3 28 -6 35 -6z m-3223 -10 c-3 -5 -12 -10 -18 -10 -7 0 -6 4 3
10 19 12 23 12 15 0z m173 -20 c1 -25 -4 -31 -26 -36 -36 -9 -54 -24 -47 -41
3 -8 -1 -24 -9 -35 -9 -13 -15 -15 -18 -7 -3 9 -9 9 -24 1 -18 -10 -18 -11 -1
-18 17 -6 17 -7 -2 -21 -12 -8 -30 -11 -44 -8 -23 6 -24 4 -23 -41 0 -29 -5
-49 -12 -52 -8 -2 -12 8 -13 30 -2 53 -14 83 -32 82 -9 -1 -17 2 -17 8 0 16
54 58 69 53 21 -8 39 12 34 38 -4 19 1 26 26 36 16 7 34 10 40 7 12 -8 91 16
91 26 0 5 2 8 3 8 2 0 4 -13 5 -30z m1277 20 c3 -5 1 -10 -4 -10 -6 0 -11 5
-11 10 0 6 2 10 4 10 3 0 8 -4 11 -10z m1565 6 c0 -3 -4 -8 -10 -11 -5 -3 -10
-1 -10 4 0 6 5 11 10 11 6 0 10 -2 10 -4z m-1496 -33 c4 -9 2 -19 -4 -23 -15
-9 -3 -36 26 -55 23 -15 24 -14 24 5 0 11 5 20 11 20 7 0 8 -11 4 -30 -6 -26
-3 -30 19 -36 14 -3 40 -1 58 5 21 8 34 8 38 1 4 -7 17 -5 38 6 37 18 251 22
292 6 l25 -11 -24 0 c-19 -1 -22 -4 -14 -12 8 -8 20 -8 40 -2 20 7 37 6 58 -3
17 -7 26 -14 20 -14 -10 -1 82 -29 98 -30 4 0 12 10 16 23 9 21 10 21 24 -13
14 -32 14 -36 -1 -42 -16 -6 -16 -7 0 -7 9 -1 20 4 23 9 9 14 25 2 25 -18 -1
-25 -36 -67 -44 -53 -13 20 -39 13 -33 -9 4 -15 0 -20 -13 -20 -10 0 -20 -6
-23 -14 -7 -19 -75 -30 -93 -15 -7 6 -11 16 -8 21 4 6 -2 8 -14 4 -15 -5 -24
-1 -32 14 -13 24 -23 25 -45 3 -11 -10 -38 -18 -73 -20 -32 -1 -74 -6 -94 -9
-31 -5 -38 -3 -38 10 0 9 -4 16 -10 16 -6 0 -9 -4 -8 -9 6 -18 -54 -63 -76
-57 -19 5 -20 4 -3 -8 25 -19 22 -22 -22 -18 -32 3 -39 0 -44 -17 -5 -21 -27
-30 -27 -11 0 18 -18 11 -23 -9 -3 -15 -13 -19 -38 -18 -29 2 -34 6 -37 28 -2
17 -11 29 -23 32 -11 3 -23 15 -26 26 -3 12 -9 21 -13 21 -5 0 -4 -14 1 -32
11 -39 -2 -58 -26 -38 -13 11 -13 15 -3 21 9 6 9 9 1 9 -6 0 -14 -4 -17 -9 -3
-4 -17 -6 -30 -4 -22 4 -24 9 -19 34 7 34 -4 38 -17 7 -7 -18 -9 -19 -9 -5 -1
9 -5 17 -11 17 -17 0 -11 20 9 28 13 5 16 13 12 26 -7 17 -8 17 -23 2 -12 -12
-18 -13 -21 -3 -3 7 -6 5 -6 -5 -1 -10 -8 -18 -17 -18 -11 0 -13 -6 -9 -19 3
-11 1 -22 -5 -26 -5 -3 -10 2 -10 12 0 14 -2 15 -9 4 -5 -8 -11 -9 -15 -3 -3
5 1 15 9 22 8 7 15 22 16 34 0 20 1 21 9 1 7 -17 9 -17 9 -2 1 9 6 17 11 17
13 0 13 57 0 65 -13 8 -3 25 16 25 8 0 23 9 34 20 18 18 18 20 2 36 -16 16
-14 17 26 12 37 -5 42 -4 42 14 0 11 6 26 14 34 8 7 16 19 19 26 3 11 9 11 26
0 20 -11 21 -10 21 18 0 33 23 42 34 13z m-1250 -12 c9 -14 -26 -91 -42 -91
-9 0 -12 6 -8 16 4 9 -1 28 -9 41 -12 18 -13 24 -3 27 7 3 20 7 28 9 23 8 28
8 34 -2z m372 -23 c10 -15 -32 -48 -62 -48 -31 0 -31 18 0 30 13 5 27 14 31
19 8 14 22 14 31 -1z m2819 -8 c3 -5 -1 -10 -9 -10 -9 0 -16 5 -16 10 0 6 4
10 9 10 6 0 13 -4 16 -10z m-3055 -24 c0 -18 -47 -49 -55 -36 -9 14 18 50 37
50 10 0 18 -6 18 -14z m1870 -31 c0 -5 -5 -3 -10 5 -5 8 -10 20 -10 25 0 6 5
3 10 -5 5 -8 10 -19 10 -25z m1212 -7 c-13 -13 -32 -2 -32 18 0 12 4 13 21 3
14 -7 18 -14 11 -21z m-2402 7 c4 3 3 -6 -3 -19 -10 -20 -13 -22 -20 -10 -5 8
-6 23 -2 32 5 12 9 13 12 4 3 -6 8 -10 13 -7z m-920 -20 c0 -8 -7 -15 -15 -15
-9 0 -12 6 -9 15 4 8 10 15 15 15 5 0 9 -7 9 -15z m3636 -3 c-10 -9 -56 -11
-56 -2 0 5 10 10 23 12 24 4 42 -1 33 -10z m-3069 -9 c1 -33 -17 -43 -38 -22
-19 19 -26 34 -11 25 4 -2 14 -1 22 5 21 13 27 11 27 -8z m2893 -3 c0 -5 -9
-14 -20 -20 -22 -12 -27 -1 -8 18 14 14 28 16 28 2z m-2476 -6 c24 -9 21 -54
-4 -54 -23 0 -26 10 -8 28 9 9 4 12 -22 12 -26 0 -31 3 -20 10 17 11 32 12 54
4z m2576 -14 c0 -5 -5 -10 -11 -10 -5 0 -7 5 -4 10 3 6 8 10 11 10 2 0 4 -4 4
-10z m-3076 -15 c-25 -19 -40 -19 -24 0 7 8 20 15 28 15 13 0 12 -3 -4 -15z
m-451 -10 c10 12 20 14 51 8 46 -10 57 -27 24 -38 -19 -6 -20 -8 -5 -12 45
-12 -4 -49 -63 -47 -49 1 -60 15 -34 41 17 17 17 18 -5 21 -22 4 -22 4 -4 24
16 18 18 18 21 3 3 -15 5 -15 15 0z m197 0 c0 -8 5 -15 10 -15 18 0 11 -29
-10 -40 -11 -6 -20 -8 -20 -4 0 4 -8 0 -19 -10 -16 -14 -20 -15 -30 -2 -7 8
-14 26 -17 40 -4 22 0 27 28 35 48 13 58 13 58 -4z m2383 0 c-3 -9 -8 -14 -10
-11 -3 3 -2 9 2 15 9 16 15 13 8 -4z m-2223 -25 c0 -5 -5 -10 -11 -10 -5 0 -7
5 -4 10 3 6 8 10 11 10 2 0 4 -4 4 -10z m220 -31 l0 -41 -25 16 c-36 24 -69
15 -73 -19 -3 -20 0 -25 10 -20 7 4 0 -5 -16 -20 -31 -29 -44 -24 -52 18 -3
20 4 36 29 63 30 33 36 35 56 24 19 -10 26 -9 39 4 25 25 32 19 32 -25z m358
-14 c-3 -3 -9 2 -12 12 -6 14 -5 15 5 6 7 -7 10 -15 7 -18z m142 21 c0 -2 -7
-6 -15 -10 -8 -3 -15 -1 -15 4 0 6 7 10 15 10 8 0 15 -2 15 -4z m2488 -31 c-3
-3 -9 2 -12 12 -6 14 -5 15 5 6 7 -7 10 -15 7 -18z m-3194 1 c-21 -15 -30 -14
-19 3 3 6 14 11 23 11 13 0 13 -2 -4 -14z m-75 -10 c8 -10 9 -16 1 -21 -13 -8
-30 3 -30 21 0 18 14 18 29 0z m3425 8 c24 -9 19 -27 -15 -57 l-31 -27 -19 21
c-25 29 -25 47 0 25 15 -14 21 -15 27 -4 5 7 7 21 6 31 -3 18 6 21 32 11z
m-4114 -22 c0 -15 -24 -32 -45 -32 -11 0 -31 -7 -43 -16 -24 -17 -27 -13 -12
17 6 10 19 19 30 19 10 0 22 5 25 10 7 12 45 14 45 2z m227 -9 c3 -7 -11 -15
-34 -19 -21 -3 -68 -21 -105 -39 -65 -32 -82 -30 -55 6 7 9 30 19 52 22 69 9
110 23 107 36 -3 16 30 10 35 -6z m3498 -3 c4 -6 2 -17 -4 -24 -6 -7 -9 -21
-5 -30 8 -21 -19 -22 -36 -1 -12 14 -40 21 -40 9 0 -3 4 -14 10 -24 7 -13 6
-19 -6 -24 -20 -8 -34 1 -34 21 0 12 -6 14 -27 9 l-28 -7 26 25 c15 14 29 31
31 38 4 11 8 10 21 -1 15 -11 20 -11 39 2 27 19 44 21 53 7z m215 1 c0 -14
-18 -23 -30 -16 -6 4 -8 11 -5 16 8 12 35 12 35 0z m-3622 -68 c1 -12 -3 -23
-8 -23 -6 0 -10 4 -10 9 0 5 -9 13 -20 16 -13 4 -20 15 -20 30 0 23 1 24 28 8
17 -9 29 -26 30 -40z m82 42 c14 -16 10 -18 -14 -9 -9 3 -16 10 -16 15 0 14
16 11 30 -6z m-198 -37 c-12 -12 -35 -1 -27 12 3 5 13 6 21 3 10 -4 12 -9 6
-15z m3056 -5 c-7 -16 -18 -35 -25 -44 -16 -19 -8 -29 24 -29 30 0 29 -20 -1
-55 -27 -31 -51 -26 -42 10 4 15 0 30 -10 39 -18 19 -16 19 -48 6 -30 -11 -32
-7 -10 19 9 10 24 16 34 14 12 -3 27 7 45 31 33 43 49 47 33 9z m282 14 c0 -7
-15 -21 -34 -31 -31 -16 -37 -17 -55 -4 -17 12 -19 17 -9 26 27 21 98 28 98 9z
m365 -37 c-12 -13 -21 -17 -25 -10 -4 6 -14 8 -23 4 -9 -3 -17 -2 -17 3 0 17
13 23 48 23 35 0 35 0 17 -20z m-3799 -21 c-32 -17 -37 -25 -33 -45 3 -16 0
-23 -7 -21 -6 2 -11 17 -11 33 0 30 31 54 70 53 14 0 9 -6 -19 -20z m114 15
c0 -3 -13 -19 -29 -35 -26 -25 -30 -27 -42 -13 -11 13 -9 19 11 35 24 18 60
26 60 13z m3368 -13 c3 -8 -1 -12 -9 -9 -7 2 -15 10 -17 17 -3 8 1 12 9 9 7
-2 15 -10 17 -17z m-3126 -18 c-12 -22 -4 -46 11 -36 7 4 5 -1 -3 -11 -13 -16
-12 -20 5 -32 10 -8 13 -14 7 -14 -7 0 -12 -7 -12 -15 0 -27 -28 -16 -32 13
-3 15 -8 34 -12 43 -4 9 -1 22 6 30 8 8 17 23 21 33 4 10 10 16 13 13 3 -3 1
-14 -4 -24z m178 6 c0 -5 -2 -9 -4 -9 -2 0 -11 -3 -19 -6 -12 -4 -14 0 -10 15
5 19 33 19 33 0z m2906 -14 c4 -8 3 -23 -1 -32 -7 -17 -8 -16 -15 2 -5 11 -9
26 -9 33 -1 17 18 15 25 -3z m-381 -56 c4 -11 12 -18 18 -16 19 6 37 -19 37
-50 -1 -25 -2 -26 -14 -10 -7 9 -18 17 -25 17 -6 0 -19 13 -29 29 -23 37 -40
28 -67 -33 -11 -25 -24 -44 -30 -43 -17 6 -17 55 -1 78 32 47 100 64 111 28z
m-2785 -5 c0 -3 -9 -17 -20 -31 -22 -28 -28 -15 -8 17 12 19 28 27 28 14z
m3064 -16 c3 -15 0 -27 -9 -34 -10 -7 -13 -18 -8 -29 5 -15 3 -15 -15 3 -27
27 -28 50 -4 68 24 18 29 17 36 -8z m623 16 c-3 -3 -12 -4 -19 -1 -8 3 -5 6 6
6 11 1 17 -2 13 -5z m-3117 -82 c0 -4 14 -13 32 -21 29 -13 30 -15 13 -28 -28
-20 -45 -16 -45 12 0 14 -4 25 -10 25 -5 0 -10 5 -10 10 0 6 5 10 10 10 6 0
10 -3 10 -8z m-580 -37 c0 -30 -24 -43 -45 -25 -8 7 -15 9 -15 5 0 -5 -3 -5
-7 -2 -9 10 29 46 50 46 12 1 17 -7 17 -24z m3614 0 c3 -8 1 -15 -4 -15 -6 0
-10 7 -10 15 0 8 2 15 4 15 2 0 6 -7 10 -15z m-3064 -15 c0 -11 -4 -20 -10
-20 -5 0 -10 9 -10 20 0 11 5 20 10 20 6 0 10 -9 10 -20z m2305 0 c-3 -5 -10
-10 -16 -10 -5 0 -9 5 -9 10 0 6 7 10 16 10 8 0 12 -4 9 -10z m-3067 -31 c4
-21 -43 -69 -68 -69 -31 0 -24 30 10 42 24 8 29 14 24 30 -5 15 -2 19 12 16
11 -2 20 -10 22 -19z m302 14 c0 -5 -4 -14 -9 -21 -7 -11 -9 -11 -14 1 -3 8
-3 18 0 21 9 8 23 7 23 -1z m2940 -41 c-14 -2 -28 -9 -32 -16 -6 -8 -8 -8 -8
1 0 17 31 32 49 25 12 -5 9 -8 -9 -10z m-3108 -47 c-5 -28 -8 -29 -42 -15 -46
19 -34 41 20 37 19 -2 24 -7 22 -22z m-147 -5 c3 -5 -1 -10 -10 -10 -9 0 -13
5 -10 10 3 6 8 10 10 10 2 0 7 -4 10 -10z m244 -7 c-21 -26 -32 -33 -56 -33
-24 0 -28 7 -15 26 9 14 31 22 61 23 21 1 22 -1 10 -16z m151 -29 c-15 -17
-36 -18 -46 -2 -4 6 3 19 16 30 21 17 24 18 33 3 5 -10 4 -21 -3 -31z m488 27
c10 -6 10 -10 -2 -20 -8 -7 -13 -18 -10 -25 7 -18 -85 -93 -99 -80 -8 9 14 30
40 38 30 10 44 30 45 65 1 33 5 36 26 22z m-785 -49 c10 -14 -6 -62 -19 -62
-9 0 -14 12 -14 35 0 24 5 35 14 35 8 0 17 -3 19 -8z m-89 -45 c1 -24 -4 -37
-12 -37 -17 0 -25 25 -18 56 10 37 29 25 30 -19z m921 33 c3 -5 -3 -10 -15
-10 -12 0 -18 5 -15 10 3 6 10 10 15 10 5 0 12 -4 15 -10z m2560 1 l20 -2 -20
-8 c-11 -5 -23 -4 -26 1 -3 5 -13 6 -21 3 -9 -4 -18 -2 -21 2 -5 8 13 9 68 4z
m-2999 -37 c-11 -7 -22 -12 -25 -9 -2 3 4 12 15 19 10 8 21 12 24 9 3 -2 -4
-11 -14 -19z m-35 -30 c16 -28 16 -44 0 -44 -5 0 -11 8 -15 18 -3 9 -10 27
-16 40 -15 35 10 23 31 -14z m-345 -10 c2 -10 -4 -14 -19 -12 -26 4 -34 25
-10 30 22 5 26 2 29 -18z m3879 -15 c4 -11 4 -23 1 -26 -8 -9 -47 28 -40 38
10 16 33 9 39 -12z m-3087 -11 c-2 -6 -14 -12 -26 -13 -28 -2 -28 3 1 15 29
12 29 12 25 -2z m-765 -36 c-3 -12 -12 -22 -20 -22 -11 0 -10 5 4 24 21 28 24
28 16 -2z m152 19 c10 -17 -12 -21 -25 -6 -10 12 -10 15 3 15 9 0 18 -4 22 -9z
m281 -36 c8 -20 12 -40 9 -45 -3 -4 5 -6 17 -2 14 3 19 2 14 -6 -4 -7 -2 -12
4 -12 7 0 9 8 5 20 -10 30 14 24 26 -6 5 -15 8 -27 7 -28 -2 -1 -18 -7 -36
-13 -40 -14 -62 3 -62 48 0 25 -3 29 -19 24 -26 -8 -33 7 -15 33 21 31 33 27
50 -13z m-486 7 c0 -25 -11 -34 -26 -21 -10 8 -19 4 -35 -15 -23 -26 -39 -26
-39 0 0 24 38 54 70 54 22 0 30 -5 30 -18z m368 -2 c6 0 12 -4 12 -10 0 -5 -6
-10 -13 -10 -8 0 -22 -9 -32 -20 -22 -24 -47 -27 -38 -4 4 12 0 14 -21 8 -16
-4 -26 -2 -26 5 0 6 11 11 25 11 14 0 28 7 32 16 4 10 13 14 27 10 11 -3 27
-6 34 -6z m409 -22 c-3 -7 -5 -2 -5 12 0 14 2 19 5 13 2 -7 2 -19 0 -25z
m-147 -3 c-27 -14 -36 -13 -25 4 3 6 16 11 28 11 21 -1 21 -1 -3 -15z m-835
-5 c-3 -5 -15 -10 -26 -10 -10 0 -19 5 -19 10 0 6 12 10 26 10 14 0 23 -4 19
-10z m-68 -27 c-15 -16 -17 -16 -17 -1 0 9 6 18 13 21 20 7 22 -2 4 -20z m313
-30 c-1 -19 -19 -35 -30 -28 -10 6 -9 11 5 22 22 15 25 16 25 6z m3893 0 c-7
-2 -21 -2 -30 0 -10 3 -4 5 12 5 17 0 24 -2 18 -5z"/>
<path d="M4158 3064 c6 -3 12 -14 12 -25 0 -10 5 -19 11 -19 20 0 5 45 -16 47
-11 2 -14 0 -7 -3z"/>
<path d="M4170 2970 c0 -5 5 -10 10 -10 6 0 10 5 10 10 0 6 -4 10 -10 10 -5 0
-10 -4 -10 -10z"/>
<path d="M3245 1777 c-4 -10 -5 -21 -1 -24 10 -10 18 4 13 24 -4 17 -4 17 -12
0z"/>
<path d="M3313 1520 c3 -11 1 -20 -4 -20 -5 0 -9 -3 -9 -7 0 -5 11 -8 25 -8
14 0 23 5 20 10 -3 6 -8 18 -11 28 -9 24 -28 22 -21 -3z"/>
<path d="M3308 1464 c-4 -3 0 -13 8 -21 19 -20 28 -12 11 11 -7 9 -16 14 -19
10z"/>
<path d="M4180 2000 c0 -5 4 -10 9 -10 6 0 13 5 16 10 3 6 -1 10 -9 10 -9 0
-16 -4 -16 -10z"/>
<path d="M830 1112 c0 -5 9 -17 20 -27 22 -20 26 -14 10 16 -11 19 -30 26 -30
11z"/>
<path d="M355 970 c-3 -5 -2 -10 4 -10 5 0 13 5 16 10 3 6 2 10 -4 10 -5 0
-13 -4 -16 -10z"/>
<path d="M2496 891 c-4 -7 -5 -15 -2 -18 9 -9 19 4 14 18 -4 11 -6 11 -12 0z"/>
<path d="M2560 885 c0 -8 -6 -15 -12 -15 -9 0 -10 -3 -2 -8 6 -4 13 -14 16
-22 4 -12 7 -10 17 8 9 16 9 22 0 22 -6 0 -9 7 -5 15 3 8 1 15 -4 15 -6 0 -10
-7 -10 -15z"/>
<path d="M2280 839 c0 -5 5 -7 10 -4 6 3 10 8 10 11 0 2 -4 4 -10 4 -5 0 -10
-5 -10 -11z"/>
<path d="M2231 823 c-1 -14 5 -23 14 -23 9 0 15 9 15 23 0 16 -3 18 -9 8 -7
-11 -9 -11 -14 0 -3 8 -6 4 -6 -8z"/>
<path d="M2530 824 c0 -8 5 -12 10 -9 6 3 10 10 10 16 0 5 -4 9 -10 9 -5 0
-10 -7 -10 -16z"/>
<path d="M2283 793 c9 -2 23 -2 30 0 6 3 -1 5 -18 5 -16 0 -22 -2 -12 -5z"/>
<path d="M1731 744 c0 -11 3 -14 6 -6 3 7 2 16 -1 19 -3 4 -6 -2 -5 -13z"/>
<path d="M1751 744 c0 -11 3 -14 6 -6 3 7 2 16 -1 19 -3 4 -6 -2 -5 -13z"/>
<path d="M1910 681 c0 -6 5 -13 10 -16 6 -3 10 1 10 9 0 9 -4 16 -10 16 -5 0
-10 -4 -10 -9z"/>
<path d="M1797 4383 c-11 -10 -8 -91 3 -98 6 -3 7 1 4 9 -3 9 -1 16 4 16 6 0
14 -9 17 -20 4 -11 11 -18 16 -14 5 3 7 14 4 25 -4 11 -2 19 4 19 15 0 13 31
-3 53 -13 17 -37 22 -49 10z"/>
<path d="M1860 4381 c0 -29 79 -51 99 -27 7 8 10 20 6 26 -8 12 -105 14 -105
1z"/>
<path d="M1990 4381 c0 -13 26 -32 33 -24 4 3 7 1 7 -5 0 -7 13 -12 28 -12 27
0 52 15 52 32 0 12 -38 10 -46 -3 -4 -7 -9 -7 -13 -2 -8 13 -61 26 -61 14z"/>
<path d="M2132 4374 c24 -25 96 -26 109 -3 9 18 5 19 -58 19 -62 0 -66 -1 -51
-16z"/>
<path d="M2298 4350 c4 -36 6 -39 24 -29 10 6 22 19 27 31 6 18 8 18 20 4 15
-18 31 -21 31 -5 0 21 -27 37 -66 37 l-39 1 3 -39z"/>
<path d="M2420 4382 c0 -5 7 -17 15 -28 14 -18 14 -18 15 9 0 17 -5 27 -15 27
-8 0 -15 -4 -15 -8z"/>
<path d="M2505 4370 c7 -21 -10 -29 -18 -7 -2 6 -8 9 -12 5 -15 -14 16 -36 48
-36 18 0 34 -1 37 -2 3 -1 12 -3 20 -5 8 -2 24 -7 35 -11 19 -8 19 -7 3 18
-10 15 -15 34 -12 42 5 13 -3 16 -51 16 -52 0 -56 -2 -50 -20z"/>
<path d="M2623 4374 c-3 -8 -1 -20 6 -27 6 -6 11 -27 11 -46 0 -27 3 -32 10
-21 5 8 10 36 10 63 0 36 -4 47 -15 47 -9 0 -18 -7 -22 -16z"/>
<path d="M2831 4369 c8 -16 8 -28 0 -46 -14 -30 -14 -53 -1 -53 6 0 10 9 10
21 0 12 8 23 20 26 23 6 24 10 8 46 -7 15 -21 27 -31 27 -15 0 -16 -3 -6 -21z"/>
<path d="M3240 4352 c0 -21 6 -44 13 -50 17 -18 39 -184 26 -197 -7 -7 -17 -2
-29 13 -10 12 -22 22 -26 22 -4 0 -3 -5 4 -12 16 -16 15 -48 0 -48 -7 0 -24
-3 -37 -7 -21 -5 -23 -3 -19 18 3 13 9 31 12 40 6 13 2 17 -17 15 -15 0 -23
-6 -20 -13 6 -16 -11 -17 -38 -3 -12 7 -19 21 -19 40 0 17 -4 30 -8 30 -4 0
-23 25 -41 55 -18 30 -40 55 -48 55 -11 0 -11 -4 -3 -21 16 -28 6 -49 -19 -42
-17 4 -21 1 -21 -21 0 -14 5 -26 11 -26 6 0 9 -9 6 -20 -3 -11 -1 -20 5 -20 5
0 6 -9 3 -21 -7 -20 -6 -20 18 -4 14 9 27 25 30 35 7 27 37 26 37 0 0 -11 16
-35 35 -53 19 -17 35 -38 35 -44 0 -7 7 -13 16 -13 12 0 15 -7 12 -25 -3 -14
-1 -25 3 -25 5 0 9 -8 9 -19 0 -45 53 -50 64 -5 8 32 26 31 26 -2 0 -14 4 -23
9 -20 5 3 11 -3 14 -14 3 -11 1 -22 -3 -25 -4 -3 -6 -14 -3 -25 3 -12 0 -20
-7 -20 -21 0 -5 -23 18 -25 12 -1 22 1 22 4 0 15 47 57 58 53 11 -3 13 11 7
74 -12 130 -19 159 -38 158 -9 -1 -14 2 -11 7 11 18 -8 77 -27 82 -10 3 -19
12 -19 21 0 19 7 20 44 4 22 -11 26 -18 23 -40 -2 -19 1 -28 11 -28 7 0 16 -9
19 -19 8 -33 31 -12 37 34 4 24 14 49 21 55 8 7 15 21 15 32 0 15 5 19 20 15
21 -5 40 17 40 47 0 12 -5 14 -24 6 -21 -7 -26 -6 -31 10 -6 18 -16 20 -111
20 l-104 0 0 -38z m20 -292 c0 -5 -5 -10 -11 -10 -5 0 -7 5 -4 10 3 6 8 10 11
10 2 0 4 -4 4 -10z"/>
<path d="M4302 4378 c6 -18 28 -21 28 -4 0 9 -7 16 -16 16 -9 0 -14 -5 -12
-12z"/>
<path d="M4356 4374 c-10 -25 -7 -34 9 -28 8 4 15 15 15 25 0 23 -16 25 -24 3z"/>
<path d="M2680 4331 c0 -6 4 -13 10 -16 6 -3 7 1 4 9 -7 18 -14 21 -14 7z"/>
<path d="M2351 4313 c-1 -7 -1 -16 -1 -20 0 -5 9 -9 20 -9 11 -1 20 3 20 7 0
5 -6 9 -14 9 -8 0 -17 6 -19 13 -4 10 -6 10 -6 0z"/>
<path d="M2671 4284 c0 -11 3 -14 6 -6 3 7 2 16 -1 19 -3 4 -6 -2 -5 -13z"/>
<path d="M2850 4270 c0 -13 7 -20 20 -20 11 0 20 3 20 8 0 4 -9 13 -20 20 -18
11 -20 10 -20 -8z"/>
<path d="M2277 4264 c-3 -4 1 -16 9 -28 8 -13 11 -26 7 -29 -3 -4 -1 -7 6 -7
7 0 10 -4 7 -9 -3 -4 1 -16 8 -26 11 -16 13 -16 19 -2 3 9 2 19 -3 22 -6 4
-10 11 -10 16 0 6 5 7 10 4 6 -3 10 1 10 9 0 9 -6 16 -14 16 -8 0 -21 9 -29
20 -8 11 -17 17 -20 14z"/>
<path d="M3475 4202 c-3 -21 -2 -49 4 -62 8 -21 10 -14 10 38 1 70 -4 80 -14
24z"/>
<path d="M2230 4220 c0 -5 5 -10 11 -10 5 0 7 5 4 10 -3 6 -8 10 -11 10 -2 0
-4 -4 -4 -10z"/>
<path d="M3220 4221 c0 -5 7 -14 15 -21 13 -10 15 -9 15 9 0 12 -6 21 -15 21
-8 0 -15 -4 -15 -9z"/>
<path d="M1512 4189 c2 -7 10 -15 17 -17 8 -3 12 1 9 9 -2 7 -10 15 -17 17 -8
3 -12 -1 -9 -9z"/>
<path d="M2060 4180 c0 -5 5 -9 11 -7 6 1 14 -4 16 -10 3 -7 0 -13 -6 -13 -6
0 -11 -7 -11 -15 0 -19 5 -19 30 2 20 18 28 39 10 28 -5 -3 -10 1 -10 9 0 9
-9 16 -20 16 -11 0 -20 -4 -20 -10z"/>
<path d="M2402 4171 c10 -17 9 -23 -6 -40 -25 -28 -40 -27 -25 2 10 19 10 20
-2 10 -21 -17 -52 -73 -40 -73 5 0 15 8 20 18 10 16 10 16 11 -1 0 -15 5 -13
28 11 15 16 33 27 39 25 7 -3 17 5 23 16 8 17 8 21 -3 21 -8 0 -20 7 -27 15
-18 22 -32 18 -18 -4z"/>
<path d="M2153 4158 c-7 -13 -22 -90 -26 -138 -1 -16 4 -26 16 -28 13 -3 23 9
38 42 22 50 18 76 -9 54 -14 -11 -15 -10 -7 7 22 53 13 102 -12 63z"/>
<path d="M1496 4150 c6 -8 13 -22 16 -30 3 -9 7 -10 11 -3 4 6 -3 19 -16 29
-12 11 -17 12 -11 4z"/>
<path d="M1700 4105 c0 -8 5 -15 10 -15 6 0 10 7 10 15 0 8 -4 15 -10 15 -5 0
-10 -7 -10 -15z"/>
<path d="M3410 4080 c0 -5 5 -10 10 -10 6 0 10 5 10 10 0 6 -4 10 -10 10 -5 0
-10 -4 -10 -10z"/>
<path d="M1400 4072 c0 -5 11 -14 25 -20 24 -11 25 -10 15 8 -10 20 -40 28
-40 12z"/>
<path d="M1526 4015 c-6 -17 -9 -17 -17 -5 -8 12 -9 9 -6 -10 3 -14 9 -36 13
-50 7 -22 6 -24 -9 -11 -15 12 -17 10 -17 -17 0 -35 15 -50 24 -24 3 9 14 31
25 48 16 26 17 35 7 59 -11 26 -13 27 -20 10z"/>
<path d="M2571 4011 c-16 -10 -6 -51 13 -51 18 0 36 21 36 42 0 19 -25 24 -49
9z"/>
<path d="M1330 3970 c0 -5 5 -10 11 -10 5 0 7 5 4 10 -3 6 -8 10 -11 10 -2 0
-4 -4 -4 -10z"/>
<path d="M1374 3963 c3 -7 0 -13 -7 -13 -7 0 -4 -5 6 -11 23 -14 57 -2 57 20
0 13 -8 18 -30 18 -22 0 -29 -4 -26 -14z"/>
<path d="M1821 3966 c-7 -8 -8 -17 -3 -20 6 -3 12 3 15 14 6 24 4 25 -12 6z"/>
<path d="M2777 3960 c3 -11 7 -20 8 -20 1 0 5 9 8 20 3 12 0 20 -8 20 -8 0
-11 -8 -8 -20z"/>
<path d="M1443 3922 c0 -26 2 -41 5 -34 2 6 8 10 13 6 14 -8 11 46 -4 61 -11
11 -14 5 -14 -33z"/>
<path d="M1630 3949 c-13 -24 -8 -34 15 -26 16 7 21 47 5 47 -5 0 -14 -9 -20
-21z"/>
<path d="M1680 3927 c0 -21 -34 -49 -46 -37 -7 7 -18 1 -35 -16 -19 -22 -20
-26 -6 -21 26 10 53 -18 37 -38 -14 -17 -10 -57 7 -62 8 -3 12 6 12 24 -1 23
5 71 11 93 1 3 5 -4 9 -14 7 -18 9 -16 24 14 10 18 15 42 11 52 -6 21 -24 24
-24 5z"/>
<path d="M3006 3932 c-3 -5 14 -9 37 -10 31 -2 38 0 27 8 -18 12 -57 13 -64 2z"/>
<path d="M2980 3870 c0 -5 -8 -10 -18 -10 -19 0 -42 -18 -42 -33 0 -5 7 -7 15
-4 8 4 17 2 20 -3 4 -6 15 -10 26 -10 14 0 19 6 17 20 -2 10 6 26 17 34 19 15
19 15 -7 16 -16 0 -28 -4 -28 -10z"/>
<path d="M3151 3871 c-8 -5 -9 -11 -3 -15 5 -3 15 1 22 9 14 16 3 20 -19 6z"/>
<path d="M2415 3859 c-4 -6 -5 -12 -2 -15 2 -3 7 2 10 11 7 17 1 20 -8 4z"/>
<path d="M3237 3854 c-4 -4 -7 -18 -7 -31 0 -25 24 -32 33 -9 7 17 -15 50 -26
40z"/>
<path d="M1661 3784 c0 -11 3 -14 6 -6 3 7 2 16 -1 19 -3 4 -6 -2 -5 -13z"/>
<path d="M2965 3770 c20 -22 31 -20 22 5 -4 8 -14 15 -23 15 -16 0 -16 -2 1
-20z"/>
<path d="M1150 3763 c0 -1 9 -7 20 -13 16 -8 20 -8 20 4 0 9 -8 14 -20 13 -11
-1 -20 -2 -20 -4z"/>
<path d="M3135 3750 c-23 -25 -12 -39 13 -16 11 9 26 14 36 10 9 -3 16 -1 16
5 0 6 -4 11 -9 11 -5 0 -16 2 -23 5 -8 3 -23 -3 -33 -15z"/>
<path d="M1237 3753 c-14 -4 -16 -8 -6 -19 17 -20 39 -17 39 6 0 20 -2 21 -33
13z"/>
<path d="M1630 3720 c0 -5 5 -10 10 -10 6 0 10 5 10 10 0 6 -4 10 -10 10 -5 0
-10 -4 -10 -10z"/>
<path d="M1680 3715 c0 -8 7 -15 16 -15 14 0 14 3 4 15 -7 8 -14 15 -16 15 -2
0 -4 -7 -4 -15z"/>
<path d="M1501 3704 c0 -11 3 -14 6 -6 3 7 2 16 -1 19 -3 4 -6 -2 -5 -13z"/>
<path d="M1529 3716 c-1 -1 -3 -13 -5 -29 -2 -21 3 -30 26 -42 37 -19 37 -19
44 10 4 14 11 25 16 25 6 0 10 5 10 10 0 6 -13 10 -30 10 -16 0 -30 4 -30 8 0
7 -25 13 -31 8z m27 -43 c-10 -10 -19 5 -10 18 6 11 8 11 12 0 2 -7 1 -15 -2
-18z"/>
<path d="M3175 3711 c-7 -12 12 -24 25 -16 11 7 4 25 -10 25 -5 0 -11 -4 -15
-9z"/>
<path d="M3050 3684 c0 -8 5 -12 10 -9 6 3 10 10 10 16 0 5 -4 9 -10 9 -5 0
-10 -7 -10 -16z"/>
<path d="M1609 3656 c-7 -14 -9 -29 -4 -34 4 -4 10 -1 12 6 3 6 17 12 31 12
30 0 59 15 46 23 -5 2 -24 8 -41 12 -29 6 -34 3 -44 -19z"/>
<path d="M1413 3663 c9 -2 25 -2 35 0 9 3 1 5 -18 5 -19 0 -27 -2 -17 -5z"/>
<path d="M1477 3654 c4 -12 0 -14 -20 -9 -14 4 -28 2 -31 -4 -5 -7 8 -11 38
-11 47 0 55 7 34 28 -17 17 -28 15 -21 -4z"/>
<path d="M3220 3650 c0 -5 6 -10 14 -10 8 0 18 5 21 10 3 6 -3 10 -14 10 -12
0 -21 -4 -21 -10z"/>
<path d="M1495 3610 c-4 -6 10 -10 34 -10 23 0 41 5 41 10 0 6 -15 10 -34 10
-19 0 -38 -4 -41 -10z"/>
<path d="M1110 3586 c11 -11 50 -16 50 -5 0 3 -14 9 -30 11 -21 3 -27 1 -20
-6z"/>
<path d="M1185 3580 c3 -5 8 -10 11 -10 2 0 4 5 4 10 0 6 -5 10 -11 10 -5 0
-7 -4 -4 -10z"/>
<path d="M1258 3573 c7 -3 16 -2 19 1 4 3 -2 6 -13 5 -11 0 -14 -3 -6 -6z"/>
<path d="M1075 3560 c3 -5 8 -10 11 -10 2 0 4 5 4 10 0 6 -5 10 -11 10 -5 0
-7 -4 -4 -10z"/>
<path d="M1363 3536 c-3 -5 -1 -6 5 -2 7 4 12 2 12 -3 0 -15 23 -14 56 4 l29
15 -48 -2 c-27 -1 -51 -7 -54 -12z"/>
<path d="M1335 3510 c-3 -5 -1 -10 4 -10 6 0 11 5 11 10 0 6 -2 10 -4 10 -3 0
-8 -4 -11 -10z"/>
<path d="M976 3445 c-11 -8 -15 -15 -10 -15 6 0 19 7 30 15 10 8 15 14 9 14
-5 0 -19 -6 -29 -14z"/>
<path d="M1155 3450 c-4 -6 3 -10 14 -10 25 0 27 6 6 13 -8 4 -17 2 -20 -3z"/>
<path d="M920 3419 c0 -5 5 -7 10 -4 6 3 10 8 10 11 0 2 -4 4 -10 4 -5 0 -10
-5 -10 -11z"/>
<path d="M1028 3419 c-10 -5 -18 -18 -18 -27 1 -15 2 -15 11 1 6 10 20 22 32
27 13 5 16 9 7 9 -8 0 -23 -4 -32 -10z"/>
<path d="M2875 3410 c3 -5 8 -10 11 -10 2 0 4 5 4 10 0 6 -5 10 -11 10 -5 0
-7 -4 -4 -10z"/>
<path d="M1133 3358 c-9 -10 -22 -18 -29 -18 -7 0 -16 -5 -19 -10 -12 -19 88
-5 133 18 23 12 42 25 42 27 0 3 -25 4 -55 3 -39 -2 -61 -8 -72 -20z m57 -8
c0 -5 -12 -10 -27 -9 -25 0 -26 1 -8 9 27 12 35 12 35 0z"/>
<path d="M885 3359 c-9 -14 -2 -20 14 -10 8 6 9 11 3 15 -6 3 -14 1 -17 -5z"/>
<path d="M828 3335 c-32 -27 -37 -48 -10 -38 25 9 52 34 52 50 0 19 -11 16
-42 -12z"/>
<path d="M999 3343 c-13 -16 -12 -17 4 -4 9 7 17 15 17 17 0 8 -8 3 -21 -13z"/>
<path d="M1210 3298 c-60 -22 -76 -32 -91 -60 -7 -14 2 -11 41 12 28 17 57 30
64 30 7 0 21 9 31 20 10 11 16 20 14 19 -2 0 -29 -10 -59 -21z"/>
<path d="M1225 3259 c-16 -5 -41 -18 -55 -29 -20 -16 -22 -20 -7 -20 9 0 17 5
17 11 0 5 4 8 9 5 10 -7 71 25 71 37 0 4 -1 7 -2 6 -2 0 -16 -5 -33 -10z"/>
<path d="M705 3235 c34 -28 50 -28 50 1 0 15 -8 20 -40 22 l-40 2 30 -25z"/>
<path d="M982 3238 c-5 -7 -12 -27 -15 -44 -3 -17 -10 -41 -16 -52 -15 -29
-15 -29 19 -28 19 1 28 5 26 13 -3 7 -1 15 4 18 4 3 10 0 12 -7 5 -13 28 -2
28 13 0 6 -4 7 -10 4 -5 -3 -10 -3 -10 2 1 12 33 46 55 59 31 17 27 30 -9 31
-27 1 -36 -4 -41 -21 l-8 -21 -4 23 c-5 25 -16 28 -31 10z"/>
<path d="M816 3214 c-5 -14 -4 -15 9 -4 17 14 19 20 6 20 -5 0 -12 -7 -15 -16z"/>
<path d="M2400 3205 c0 -28 12 -32 30 -10 14 16 6 35 -16 35 -8 0 -14 -10 -14
-25z"/>
<path d="M2967 3173 c-7 -12 11 -53 23 -53 17 0 23 29 10 45 -14 16 -26 19
-33 8z"/>
<path d="M704 3086 c-10 -8 -16 -17 -13 -20 3 -3 14 1 25 8 10 8 16 17 13 20
-3 3 -14 -1 -25 -8z"/>
<path d="M831 3056 c-30 -30 -45 -55 -46 -75 l-3 -30 24 35 c13 19 24 38 24
41 0 4 14 22 32 40 18 18 27 33 22 33 -5 0 -29 -20 -53 -44z"/>
<path d="M3075 3090 c-3 -5 -1 -10 4 -10 6 0 11 5 11 10 0 6 -2 10 -4 10 -3 0
-8 -4 -11 -10z"/>
<path d="M3192 3048 c2 -6 12 -12 22 -14 14 -2 15 0 5 12 -14 17 -32 19 -27 2z"/>
<path d="M881 3004 c0 -11 3 -14 6 -6 3 7 2 16 -1 19 -3 4 -6 -2 -5 -13z"/>
<path d="M2815 2810 c4 -6 11 -8 16 -5 14 9 11 15 -7 15 -8 0 -12 -5 -9 -10z"/>
<path d="M3090 2716 c0 -14 5 -28 11 -31 15 -10 18 -4 12 28 -7 34 -23 36 -23
3z"/>
<path d="M1790 2709 c0 -5 5 -7 10 -4 6 3 10 8 10 11 0 2 -4 4 -10 4 -5 0 -10
-5 -10 -11z"/>
<path d="M1837 2713 c-10 -16 9 -33 41 -37 36 -4 39 2 16 30 -11 14 -17 16
-21 6 -4 -9 -8 -10 -18 -2 -7 6 -16 7 -18 3z"/>
<path d="M2258 2703 c7 -3 16 -2 19 1 4 3 -2 6 -13 5 -11 0 -14 -3 -6 -6z"/>
<path d="M3190 2670 c0 -21 17 -46 25 -38 4 4 0 17 -9 30 -10 14 -16 17 -16 8z"/>
<path d="M3275 2540 c-3 -5 -1 -10 4 -10 6 0 11 5 11 10 0 6 -2 10 -4 10 -3 0
-8 -4 -11 -10z"/>
<path d="M870 1854 c0 -9 5 -14 12 -12 18 6 21 28 4 28 -9 0 -16 -7 -16 -16z"/>
<path d="M921 1764 c0 -11 3 -14 6 -6 3 7 2 16 -1 19 -3 4 -6 -2 -5 -13z"/>
<path d="M1305 1270 c3 -5 11 -10 16 -10 6 0 7 5 4 10 -3 6 -11 10 -16 10 -6
0 -7 -4 -4 -10z"/>
<path d="M1330 1218 c0 -13 7 -33 15 -44 13 -18 14 -16 12 20 -2 43 -27 64
-27 24z"/>
<path d="M1320 1096 c0 -9 -5 -16 -11 -16 -5 0 -7 -5 -4 -10 8 -13 48 7 42 23
-6 18 -27 20 -27 3z"/>
<path d="M1210 1071 c0 -5 5 -13 10 -16 6 -3 10 -2 10 4 0 5 -4 13 -10 16 -5
3 -10 2 -10 -4z"/>
<path d="M1280 1019 c0 -5 5 -7 10 -4 6 3 10 8 10 11 0 2 -4 4 -10 4 -5 0 -10
-5 -10 -11z"/>
<path d="M1370 993 c0 -21 3 -24 9 -14 5 8 7 20 4 28 -8 21 -13 15 -13 -14z"/>
<path d="M1345 990 c-3 -5 -1 -10 4 -10 6 0 11 5 11 10 0 6 -2 10 -4 10 -3 0
-8 -4 -11 -10z"/>
<path d="M1239 887 c10 -28 71 -64 71 -42 0 8 -4 15 -10 15 -5 0 -7 7 -4 15 4
8 1 15 -5 15 -6 0 -11 -7 -11 -15 0 -9 -6 -12 -16 -8 -8 3 -13 11 -10 18 3 8
-1 16 -9 19 -11 4 -12 0 -6 -17z"/>
</g>
</svg>
